<svg width="205.707031" height="60.463867" viewBox="0 0 205.707 60.4639" fill="none" xmlns="http://www.w3.org/2000/svg" xmlns:xlink="http://www.w3.org/1999/xlink">
	<desc>
			Created with Pixso.
	</desc>
	<defs>
		<linearGradient x1="28.810621" y1="47.024483" x2="37.052391" y2="38.782715" id="paint_linear_1_1927_0" gradientUnits="userSpaceOnUse">
			<stop stop-color="#ED2939"/>
			<stop offset="1.000000" stop-color="#991F29"/>
		</linearGradient>
	</defs>
	<path d="M7.77 0L52.68 0C56.98 0 60.46 2.62 60.46 5.86L60.46 54.59C60.46 57.83 56.98 60.46 52.68 60.46L7.77 60.46C3.48 60.46 0 57.83 0 54.59L0 5.86C0 2.62 3.48 0 7.77 0Z" fill="#405149" fill-opacity="1.000000" fill-rule="evenodd"/>
	<path d="M33.14 52.36L17.57 52.36L17.57 37.4L30.35 50.19C31.21 51.04 32.14 51.77 33.14 52.36L33.14 52.36Z" fill="#ED2939" fill-opacity="1.000000" fill-rule="evenodd"/>
	<path d="M38.98 52.36C35.99 52.36 33.01 51.22 30.73 48.95L17.57 35.79L17.57 35.79L17.57 35.78C19.84 33.51 22.83 32.37 25.81 32.37C28.8 32.37 31.78 33.51 34.05 35.78L47.22 48.94C47.21 48.95 47.21 48.96 47.2 48.96C47.2 48.96 47.2 48.96 47.2 48.96C47.2 48.96 47.2 48.96 47.2 48.96L47.2 48.96C47.2 48.97 47.19 48.97 47.19 48.97L47.19 48.98L47.19 48.98L47.19 48.98L47.18 48.98C47.18 48.98 47.18 48.98 47.17 48.98C47.17 48.99 47.17 48.99 47.17 48.99C47.17 48.99 47.17 48.99 47.17 48.99L47.17 48.99C46.85 49.31 46.52 49.6 46.18 49.86C46.52 49.6 46.85 49.31 47.17 48.99C44.9 51.24 41.94 52.36 38.98 52.36L38.98 52.36ZM26.26 35.3C27.9 35.86 29.44 36.79 30.75 38.1L38.26 45.61L30.75 38.09C29.44 36.79 27.9 35.86 26.26 35.3ZM43.91 51.25L43.91 51.25L43.93 51.24L43.91 51.25Z" fill="url(#paint_linear_1_1927_0)" fill-opacity="1.000000" fill-rule="evenodd"/>
	<path d="M17.57 19.75L17.57 31.41L28.37 31.41C34.81 31.41 40.03 26.19 40.03 19.75C40.03 13.31 34.81 8.09 28.37 8.09L17.57 8.09L17.57 19.75Z" fill="#ED2939" fill-opacity="1.000000" fill-rule="evenodd"/>
	<path d="M30.75 38.09L38.26 45.61L43.91 51.25C44.7 50.88 45.47 50.42 46.18 49.86C46.19 49.86 46.19 49.85 46.2 49.85C46.53 49.58 46.86 49.3 47.17 48.99L47.17 48.99L47.17 48.99L47.17 48.99C47.17 48.99 47.17 48.99 47.17 48.98C47.17 48.98 47.18 48.98 47.18 48.98C47.18 48.98 47.18 48.98 47.18 48.98C47.18 48.98 47.18 48.98 47.18 48.98C47.18 48.98 47.18 48.98 47.19 48.98C47.19 48.98 47.19 48.98 47.19 48.98C47.19 48.97 47.19 48.97 47.19 48.97C47.19 48.97 47.19 48.97 47.19 48.97C47.19 48.97 47.19 48.97 47.19 48.97C47.2 48.97 47.2 48.96 47.2 48.96C47.2 48.96 47.2 48.96 47.2 48.96C47.2 48.96 47.2 48.96 47.2 48.96C47.2 48.96 47.2 48.96 47.2 48.96C47.21 48.96 47.21 48.96 47.21 48.95C47.21 48.95 47.21 48.95 47.21 48.95C47.21 48.95 47.21 48.95 47.21 48.95C47.22 48.95 47.22 48.94 47.22 48.94L34.05 35.78C31.77 33.5 28.79 32.37 25.81 32.37C25.41 32.37 25.01 32.39 24.6 32.43C22.04 32.69 19.53 33.81 17.57 35.78L17.57 35.79L17.57 35.79C19.14 35.06 20.83 34.69 22.52 34.69C23.78 34.69 25.05 34.9 26.25 35.3C27.9 35.86 29.44 36.79 30.75 38.09L30.75 38.09Z" fill="#ED2939" fill-opacity="1.000000" fill-rule="evenodd"/>
	<path d="M124.62 44.19Q126.39 45.67 129.39 45.67Q132.39 45.67 134.17 44.19Q134.44 43.97 134.68 43.71Q134.74 43.65 134.79 43.59Q136.51 41.63 136.51 38.16L136.51 22.47Q136.51 19 134.79 17.05Q134.74 16.99 134.68 16.93Q134.43 16.66 134.15 16.43Q132.37 14.96 129.39 14.96Q126.41 14.96 124.64 16.43Q124.36 16.66 124.1 16.93Q124.05 16.99 124 17.05Q122.27 19 122.27 22.47L122.27 38.16Q122.27 41.63 123.99 43.59Q124.05 43.65 124.1 43.71Q124.35 43.97 124.62 44.19ZM141.64 44.23Q143.36 45.67 146.28 45.67Q149.19 45.67 150.9 44.24Q151.17 44.01 151.42 43.75Q151.45 43.72 151.48 43.68Q153.19 41.76 153.19 38.33L153.19 34.11L148.75 34.11L148.75 38.67Q148.75 40.24 147.98 40.91Q147.4 41.4 146.41 41.4Q145.41 41.4 144.84 40.91Q144.07 40.24 144.07 38.67L144.07 22Q144.07 20.38 144.87 19.7Q145.44 19.22 146.41 19.22Q147.38 19.22 147.95 19.7Q148.75 20.38 148.75 22L148.75 25.45L153.19 25.45L153.19 22.29Q153.19 18.86 151.48 16.95Q151.45 16.91 151.42 16.88Q151.17 16.62 150.9 16.39Q149.19 14.96 146.28 14.96Q143.36 14.96 141.64 16.4Q141.38 16.62 141.14 16.88Q141.11 16.91 141.08 16.95Q139.37 18.86 139.37 22.29L139.37 38.33Q139.37 41.76 141.08 43.68Q141.11 43.72 141.14 43.75Q141.38 44.01 141.64 44.23ZM82.41 15.39L75.45 15.39L75.45 45.24L80.14 45.24L80.14 32.44L81.76 32.44Q83.36 32.44 84.02 33.23Q84.03 33.24 84.04 33.26Q84.71 34.07 84.71 36.11L84.71 41.58Q84.71 43.23 84.79 43.88Q84.87 44.51 85.13 45.24L89.9 45.24Q89.57 44.47 89.47 43.69Q89.39 42.9 89.39 41.62L89.39 36.37Q89.39 33.73 88.68 32.15Q88.36 31.43 87.83 30.93Q87.21 30.34 86.28 30.06L86.28 29.98Q87.04 29.67 87.61 29.16Q89.35 27.59 89.35 24.08L89.35 22.25Q89.35 18.75 87.68 17.08Q86.03 15.39 82.41 15.39ZM105.43 15.39L92.64 15.39L92.64 45.24L105.43 45.24L105.43 40.97L97.32 40.97L97.32 31.81L103.77 31.81L103.77 27.54L97.32 27.54L97.32 19.65L105.43 19.65L105.43 15.39ZM112.8 15.39L108.12 15.39L108.12 45.24L120.53 45.24L120.53 40.97L112.8 40.97L112.8 15.39ZM165.98 15.39L159.63 15.39L154.77 45.24L159.12 45.24L159.97 39.4L165.3 39.4L165.3 39.32L166.16 45.24L170.84 45.24L165.98 15.39ZM178.99 15.39L173.11 15.39L173.11 45.24L177.28 45.24L177.28 23.45L177.37 23.45L183 45.24L187.82 45.24L187.82 15.39L183.64 15.39L183.64 33.26L183.55 33.26L178.99 15.39ZM190.08 19.65L194.98 19.65L194.98 45.24L199.67 45.24L199.67 19.65L204.58 19.65L204.58 15.39L190.08 15.39L190.08 19.65ZM130.97 40.91Q130.39 41.4 129.39 41.4Q128.41 41.4 127.82 40.92Q126.97 40.21 126.97 38.46L126.97 22.17Q126.97 20.41 127.83 19.7Q128.41 19.22 129.39 19.22Q130.38 19.22 130.97 19.71Q131.83 20.42 131.83 22.17L131.83 38.46Q131.83 40.2 130.97 40.91ZM83.92 27.5Q83.22 28.19 81.84 28.19L80.14 28.19L80.14 19.65L82.27 19.65Q83.32 19.65 83.89 20.17Q83.99 20.27 84.08 20.38Q84.66 21.11 84.66 22.72L84.66 25.02Q84.66 26.73 83.96 27.46Q83.94 27.48 83.92 27.5ZM162.66 20.6L164.75 35.35L160.52 35.35L162.57 20.6L162.66 20.6Z" fill="#405149" fill-opacity="1.000000" fill-rule="evenodd"/>
</svg>
