<svg width="100.000000" height="100.000000" viewBox="0 0 100 100" fill="none" xmlns="http://www.w3.org/2000/svg" xmlns:xlink="http://www.w3.org/1999/xlink">
	<desc>
			Created with Pixso.
	</desc>
	<defs>
		<filter id="filter_1_2277_dd" x="6.000000" y="6.000000" width="88.750000" height="88.750000" filterUnits="userSpaceOnUse" color-interpolation-filters="sRGB">
			<feFlood flood-opacity="0" result="BackgroundImageFix"/>
			<feGaussianBlur in="BackgroundImage" stdDeviation="1.66667"/>
			<feComposite in2="SourceAlpha" operator="in" result="effect_backgroundBlur_1"/>
			<feBlend mode="normal" in="SourceGraphic" in2="effect_backgroundBlur_1" result="shape"/>
		</filter>
	</defs>
	<g filter="url(#filter_1_2277_dd)">
		<rect id="Rectangle 564" x="6.000000" y="6.000000" rx="44.375000" width="88.750000" height="88.750000" fill="#FFFFFF" fill-opacity="0.280000"/>
	</g>
	<circle id="Ellipse 61" cx="50.000000" cy="50.000000" r="49.500000" stroke="#B57427" stroke-opacity="1.000000" stroke-width="1.000000" stroke-dasharray="7 14 22 8"/>
	<path id="Vector" d="M44.32 25.14C44.78 24.67 45.15 24.4 45.58 24.24C46 24.07 46.46 24.01 47.07 24C47.59 24 48.21 24.07 48.56 24.17C48.89 24.27 49.48 24.55 50.55 25.21L51.29 24.75C51.71 24.49 52.28 24.23 52.59 24.14C52.89 24.06 53.53 24 53.99 24C54.6 24 55.03 24.06 55.42 24.22C55.75 24.35 56.23 24.62 56.5 24.86C56.76 25.08 57.14 25.48 57.32 25.76C57.5 26.04 57.76 26.58 57.91 26.97C58.08 27.49 58.16 27.95 58.16 28.6C58.16 29.22 58.1 29.72 57.94 30.17C57.82 30.54 57.59 31.04 57.43 31.3C57.27 31.56 55.88 33.04 54.32 34.59C52.78 36.13 51.39 37.49 51.22 37.59C51.07 37.7 50.76 37.79 50.55 37.79C50.34 37.79 50.03 37.7 49.87 37.59C49.72 37.49 48.24 36.05 46.61 34.42C43.78 31.6 43.62 31.4 43.31 30.67C43.02 29.97 42.99 29.78 42.99 28.63C42.99 27.47 43.02 27.29 43.32 26.59C43.55 26.03 43.83 25.63 44.32 25.14ZM46.08 25.73C45.9 25.82 45.58 26.05 45.39 26.25C45.2 26.43 44.9 26.89 44.75 27.25C44.52 27.74 44.46 28.1 44.46 28.63C44.46 29.16 44.52 29.52 44.75 30.01C45 30.59 45.37 31.01 47.79 33.4L50.55 36.13C55.09 31.65 56 30.68 56.22 30.26C56.48 29.79 56.56 29.5 56.59 28.79C56.6 28.6 56.61 28.44 56.61 28.3C56.61 27.9 56.55 27.7 56.37 27.3C56.22 26.97 55.96 26.53 55.78 26.32C55.6 26.11 55.26 25.85 55.01 25.75C54.76 25.63 54.31 25.54 53.94 25.54C53.56 25.54 53.08 25.63 52.75 25.76C52.46 25.88 51.88 26.23 51.49 26.53C51.09 26.84 50.67 27.08 50.55 27.08C50.42 27.08 50.02 26.84 49.63 26.55C49.26 26.27 48.68 25.91 48.37 25.78C47.98 25.62 47.57 25.54 47.1 25.54C46.7 25.55 46.28 25.62 46.08 25.73ZM60.59 35.11C60.99 34.93 61.6 34.72 61.97 34.64C62.33 34.55 63.05 34.49 63.57 34.49C64.08 34.48 64.8 34.53 65.17 34.6C65.53 34.66 66.25 34.84 66.77 35C67.28 35.15 68.08 35.47 68.53 35.71C68.98 35.97 69.64 36.37 69.97 36.63C70.3 36.88 70.86 37.41 71.21 37.8C71.59 38.21 72.03 38.88 72.28 39.39C72.53 39.87 72.78 40.54 72.86 40.88C72.96 41.31 73 42.58 73 45.34C73 48.61 72.97 49.3 72.81 49.87C72.71 50.23 72.46 50.91 72.26 51.36C72.05 51.81 71.67 52.48 71.43 52.85C71.19 53.21 70.67 53.85 70.29 54.27C69.9 54.69 69.28 55.25 68.92 55.53L68.82 55.6L68.82 55.6C68.5 55.85 68.23 56.05 68.2 56.07C68.19 56.07 68.19 56.08 68.19 56.1C68.19 56.15 68.23 56.27 68.28 56.4C68.35 56.58 68.53 56.82 68.66 56.94C68.82 57.08 69.48 57.34 70.3 57.57C71.06 57.79 71.98 58.08 72.34 58.21C72.7 58.35 73.09 58.55 73.2 58.66C73.3 58.77 73.37 58.96 73.37 59.16C73.37 59.18 73.37 59.2 73.37 59.21C73.34 59.42 73.23 59.63 72.78 59.99L71.05 59.42C70.09 59.11 69.21 58.86 69.08 58.86C68.96 58.86 67.91 59.49 64.63 61.67L63.18 61.67L61.08 60.25C59.08 58.89 58.97 58.84 58.55 58.9C58.3 58.94 58.07 59 58.03 59.06C58.01 59.07 58.01 59.17 58.01 59.33C58.01 59.62 58.03 60.1 58.07 60.62C58.12 61.18 58.15 61.62 58.15 62.02C58.15 62.41 58.12 62.77 58.07 63.16C57.97 64.06 57.87 64.37 57.42 65.26C56.99 66.12 56.71 66.5 55.88 67.36C55.17 68.07 54.96 68.3 54.96 68.44C54.96 68.5 54.99 68.53 55.04 68.58C55.15 68.67 55.71 68.89 56.28 69.05C56.86 69.22 57.67 69.54 58.1 69.76C58.53 69.99 59.07 70.4 59.82 71.22L69.58 71.16L69.61 69.34C69.64 67.81 69.67 67.49 69.83 67.32C69.93 67.21 70.17 67.13 70.35 67.13C70.53 67.13 70.74 67.18 70.8 67.22C70.87 67.27 70.98 67.41 71.06 67.55C71.14 67.71 71.18 68.44 71.18 71.22L76.37 71.22L76.37 70.86C76.37 70.66 76.31 70.16 76.26 69.73C76.2 69.3 75.98 67.64 75.76 66.03C75.39 63.27 75.34 63.05 74.95 62.25C74.71 61.73 74.62 61.52 74.62 61.36C74.62 61.26 74.65 61.19 74.71 61.09C74.81 60.92 75.02 60.75 75.17 60.68C75.39 60.59 75.53 60.61 75.75 60.77C75.9 60.87 76.21 61.32 76.42 61.76C76.64 62.2 76.89 62.94 76.97 63.44C77.06 63.92 77.24 65.14 77.36 66.14C77.48 67.15 77.69 68.78 77.82 69.78C77.94 70.7 78 71.17 78 71.47C78 71.7 77.96 71.83 77.9 71.97C77.81 72.18 77.62 72.42 77.47 72.52C77.21 72.68 76.39 72.71 60.31 72.76L60.31 75.76L59.6 76.4L51.63 76.4C44 76.41 43.64 76.4 43.38 76.2C43.22 76.09 43.03 75.85 42.96 75.67C42.89 75.53 42.85 75.25 42.85 74.41C42.85 74.01 42.86 73.48 42.88 72.76L34.77 72.76C29.98 72.76 26.51 72.72 26.28 72.65C26.07 72.6 25.78 72.44 25.66 72.3C25.53 72.15 25.39 71.92 25.35 71.77C25.34 71.73 25.34 71.67 25.34 71.59C25.34 71.32 25.38 70.8 25.45 70.28C25.48 70.06 25.52 69.75 25.57 69.38L25.57 69.38C25.67 68.63 25.8 67.67 25.9 66.86C26.05 65.65 26.28 64.13 26.37 63.49C26.48 62.84 26.69 62.06 27.16 61.07L26.58 60.95C26.26 60.88 25.81 60.7 25.59 60.56C25.34 60.39 25.13 60.15 25.05 59.94C25.01 59.82 25 59.68 25 59.54C25 59.42 25.01 59.3 25.04 59.19C25.1 58.98 25.41 58.33 25.77 57.76C26.19 57.05 26.52 56.31 26.77 55.5C26.98 54.82 27.23 53.86 27.31 53.34C27.4 52.82 27.52 51.83 27.6 51.14C27.67 50.44 27.76 48.58 27.82 47C27.89 45.39 28 43.84 28.07 43.47C28.16 43.1 28.3 42.61 28.37 42.37C28.45 42.12 28.64 41.68 28.79 41.37C28.93 41.07 29.25 40.58 29.46 40.28C29.68 39.97 30.12 39.54 30.41 39.3C30.72 39.07 31.21 38.79 31.51 38.69C31.86 38.57 32.14 38.37 32.33 38.13C32.49 37.92 32.82 37.55 33.06 37.33C33.3 37.1 33.76 36.76 34.05 36.56C34.36 36.35 35 36.05 35.49 35.9C35.97 35.73 36.73 35.54 37.14 35.46C37.62 35.38 38.42 35.35 39.24 35.39C40.26 35.44 40.84 35.52 41.75 35.79C42.41 35.98 43.2 36.26 43.51 36.42C43.83 36.58 44.41 36.93 44.81 37.19C45.21 37.46 45.8 37.93 46.15 38.25C46.48 38.57 46.91 39.03 47.1 39.28C47.27 39.52 47.62 40.07 47.87 40.49C48.12 40.91 48.44 41.68 48.6 42.2C48.76 42.72 48.96 43.59 49.05 44.13C49.14 44.67 49.27 46.57 49.35 48.32C49.37 48.95 49.39 49.56 49.41 50.09C49.45 51.04 49.48 51.74 49.48 51.85C49.47 52.07 49.38 52.25 49.21 52.38C49.07 52.49 48.86 52.58 48.76 52.57C48.65 52.57 48.44 52.46 48.29 52.33C48.04 52.11 47.99 51.93 47.9 51.14C47.85 50.62 47.78 49.13 47.73 47.83C47.7 46.52 47.61 45.06 47.56 44.57C47.49 44.09 47.29 43.24 47.12 42.7C46.93 42.16 46.6 41.38 46.37 40.99C46.14 40.59 45.59 39.92 45.17 39.5C44.75 39.08 44.05 38.51 43.61 38.26C43.18 38 42.3 37.61 41.63 37.39C40.65 37.05 40.25 36.97 39.24 36.93C38.49 36.89 37.75 36.93 37.31 37C36.91 37.08 36.22 37.29 35.76 37.47C35.31 37.64 34.67 38 34.35 38.26C34.02 38.51 33.6 38.97 33.41 39.26C33.21 39.56 32.94 39.86 32.78 39.94C32.63 40.02 32.33 40.1 32.12 40.14C31.9 40.18 31.53 40.39 31.25 40.62C30.99 40.85 30.61 41.32 30.4 41.65C30.2 41.98 29.91 42.71 29.75 43.25C29.48 44.15 29.44 44.48 29.35 47.16C29.3 48.78 29.18 50.84 29.09 51.74C28.99 52.66 28.83 53.72 28.75 54.12C28.66 54.51 28.46 55.29 28.3 55.83C28.14 56.37 27.82 57.19 27.59 57.65C27.36 58.1 27.05 58.66 26.92 58.88C26.79 59.07 26.71 59.25 26.71 59.32C26.71 59.33 26.71 59.34 26.72 59.35C26.75 59.39 27.09 59.49 28.21 59.72L28.87 59.22C29.23 58.95 29.83 58.59 30.19 58.42C30.56 58.24 31.47 57.92 32.23 57.69C33.03 57.46 33.72 57.18 33.87 57.05C34 56.93 34.16 56.7 34.23 56.54C34.26 56.48 34.27 56.43 34.27 56.38C34.27 56.21 34.11 56.04 33.56 55.5C33.12 55.06 32.55 54.42 32.29 54.06C32.02 53.7 31.66 53.06 31.46 52.63C31.27 52.2 31.04 51.56 30.95 51.19C30.87 50.79 30.8 49.93 30.8 49.07C30.8 47.71 30.81 47.59 31.04 47.35C31.21 47.19 31.5 47.07 31.82 47.02C32.11 46.98 32.48 46.88 32.64 46.79C32.82 46.7 33.15 46.45 33.39 46.23C33.64 46.01 33.98 45.71 34.16 45.55C34.41 45.37 34.68 45.27 35.16 45.22C35.64 45.18 36.04 45.22 36.65 45.39C37.1 45.52 37.72 45.67 38.03 45.74C38.51 45.84 38.73 45.82 39.92 45.52C40.67 45.33 41.48 45.18 41.72 45.18C41.96 45.18 42.33 45.26 42.51 45.34C42.71 45.43 43.03 45.65 43.21 45.82C43.39 46 43.75 46.33 44.01 46.55C44.38 46.87 44.61 46.96 45.11 47.02C45.46 47.07 45.86 47.19 45.99 47.3C46.23 47.48 46.25 47.57 46.25 49.13C46.25 50.24 46.19 50.96 46.07 51.41C45.98 51.78 45.67 52.52 45.39 53.07C44.99 53.83 44.62 54.3 42.73 56.27L42.97 56.71C43.2 57.13 43.28 57.17 45.64 57.94L46.03 57.22C46.26 56.77 46.72 56.18 47.18 55.71C47.77 55.13 48.16 54.85 48.84 54.55C49.32 54.33 49.99 54.08 50.3 54.02C50.62 53.95 51.22 53.89 51.65 53.89C52.08 53.89 52.66 53.95 52.94 54.02C53.24 54.09 53.87 54.33 54.35 54.56C54.91 54.81 55.49 55.2 55.9 55.57C56.26 55.91 56.74 56.49 56.95 56.86C57.16 57.23 57.41 57.54 57.5 57.54C57.59 57.54 58 57.44 58.41 57.32C59.02 57.14 59.2 57.03 59.37 56.74C59.5 56.54 59.6 56.3 59.6 56.21C59.6 56.12 59.39 55.89 59.12 55.71C58.87 55.54 58.37 55.11 58.02 54.78C57.66 54.45 57.07 53.77 56.71 53.29C56.34 52.8 55.87 52.07 55.67 51.67C55.46 51.25 55.18 50.53 55.05 50.07C54.81 49.25 54.8 49.02 54.8 45.45C54.8 42.81 54.84 41.47 54.94 40.93C55.03 40.51 55.19 39.86 55.32 39.5C55.44 39.13 55.69 38.58 55.9 38.28C56.1 37.97 56.44 37.57 56.66 37.37C56.88 37.18 57.25 36.93 57.47 36.8C57.7 36.69 58.1 36.53 58.38 36.45C58.66 36.37 59.1 36.11 59.37 35.87C59.65 35.62 60.19 35.28 60.59 35.11ZM62.24 36.18C61.91 36.25 61.39 36.44 61.08 36.59C60.79 36.76 60.33 37.09 60.09 37.33C59.85 37.59 59.57 37.79 59.48 37.79C59.4 37.79 59.04 37.87 58.71 37.97C58.32 38.11 57.95 38.34 57.61 38.67C57.27 39.01 57.03 39.37 56.87 39.83C56.74 40.19 56.57 40.71 56.51 40.99C56.44 41.26 56.34 42.49 56.31 43.72C56.28 44.53 56.26 45.05 56.26 45.38C56.26 45.93 56.31 45.95 56.45 45.95C56.57 45.95 56.71 45.91 56.78 45.86C56.85 45.82 56.95 45.71 57.03 45.62C57.1 45.53 57.3 44.91 57.48 44.24C57.65 43.57 57.87 42.88 57.96 42.7C58.06 42.51 58.32 42.2 58.53 42C58.76 41.81 59.14 41.59 59.41 41.53C59.69 41.45 60.64 41.43 61.97 41.45C63.79 41.49 64.15 41.54 64.73 41.75C65.09 41.88 65.61 42.13 65.89 42.31C66.16 42.49 66.96 43.13 67.65 43.74C68.34 44.36 69.12 44.97 69.36 45.09C69.62 45.23 70.11 45.34 70.6 45.39L71.4 45.45C71.4 41.89 71.36 41.23 71.23 40.82C71.14 40.51 70.89 39.99 70.69 39.66C70.48 39.33 70 38.76 69.61 38.39C69.22 38.03 68.61 37.55 68.25 37.34C67.89 37.14 67.16 36.79 66.64 36.59C66.09 36.41 65.33 36.2 64.92 36.13C64.5 36.08 63.88 36.03 63.51 36.03C63.15 36.03 62.57 36.1 62.24 36.18ZM59.5 43.27C59.36 43.44 59.21 43.76 59.16 43.96L59.14 44.02L59.11 44.14C59.03 44.41 58.92 44.85 58.82 45.23C58.66 45.91 58.5 46.24 58.18 46.6C57.96 46.87 57.6 47.18 57.39 47.28C57.18 47.39 56.83 47.51 56.62 47.55L56.23 47.63C56.36 48.9 56.55 49.67 56.73 50.18C56.91 50.67 57.32 51.48 57.65 51.96C57.98 52.45 58.61 53.2 59.07 53.62C59.51 54.05 60.21 54.61 60.64 54.85C61.07 55.11 61.76 55.45 62.19 55.62C62.78 55.85 63.16 55.92 63.84 55.92C64.48 55.94 64.92 55.87 65.44 55.68C65.84 55.55 66.53 55.22 66.99 54.95C67.44 54.69 68.18 54.13 68.63 53.72C69.08 53.3 69.64 52.71 69.85 52.41C70.09 52.11 70.44 51.51 70.66 51.08C70.88 50.65 71.14 50.07 71.23 49.76C71.33 49.41 71.4 48.78 71.4 48.08L71.4 46.94C70.05 46.94 69.57 46.88 69.27 46.76C69.02 46.66 68.57 46.41 68.26 46.22C67.95 46.03 67.35 45.55 66.93 45.17L66.83 45.08C66.42 44.7 65.92 44.26 65.66 44.05C65.39 43.83 64.87 43.51 64.5 43.34C63.87 43.04 63.78 43.03 61.79 42.99L59.74 42.95L59.5 43.27ZM34.55 47.31C34.21 47.63 33.67 48.03 33.33 48.18C33.01 48.34 32.64 48.5 32.53 48.54C32.38 48.6 32.34 48.75 32.34 49.51C32.34 50.02 32.41 50.67 32.49 50.98C32.57 51.28 32.83 51.9 33.06 52.36C33.38 52.97 33.76 53.45 34.48 54.18C35.31 55.01 35.66 55.27 36.47 55.67C37.44 56.16 37.48 56.17 38.57 56.17C39.62 56.16 39.73 56.15 40.45 55.77C40.87 55.56 41.59 55.1 42.02 54.76C42.46 54.4 43.06 53.82 43.33 53.43C43.61 53.06 43.94 52.55 44.06 52.31C44.19 52.06 44.38 51.59 44.5 51.26C44.64 50.83 44.7 50.34 44.7 49.62C44.7 48.62 44.7 48.61 44.39 48.49C44.23 48.42 43.89 48.28 43.65 48.16C43.41 48.04 42.92 47.66 42.57 47.33C42.23 47 41.87 46.73 41.78 46.73C41.69 46.73 40.98 46.88 40.2 47.07C39.42 47.24 38.67 47.4 38.52 47.4C38.37 47.4 37.73 47.26 37.09 47.11C36.45 46.96 35.75 46.81 35.54 46.78C35.2 46.73 35.09 46.79 34.55 47.31ZM58.82 48.07C58.92 47.9 59.2 47.66 59.43 47.53C59.73 47.36 60.05 47.28 60.42 47.28C60.81 47.28 61.12 47.36 61.44 47.55C61.75 47.73 61.93 47.93 61.98 48.12C62 48.2 62.01 48.29 62.01 48.37C62.01 48.5 61.99 48.62 61.96 48.71C61.9 48.86 61.73 49.02 61.53 49.08C61.27 49.16 61.13 49.14 60.89 49.01C60.72 48.9 60.51 48.82 60.42 48.82C60.33 48.82 60.11 48.91 59.94 49.01C59.68 49.16 59.54 49.18 59.31 49.1C59.13 49.03 58.92 48.85 58.82 48.68C58.75 48.54 58.71 48.46 58.71 48.38C58.71 48.29 58.75 48.21 58.82 48.07ZM66.18 47.71C66.41 47.54 66.68 47.39 66.77 47.35C66.85 47.32 67.14 47.29 67.4 47.29C67.66 47.28 68.03 47.35 68.22 47.45C68.42 47.55 68.67 47.72 68.78 47.82C68.89 47.91 68.98 48.12 68.98 48.31C68.98 48.32 68.98 48.33 68.97 48.34C68.97 48.58 68.89 48.8 68.72 48.94C68.58 49.08 68.39 49.16 68.26 49.12C68.14 49.08 67.87 49 67.68 48.92C67.36 48.79 67.28 48.79 66.96 48.97C66.75 49.1 66.5 49.15 66.35 49.11C66.21 49.07 66.03 48.96 65.94 48.87C65.85 48.79 65.77 48.54 65.77 48.34C65.77 48.33 65.77 48.31 65.77 48.3C65.77 48.04 65.86 47.92 66.18 47.71ZM40.72 49.05C40.89 48.87 41.15 48.7 41.29 48.68C41.44 48.65 41.75 48.62 42 48.62C42.24 48.61 42.64 48.7 42.88 48.81C43.17 48.95 43.37 49.14 43.48 49.39C43.54 49.54 43.57 49.65 43.57 49.74C43.57 49.83 43.55 49.91 43.5 50C43.43 50.14 43.25 50.31 43.07 50.37C42.83 50.47 42.7 50.46 42.46 50.32C42.3 50.22 42.1 50.14 42.02 50.14C41.95 50.14 41.73 50.21 41.56 50.31C41.38 50.4 41.18 50.47 41.12 50.47C41.05 50.49 40.87 50.39 40.69 50.25C40.49 50.1 40.4 49.93 40.4 49.7C40.4 49.48 40.51 49.26 40.72 49.05ZM34.02 49.07C34.16 48.93 34.42 48.78 34.6 48.71C34.79 48.65 35.19 48.62 35.51 48.63C35.89 48.64 36.18 48.73 36.39 48.89C36.56 49.01 36.77 49.25 36.83 49.4C36.89 49.52 36.92 49.63 36.92 49.73C36.92 49.81 36.9 49.89 36.87 49.98C36.8 50.13 36.62 50.31 36.45 50.37C36.22 50.46 36.06 50.44 35.76 50.3C35.4 50.12 35.34 50.12 34.96 50.3C34.74 50.4 34.52 50.47 34.46 50.47C34.42 50.49 34.25 50.39 34.08 50.25C33.85 50.1 33.78 49.93 33.78 49.67C33.78 49.45 33.87 49.23 34.02 49.07ZM61.68 52.41C61.68 52.4 61.68 52.39 61.68 52.38C61.68 52.26 61.75 52.05 61.86 51.93C61.97 51.78 62.16 51.69 62.35 51.69C62.54 51.69 62.92 51.82 63.2 51.99C63.61 52.21 63.82 52.26 64.08 52.21C64.28 52.16 64.58 52.03 64.75 51.91C64.92 51.78 65.21 51.69 65.39 51.69C65.57 51.69 65.81 51.78 65.92 51.89C66.02 51.99 66.1 52.2 66.1 52.39C66.1 52.41 66.1 52.42 66.1 52.43C66.1 52.7 66.01 52.87 65.74 53.09C65.55 53.24 65.17 53.48 64.89 53.6C64.51 53.76 64.23 53.81 63.73 53.76C63.29 53.73 62.89 53.62 62.54 53.42C62.25 53.25 61.94 53.01 61.86 52.87C61.77 52.74 61.68 52.53 61.68 52.41ZM36.87 53.62C36.87 53.46 36.97 53.24 37.09 53.12C37.22 52.99 37.45 52.9 37.66 52.9C37.86 52.9 38.12 52.98 38.23 53.07C38.35 53.16 38.55 53.23 38.67 53.23C38.81 53.24 38.98 53.17 39.07 53.07C39.16 52.97 39.41 52.89 39.62 52.9C39.83 52.9 40.1 52.99 40.21 53.1C40.32 53.19 40.4 53.39 40.4 53.54C40.4 53.55 40.4 53.55 40.4 53.56C40.4 53.72 40.33 53.96 40.25 54.1C40.18 54.25 39.89 54.46 39.62 54.57C39.35 54.68 38.95 54.78 38.74 54.78C38.53 54.78 38.17 54.72 37.94 54.67C37.72 54.6 37.37 54.4 37.2 54.23C37.01 54.04 36.87 53.77 36.87 53.62ZM50.22 55.66C49.89 55.77 49.37 56 49.07 56.18C48.77 56.36 48.33 56.72 48.09 57C47.85 57.26 47.55 57.69 47.41 57.93C47.27 58.18 47.06 58.64 46.96 58.98C46.88 59.23 46.83 59.51 46.83 59.69C46.83 59.74 46.83 59.78 46.84 59.81C46.91 60.01 46.95 59.99 47.38 59.57C47.64 59.32 48.01 59.04 48.2 58.94C48.4 58.84 48.74 58.76 48.95 58.76C49.16 58.76 49.84 58.88 50.46 59.04L51.6 59.32C53.35 58.88 54.03 58.76 54.25 58.76C54.45 58.76 54.75 58.8 54.91 58.87C55.06 58.93 55.42 59.21 55.73 59.5C56.23 59.97 56.3 60.01 56.36 59.81C56.37 59.79 56.37 59.75 56.37 59.71C56.37 59.54 56.32 59.25 56.24 58.98C56.13 58.64 55.91 58.14 55.76 57.88C55.59 57.6 55.32 57.21 55.13 57.01C54.95 56.8 54.52 56.45 54.19 56.23C53.86 56.02 53.31 55.76 52.98 55.65C52.6 55.52 52.07 55.45 51.6 55.45C51.17 55.46 50.56 55.55 50.22 55.66ZM60.52 57.94C60.52 57.95 60.52 57.95 60.52 57.96C60.55 58 61.27 58.53 62.14 59.11C63.01 59.71 63.81 60.19 63.9 60.19C63.99 60.19 64.7 59.76 65.5 59.25C66.28 58.72 67.02 58.21 67.13 58.11C67.21 58.03 67.26 57.99 67.26 57.91C67.26 57.82 67.18 57.69 67.02 57.4C66.8 57.02 66.67 56.88 66.55 56.94C66.46 56.98 66.08 57.12 65.72 57.23C65.35 57.35 64.74 57.47 64.34 57.5C63.87 57.55 63.33 57.51 62.76 57.39C62.3 57.29 61.73 57.14 61.49 57.04C61.43 57.02 61.37 56.99 61.32 56.97C61.18 56.91 61.08 56.87 61.07 56.87C61.07 56.88 60.94 57.11 60.78 57.38C60.62 57.62 60.52 57.87 60.52 57.94ZM35.4 57.6L35.1 58.1C38.21 60.16 38.5 60.32 38.72 60.24C38.85 60.18 39.64 59.68 40.45 59.11L41.94 58.1C41.53 57.37 41.35 57.16 41.27 57.17C41.18 57.18 40.74 57.33 40.29 57.49C39.66 57.71 39.25 57.78 38.58 57.78C37.92 57.79 37.48 57.71 36.87 57.5C36.41 57.36 35.96 57.21 35.87 57.16C35.75 57.12 35.61 57.26 35.4 57.6ZM32.12 59.37C31.48 59.58 30.75 59.85 30.48 60C30.21 60.13 29.75 60.47 29.43 60.75C29.12 61.03 28.74 61.47 28.58 61.74C28.42 62.02 28.21 62.5 28.11 62.84C28.02 63.17 27.89 63.77 27.83 64.17C27.77 64.5 27.6 65.77 27.42 67.17L27.42 67.18C27.39 67.41 27.35 67.65 27.32 67.88C27.11 69.54 26.94 70.96 26.94 71.06C26.94 71.21 27.26 71.23 29.2 71.23L31.46 71.23C31.46 68.02 31.5 67.59 31.63 67.39C31.74 67.22 31.9 67.15 32.14 67.15C32.34 67.13 32.61 67.21 32.73 67.3C32.93 67.44 32.95 67.62 33.01 69.31L33.06 71.17L43.38 71.23C44.27 70.27 44.69 69.97 45.31 69.67C45.79 69.44 46.61 69.13 47.13 68.99C47.65 68.84 48.13 68.69 48.2 68.65C48.28 68.61 48.34 68.52 48.34 68.47C48.34 68.4 47.88 67.9 47.32 67.33C46.46 66.48 46.21 66.14 45.77 65.27C45.37 64.46 45.22 64.01 45.13 63.34C45.08 63.01 45.06 62.54 45.06 62.04C45.06 61.73 45.07 61.4 45.08 61.08C45.13 60.32 45.19 59.64 45.21 59.59C45.21 59.58 45.21 59.58 45.21 59.58C45.21 59.51 44.89 59.36 44.49 59.22C44.06 59.09 43.64 58.98 43.57 58.98C43.5 58.97 42.64 59.51 41.67 60.17C40.69 60.83 39.69 61.47 39.42 61.61C39.17 61.74 38.78 61.85 38.55 61.85C38.32 61.85 37.92 61.74 37.64 61.58C37.36 61.44 36.36 60.8 35.4 60.15C34.45 59.51 33.58 58.98 33.47 58.98C33.37 58.98 32.76 59.16 32.12 59.37ZM48.29 60.83C47.98 61.12 47.49 61.45 47.21 61.57L46.67 61.79C46.69 62.99 46.74 63.54 46.81 63.78C46.87 64.02 47.13 64.56 47.38 64.98C47.64 65.4 48.16 66.04 48.56 66.41C48.97 66.78 49.61 67.22 50.05 67.43C50.47 67.63 51.05 67.83 51.32 67.87C51.68 67.92 52.01 67.87 52.53 67.7C52.93 67.56 53.5 67.29 53.8 67.08C54.1 66.87 54.49 66.59 54.64 66.45C54.8 66.32 55.17 65.88 55.47 65.49C55.78 65.09 56.12 64.5 56.25 64.17C56.37 63.82 56.52 63.26 56.56 62.9C56.59 62.68 56.6 62.44 56.6 62.27C56.6 62.15 56.6 62.06 56.58 62.02C56.54 61.88 56.31 61.71 55.99 61.57C55.7 61.45 55.19 61.11 54.86 60.8L54.26 60.25C52.8 60.62 52.17 60.77 51.93 60.8C51.63 60.86 51.11 60.78 50.3 60.59C49.64 60.43 49.05 60.3 48.97 60.3C48.91 60.3 48.58 60.55 48.29 60.83ZM48.56 62.83C48.56 62.42 48.62 62.22 48.78 62.06C48.91 61.94 49.15 61.84 49.33 61.84C49.52 61.84 49.76 61.94 49.89 62.06C50.05 62.22 50.11 62.42 50.11 62.83C50.11 63.24 50.05 63.44 49.89 63.6C49.76 63.73 49.52 63.82 49.33 63.82C49.15 63.82 48.91 63.73 48.78 63.6C48.62 63.44 48.56 63.24 48.56 62.83ZM52.98 62.83C52.98 62.42 53.03 62.22 53.19 62.06C53.32 61.94 53.55 61.84 53.71 61.84C53.89 61.84 54.08 61.88 54.14 61.93C54.21 61.97 54.32 62.11 54.4 62.25C54.46 62.39 54.52 62.66 54.52 62.83C54.52 63.01 54.46 63.27 54.4 63.41C54.32 63.55 54.21 63.69 54.14 63.74C54.08 63.78 53.89 63.82 53.71 63.82C53.55 63.82 53.32 63.73 53.19 63.6C53.03 63.44 52.98 63.24 52.98 62.83ZM49.2 69.95C49.2 69.95 49.2 69.96 49.2 69.96C49.21 69.98 49.73 70.31 50.35 70.68C50.98 71.03 51.53 71.33 51.6 71.33C51.65 71.33 52.05 71.13 52.48 70.87C52.9 70.62 53.45 70.29 53.69 70.15C53.94 70 54.04 69.92 54.04 69.85C54.04 69.82 54.01 69.79 53.96 69.75C53.87 69.68 53.7 69.48 53.6 69.32L53.42 69.02C52.66 69.32 52.16 69.39 51.6 69.39C51.07 69.39 50.53 69.32 50.25 69.21L49.78 69.03L49.48 69.46C49.32 69.69 49.2 69.89 49.2 69.95ZM46.53 70.8C46.22 70.92 45.78 71.15 45.54 71.32C45.3 71.48 44.96 71.86 44.77 72.17C44.48 72.65 44.44 72.85 44.38 73.79L44.33 74.87L58.89 74.87C58.78 73.2 58.67 72.54 58.58 72.33C58.48 72.11 58.24 71.79 58.04 71.59C57.84 71.4 57.5 71.16 57.29 71.05C57.07 70.95 56.71 70.8 56.48 70.71L56.08 70.57C52.69 72.56 52.16 72.82 51.77 72.86C51.4 72.89 51.12 72.83 50.67 72.62C50.33 72.45 49.43 71.93 48.67 71.45C47.91 70.96 47.25 70.57 47.18 70.57C47.13 70.58 46.83 70.68 46.53 70.8Z" fill="#B57427" fill-opacity="1.000000" fill-rule="evenodd"/>
	<path id="Vector" d="M45.58 24.24C46 24.07 46.46 24.01 47.07 24C47.59 24 48.21 24.07 48.56 24.17C48.89 24.27 49.48 24.55 50.55 25.21L51.29 24.75C51.71 24.49 52.28 24.23 52.59 24.14C52.89 24.06 53.53 24 53.99 24C54.6 24 55.03 24.06 55.42 24.22C55.75 24.35 56.23 24.62 56.5 24.86C56.76 25.08 57.14 25.48 57.32 25.76C57.5 26.04 57.76 26.58 57.91 26.97C58.08 27.49 58.16 27.95 58.16 28.6C58.16 29.22 58.1 29.72 57.94 30.17C57.82 30.54 57.59 31.04 57.43 31.3C57.27 31.56 55.88 33.04 54.32 34.59C52.78 36.13 51.39 37.49 51.22 37.59C51.07 37.7 50.76 37.79 50.55 37.79C50.34 37.79 50.03 37.7 49.87 37.59C49.72 37.49 48.24 36.05 46.61 34.42C43.78 31.6 43.62 31.4 43.31 30.67C43.02 29.97 42.99 29.78 42.99 28.63C42.99 27.47 43.02 27.29 43.32 26.59C43.55 26.03 43.83 25.63 44.32 25.14C44.78 24.67 45.15 24.4 45.58 24.24ZM61.97 34.64C62.33 34.55 63.05 34.49 63.57 34.49C64.08 34.48 64.8 34.53 65.17 34.6C65.53 34.66 66.25 34.84 66.77 35C67.28 35.15 68.08 35.47 68.53 35.71C68.98 35.97 69.64 36.37 69.97 36.63C70.3 36.88 70.86 37.41 71.21 37.8C71.59 38.21 72.03 38.88 72.28 39.39C72.53 39.87 72.78 40.54 72.86 40.88C72.96 41.31 73 42.58 73 45.34C73 48.61 72.97 49.3 72.81 49.87C72.71 50.23 72.46 50.91 72.26 51.36C72.05 51.81 71.67 52.48 71.43 52.85C71.19 53.21 70.67 53.85 70.29 54.27C69.9 54.69 69.28 55.25 68.92 55.53L68.82 55.6L68.82 55.6C68.5 55.85 68.23 56.05 68.2 56.07C68.17 56.08 68.21 56.23 68.28 56.4C68.35 56.58 68.53 56.82 68.66 56.94C68.82 57.08 69.48 57.34 70.3 57.57C71.06 57.79 71.98 58.08 72.34 58.21C72.7 58.35 73.09 58.55 73.2 58.66C73.31 58.78 73.37 58.99 73.37 59.21C73.34 59.42 73.23 59.63 72.78 59.99L71.05 59.42C70.09 59.11 69.21 58.86 69.08 58.86C68.96 58.86 67.91 59.49 64.63 61.67L63.18 61.67L61.08 60.25C59.08 58.89 58.97 58.84 58.55 58.9C58.3 58.94 58.07 59 58.03 59.06C57.98 59.1 58.01 59.81 58.07 60.62C58.17 61.74 58.17 62.38 58.07 63.16C57.97 64.06 57.87 64.37 57.42 65.26C56.99 66.12 56.71 66.5 55.88 67.36C54.91 68.34 54.86 68.41 55.04 68.58C55.15 68.67 55.71 68.89 56.28 69.05C56.86 69.22 57.67 69.54 58.1 69.76C58.53 69.99 59.07 70.4 59.82 71.22L69.58 71.16L69.61 69.34C69.64 67.81 69.67 67.49 69.83 67.32C69.93 67.21 70.17 67.13 70.35 67.13C70.53 67.13 70.74 67.18 70.8 67.22C70.87 67.27 70.98 67.41 71.06 67.55C71.14 67.71 71.18 68.44 71.18 71.22L76.37 71.22L76.37 70.86C76.37 70.66 76.31 70.16 76.26 69.73C76.2 69.3 75.98 67.64 75.76 66.03C75.39 63.27 75.34 63.05 74.95 62.25C74.57 61.42 74.56 61.36 74.71 61.09C74.81 60.92 75.02 60.75 75.17 60.68C75.39 60.59 75.53 60.61 75.75 60.77C75.9 60.87 76.21 61.32 76.42 61.76C76.64 62.2 76.89 62.94 76.97 63.44C77.06 63.92 77.24 65.14 77.36 66.14C77.48 67.15 77.69 68.78 77.82 69.78C78.03 71.4 78.04 71.65 77.9 71.97C77.81 72.18 77.62 72.42 77.47 72.52C77.21 72.68 76.39 72.71 60.31 72.76L60.31 75.76L59.6 76.4L51.63 76.4C44 76.41 43.64 76.4 43.38 76.2C43.22 76.09 43.03 75.85 42.96 75.67C42.86 75.45 42.82 74.96 42.88 72.76L34.77 72.76C29.98 72.76 26.51 72.72 26.28 72.65C26.07 72.6 25.78 72.44 25.66 72.3C25.53 72.15 25.39 71.92 25.35 71.77C25.32 71.61 25.36 70.95 25.45 70.28C25.48 70.06 25.52 69.75 25.57 69.38L25.57 69.38C25.67 68.63 25.8 67.67 25.9 66.86C26.05 65.65 26.28 64.13 26.37 63.49C26.48 62.84 26.69 62.06 27.16 61.07L26.58 60.95C26.26 60.88 25.81 60.7 25.59 60.56C25.34 60.39 25.13 60.15 25.05 59.94C24.98 59.71 24.97 59.43 25.04 59.19C25.1 58.98 25.41 58.33 25.77 57.76C26.19 57.05 26.52 56.31 26.77 55.5C26.98 54.82 27.23 53.86 27.31 53.34C27.4 52.82 27.52 51.83 27.6 51.14C27.67 50.44 27.76 48.58 27.82 47C27.89 45.39 28 43.84 28.07 43.47C28.16 43.1 28.3 42.61 28.37 42.37C28.45 42.12 28.64 41.68 28.79 41.37C28.93 41.07 29.25 40.58 29.46 40.28C29.68 39.97 30.12 39.54 30.41 39.3C30.72 39.07 31.21 38.79 31.51 38.69C31.86 38.57 32.14 38.37 32.33 38.13C32.49 37.92 32.82 37.55 33.06 37.33C33.3 37.1 33.76 36.76 34.05 36.56C34.36 36.35 35 36.05 35.49 35.9C35.97 35.73 36.73 35.54 37.14 35.46C37.62 35.38 38.42 35.35 39.24 35.39C40.26 35.44 40.84 35.52 41.75 35.79C42.41 35.98 43.2 36.26 43.51 36.42C43.83 36.58 44.41 36.93 44.81 37.19C45.21 37.46 45.8 37.93 46.15 38.25C46.48 38.57 46.91 39.03 47.1 39.28C47.27 39.52 47.62 40.07 47.87 40.49C48.12 40.91 48.44 41.68 48.6 42.2C48.76 42.72 48.96 43.59 49.05 44.13C49.14 44.67 49.27 46.57 49.35 48.32C49.37 48.95 49.39 49.56 49.41 50.09C49.45 51.04 49.48 51.74 49.48 51.85C49.47 52.07 49.38 52.25 49.21 52.38C49.07 52.49 48.86 52.58 48.76 52.57C48.65 52.57 48.44 52.46 48.29 52.33C48.04 52.11 47.99 51.93 47.9 51.14C47.85 50.62 47.78 49.13 47.73 47.83C47.7 46.52 47.61 45.06 47.56 44.57C47.49 44.09 47.29 43.24 47.12 42.7C46.93 42.16 46.6 41.38 46.37 40.99C46.14 40.59 45.59 39.92 45.17 39.5C44.75 39.08 44.05 38.51 43.61 38.26C43.18 38 42.3 37.61 41.63 37.39C40.65 37.05 40.25 36.97 39.24 36.93C38.49 36.89 37.75 36.93 37.31 37C36.91 37.08 36.22 37.29 35.76 37.47C35.31 37.64 34.67 38 34.35 38.26C34.02 38.51 33.6 38.97 33.41 39.26C33.21 39.56 32.94 39.86 32.78 39.94C32.63 40.02 32.33 40.1 32.12 40.14C31.9 40.18 31.53 40.39 31.25 40.62C30.99 40.85 30.61 41.32 30.4 41.65C30.2 41.98 29.91 42.71 29.75 43.25C29.48 44.15 29.44 44.48 29.35 47.16C29.3 48.78 29.18 50.84 29.09 51.74C28.99 52.66 28.83 53.72 28.75 54.12C28.66 54.51 28.46 55.29 28.3 55.83C28.14 56.37 27.82 57.19 27.59 57.65C27.36 58.1 27.05 58.66 26.92 58.88C26.77 59.1 26.68 59.31 26.72 59.35C26.75 59.39 27.09 59.49 28.21 59.72L28.87 59.22C29.23 58.95 29.83 58.59 30.19 58.42C30.56 58.24 31.47 57.92 32.23 57.69C33.03 57.46 33.72 57.18 33.87 57.05C34 56.93 34.16 56.7 34.23 56.54C34.34 56.29 34.28 56.21 33.56 55.5C33.12 55.06 32.55 54.42 32.29 54.06C32.02 53.7 31.66 53.06 31.46 52.63C31.27 52.2 31.04 51.56 30.95 51.19C30.87 50.79 30.8 49.93 30.8 49.07C30.8 47.71 30.81 47.59 31.04 47.35C31.21 47.19 31.5 47.07 31.82 47.02C32.11 46.98 32.48 46.88 32.64 46.79C32.82 46.7 33.15 46.45 33.39 46.23C33.64 46.01 33.98 45.71 34.16 45.55C34.41 45.37 34.68 45.27 35.16 45.22C35.64 45.18 36.04 45.22 36.65 45.39C37.1 45.52 37.72 45.67 38.03 45.74C38.51 45.84 38.73 45.82 39.92 45.52C40.67 45.33 41.48 45.18 41.72 45.18C41.96 45.18 42.33 45.26 42.51 45.34C42.71 45.43 43.03 45.65 43.21 45.82C43.39 46 43.75 46.33 44.01 46.55C44.38 46.87 44.61 46.96 45.11 47.02C45.46 47.07 45.86 47.19 45.99 47.3C46.23 47.48 46.25 47.57 46.25 49.13C46.25 50.24 46.19 50.96 46.07 51.41C45.98 51.78 45.67 52.52 45.39 53.07C44.99 53.83 44.62 54.3 42.73 56.27L42.97 56.71C43.2 57.13 43.28 57.17 45.64 57.94L46.03 57.22C46.26 56.77 46.72 56.18 47.18 55.71C47.77 55.13 48.16 54.85 48.84 54.55C49.32 54.33 49.99 54.08 50.3 54.02C50.62 53.95 51.22 53.89 51.65 53.89C52.08 53.89 52.66 53.95 52.94 54.02C53.24 54.09 53.87 54.33 54.35 54.56C54.91 54.81 55.49 55.2 55.9 55.57C56.26 55.91 56.74 56.49 56.95 56.86C57.16 57.23 57.41 57.54 57.5 57.54C57.59 57.54 58 57.44 58.41 57.32C59.02 57.14 59.2 57.03 59.37 56.74C59.5 56.54 59.6 56.3 59.6 56.21C59.6 56.12 59.39 55.89 59.12 55.71C58.87 55.54 58.37 55.11 58.02 54.78C57.66 54.45 57.07 53.77 56.71 53.29C56.34 52.8 55.87 52.07 55.67 51.67C55.46 51.25 55.18 50.53 55.05 50.07C54.81 49.25 54.8 49.02 54.8 45.45C54.8 42.81 54.84 41.47 54.94 40.93C55.03 40.51 55.19 39.86 55.32 39.5C55.44 39.13 55.69 38.58 55.9 38.28C56.1 37.97 56.44 37.57 56.66 37.37C56.88 37.18 57.25 36.93 57.47 36.8C57.7 36.69 58.1 36.53 58.38 36.45C58.66 36.37 59.1 36.11 59.37 35.87C59.65 35.62 60.19 35.28 60.59 35.11C60.99 34.93 61.6 34.72 61.97 34.64ZM45.39 26.25C45.2 26.43 44.9 26.89 44.75 27.25C44.52 27.74 44.46 28.1 44.46 28.63C44.46 29.16 44.52 29.52 44.75 30.01C45 30.59 45.37 31.01 47.79 33.4L50.55 36.13C55.09 31.65 56 30.68 56.22 30.26C56.48 29.79 56.56 29.5 56.59 28.79C56.64 28.02 56.62 27.83 56.37 27.3C56.22 26.97 55.96 26.53 55.78 26.32C55.6 26.11 55.26 25.85 55.01 25.75C54.76 25.63 54.31 25.54 53.94 25.54C53.56 25.54 53.08 25.63 52.75 25.76C52.46 25.88 51.88 26.23 51.49 26.53C51.09 26.84 50.67 27.08 50.55 27.08C50.42 27.08 50.02 26.84 49.63 26.55C49.26 26.27 48.68 25.91 48.37 25.78C47.98 25.62 47.57 25.54 47.1 25.54C46.7 25.55 46.28 25.62 46.08 25.73C45.9 25.82 45.58 26.05 45.39 26.25ZM61.08 36.59C60.79 36.76 60.33 37.09 60.09 37.33C59.85 37.59 59.57 37.79 59.48 37.79C59.4 37.79 59.04 37.87 58.71 37.97C58.32 38.11 57.95 38.34 57.61 38.67C57.27 39.01 57.03 39.37 56.87 39.83C56.74 40.19 56.57 40.71 56.51 40.99C56.44 41.26 56.34 42.49 56.31 43.72C56.23 45.91 56.23 45.95 56.45 45.95C56.57 45.95 56.71 45.91 56.78 45.86C56.85 45.82 56.95 45.71 57.03 45.62C57.1 45.53 57.3 44.91 57.48 44.24C57.65 43.57 57.87 42.88 57.96 42.7C58.06 42.51 58.32 42.2 58.53 42C58.76 41.81 59.14 41.59 59.41 41.53C59.69 41.45 60.64 41.43 61.97 41.45C63.79 41.49 64.15 41.54 64.73 41.75C65.09 41.88 65.61 42.13 65.89 42.31C66.16 42.49 66.96 43.13 67.65 43.74C68.34 44.36 69.12 44.97 69.36 45.09C69.62 45.23 70.11 45.34 70.6 45.39L71.4 45.45C71.4 41.89 71.36 41.23 71.23 40.82C71.14 40.51 70.89 39.99 70.69 39.66C70.48 39.33 70 38.76 69.61 38.39C69.22 38.03 68.61 37.55 68.25 37.34C67.89 37.14 67.16 36.79 66.64 36.59C66.09 36.41 65.33 36.2 64.92 36.13C64.5 36.08 63.88 36.03 63.51 36.03C63.15 36.03 62.57 36.1 62.24 36.18C61.91 36.25 61.39 36.44 61.08 36.59ZM59.5 43.27L59.74 42.95L61.79 42.99C63.78 43.03 63.87 43.04 64.5 43.34C64.87 43.51 65.39 43.83 65.66 44.05C65.92 44.26 66.42 44.7 66.83 45.08L66.93 45.17C67.35 45.55 67.95 46.03 68.26 46.22C68.57 46.41 69.02 46.66 69.27 46.76C69.57 46.88 70.05 46.94 71.4 46.94L71.4 48.08C71.4 48.78 71.33 49.41 71.23 49.76C71.14 50.07 70.88 50.65 70.66 51.08C70.44 51.51 70.09 52.11 69.85 52.41C69.64 52.71 69.08 53.3 68.63 53.72C68.18 54.13 67.44 54.69 66.99 54.95C66.53 55.22 65.84 55.55 65.44 55.68C64.92 55.87 64.48 55.94 63.84 55.92C63.16 55.92 62.78 55.85 62.19 55.62C61.76 55.45 61.07 55.11 60.64 54.85C60.21 54.61 59.51 54.05 59.07 53.62C58.61 53.2 57.98 52.45 57.65 51.96C57.32 51.48 56.91 50.67 56.73 50.18C56.55 49.67 56.36 48.9 56.23 47.63L56.62 47.55C56.83 47.51 57.18 47.39 57.39 47.28C57.6 47.18 57.96 46.87 58.18 46.6C58.5 46.24 58.66 45.91 58.82 45.23C58.92 44.85 59.03 44.41 59.11 44.14L59.14 44.02L59.16 43.96C59.21 43.76 59.36 43.44 59.5 43.27ZM33.33 48.18C33.01 48.34 32.64 48.5 32.53 48.54C32.38 48.6 32.34 48.75 32.34 49.51C32.34 50.02 32.41 50.67 32.49 50.98C32.57 51.28 32.83 51.9 33.06 52.36C33.38 52.97 33.76 53.45 34.48 54.18C35.31 55.01 35.66 55.27 36.47 55.67C37.44 56.16 37.48 56.17 38.57 56.17C39.62 56.16 39.73 56.15 40.45 55.77C40.87 55.56 41.59 55.1 42.02 54.76C42.46 54.4 43.06 53.82 43.33 53.43C43.61 53.06 43.94 52.55 44.06 52.31C44.19 52.06 44.38 51.59 44.5 51.26C44.64 50.83 44.7 50.34 44.7 49.62C44.7 48.62 44.7 48.61 44.39 48.49C44.23 48.42 43.89 48.28 43.65 48.16C43.41 48.04 42.92 47.66 42.57 47.33C42.23 47 41.87 46.73 41.78 46.73C41.69 46.73 40.98 46.88 40.2 47.07C39.42 47.24 38.67 47.4 38.52 47.4C38.37 47.4 37.73 47.26 37.09 47.11C36.45 46.96 35.75 46.81 35.54 46.78C35.2 46.73 35.09 46.79 34.55 47.31C34.21 47.63 33.67 48.03 33.33 48.18ZM50.22 55.66C50.56 55.55 51.17 55.46 51.6 55.45C52.07 55.45 52.6 55.52 52.98 55.65C53.31 55.76 53.86 56.02 54.19 56.23C54.52 56.45 54.95 56.8 55.13 57.01C55.32 57.21 55.59 57.6 55.76 57.88C55.91 58.14 56.13 58.64 56.24 58.98C56.34 59.31 56.4 59.69 56.36 59.81C56.3 60.01 56.23 59.97 55.73 59.5C55.42 59.21 55.06 58.93 54.91 58.87C54.75 58.8 54.45 58.76 54.25 58.76C54.03 58.76 53.35 58.88 51.6 59.32L50.46 59.04C49.84 58.88 49.16 58.76 48.95 58.76C48.74 58.76 48.4 58.84 48.2 58.94C48.01 59.04 47.64 59.32 47.38 59.57C46.95 59.99 46.91 60.01 46.84 59.81C46.8 59.69 46.85 59.31 46.96 58.98C47.06 58.64 47.27 58.18 47.41 57.93C47.55 57.69 47.85 57.26 48.09 57C48.33 56.72 48.77 56.36 49.07 56.18C49.37 56 49.89 55.77 50.22 55.66ZM60.52 57.96C60.55 58 61.27 58.53 62.14 59.11C63.01 59.71 63.81 60.19 63.9 60.19C63.99 60.19 64.7 59.76 65.5 59.25C66.28 58.72 67.02 58.21 67.13 58.11C67.32 57.93 67.31 57.91 67.02 57.4C66.8 57.02 66.67 56.88 66.55 56.94C66.46 56.98 66.08 57.12 65.72 57.23C65.35 57.35 64.74 57.47 64.34 57.5C63.87 57.55 63.33 57.51 62.76 57.39C62.3 57.29 61.73 57.14 61.49 57.04C61.43 57.02 61.37 56.99 61.32 56.97C61.18 56.91 61.08 56.87 61.07 56.87C61.07 56.88 60.94 57.11 60.78 57.38C60.61 57.65 60.5 57.91 60.52 57.96ZM35.4 57.6C35.61 57.26 35.75 57.12 35.87 57.16C35.96 57.21 36.41 57.36 36.87 57.5C37.48 57.71 37.92 57.79 38.58 57.78C39.25 57.78 39.66 57.71 40.29 57.49C40.74 57.33 41.18 57.18 41.27 57.17C41.35 57.16 41.53 57.37 41.94 58.1L40.45 59.11C39.64 59.68 38.85 60.18 38.72 60.24C38.5 60.32 38.21 60.16 35.1 58.1L35.4 57.6ZM30.48 60C30.21 60.13 29.75 60.47 29.43 60.75C29.12 61.03 28.74 61.47 28.58 61.74C28.42 62.02 28.21 62.5 28.11 62.84C28.02 63.17 27.89 63.77 27.83 64.17C27.77 64.5 27.6 65.77 27.42 67.17L27.42 67.18C27.39 67.41 27.35 67.65 27.32 67.88C27.11 69.54 26.94 70.96 26.94 71.06C26.94 71.21 27.26 71.23 29.2 71.23L31.46 71.23C31.46 68.02 31.5 67.59 31.63 67.39C31.74 67.22 31.9 67.15 32.14 67.15C32.34 67.13 32.61 67.21 32.73 67.3C32.93 67.44 32.95 67.62 33.01 69.31L33.06 71.17L43.38 71.23C44.27 70.27 44.69 69.97 45.31 69.67C45.79 69.44 46.61 69.13 47.13 68.99C47.65 68.84 48.13 68.69 48.2 68.65C48.28 68.61 48.34 68.52 48.34 68.47C48.34 68.4 47.88 67.9 47.32 67.33C46.46 66.48 46.21 66.14 45.77 65.27C45.37 64.46 45.22 64.01 45.13 63.34C45.05 62.8 45.04 61.92 45.08 61.08C45.13 60.32 45.19 59.64 45.21 59.59C45.24 59.52 44.91 59.37 44.49 59.22C44.06 59.09 43.64 58.98 43.57 58.98C43.5 58.97 42.64 59.51 41.67 60.17C40.69 60.83 39.69 61.47 39.42 61.61C39.17 61.74 38.78 61.85 38.55 61.85C38.32 61.85 37.92 61.74 37.64 61.58C37.36 61.44 36.36 60.8 35.4 60.15C34.45 59.51 33.58 58.98 33.47 58.98C33.37 58.98 32.76 59.16 32.12 59.37C31.48 59.58 30.75 59.85 30.48 60ZM48.29 60.83C48.58 60.55 48.91 60.3 48.97 60.3C49.05 60.3 49.64 60.43 50.3 60.59C51.11 60.78 51.63 60.86 51.93 60.8C52.17 60.77 52.8 60.62 54.26 60.25L54.86 60.8C55.19 61.11 55.7 61.45 55.99 61.57C56.31 61.71 56.54 61.88 56.58 62.02C56.62 62.14 56.6 62.53 56.56 62.9C56.52 63.26 56.37 63.82 56.25 64.17C56.12 64.5 55.78 65.09 55.47 65.49C55.17 65.88 54.8 66.32 54.64 66.45C54.49 66.59 54.1 66.87 53.8 67.08C53.5 67.29 52.93 67.56 52.53 67.7C52.01 67.87 51.68 67.92 51.32 67.87C51.05 67.83 50.47 67.63 50.05 67.43C49.61 67.22 48.97 66.78 48.56 66.41C48.16 66.04 47.64 65.4 47.38 64.98C47.13 64.56 46.87 64.02 46.81 63.78C46.74 63.54 46.69 62.99 46.67 61.79L47.21 61.57C47.49 61.45 47.98 61.12 48.29 60.83ZM49.2 69.96C49.21 69.98 49.73 70.31 50.35 70.68C50.98 71.03 51.53 71.33 51.6 71.33C51.65 71.33 52.05 71.13 52.48 70.87C52.9 70.62 53.45 70.29 53.69 70.15C54.07 69.91 54.11 69.86 53.96 69.75C53.87 69.68 53.7 69.48 53.6 69.32L53.42 69.02C52.66 69.32 52.16 69.39 51.6 69.39C51.07 69.39 50.53 69.32 50.25 69.21L49.78 69.03L49.48 69.46C49.3 69.71 49.18 69.93 49.2 69.96ZM46.53 70.8C46.83 70.68 47.13 70.58 47.18 70.57C47.25 70.57 47.91 70.96 48.67 71.45C49.43 71.93 50.33 72.45 50.67 72.62C51.12 72.83 51.4 72.89 51.77 72.86C52.16 72.82 52.69 72.56 56.08 70.57L56.48 70.71C56.71 70.8 57.07 70.95 57.29 71.05C57.5 71.16 57.84 71.4 58.04 71.59C58.24 71.79 58.48 72.11 58.58 72.33C58.67 72.54 58.78 73.2 58.89 74.87L44.33 74.87L44.38 73.79C44.44 72.85 44.48 72.65 44.77 72.17C44.96 71.86 45.3 71.48 45.54 71.32C45.78 71.15 46.22 70.92 46.53 70.8ZM59.43 47.53C59.73 47.36 60.05 47.28 60.42 47.28C60.81 47.28 61.12 47.36 61.44 47.55C61.75 47.73 61.93 47.93 61.98 48.12C62.02 48.3 62.01 48.55 61.96 48.71C61.9 48.86 61.73 49.02 61.53 49.08C61.27 49.16 61.13 49.14 60.89 49.01C60.72 48.9 60.51 48.82 60.42 48.82C60.33 48.82 60.11 48.91 59.94 49.01C59.68 49.16 59.54 49.18 59.31 49.1C59.13 49.03 58.92 48.85 58.82 48.68C58.68 48.41 58.68 48.34 58.82 48.07C58.92 47.9 59.2 47.66 59.43 47.53ZM66.77 47.35C66.85 47.32 67.14 47.29 67.4 47.29C67.66 47.28 68.03 47.35 68.22 47.45C68.42 47.55 68.67 47.72 68.78 47.82C68.9 47.91 68.98 48.15 68.97 48.34C68.97 48.58 68.89 48.8 68.72 48.94C68.58 49.08 68.39 49.16 68.26 49.12C68.14 49.08 67.87 49 67.68 48.92C67.36 48.79 67.28 48.79 66.96 48.97C66.75 49.1 66.5 49.15 66.35 49.11C66.21 49.07 66.03 48.96 65.94 48.87C65.85 48.79 65.77 48.54 65.77 48.34C65.76 48.06 65.84 47.94 66.18 47.71C66.41 47.54 66.68 47.39 66.77 47.35ZM34.6 48.71C34.79 48.65 35.19 48.62 35.51 48.63C35.89 48.64 36.18 48.73 36.39 48.89C36.56 49.01 36.77 49.25 36.83 49.4C36.93 49.61 36.94 49.78 36.87 49.98C36.8 50.13 36.62 50.31 36.45 50.37C36.22 50.46 36.06 50.44 35.76 50.3C35.4 50.12 35.34 50.12 34.96 50.3C34.74 50.4 34.52 50.47 34.46 50.47C34.42 50.49 34.25 50.39 34.08 50.25C33.85 50.1 33.78 49.93 33.78 49.67C33.78 49.45 33.87 49.23 34.02 49.07C34.16 48.93 34.42 48.78 34.6 48.71ZM41.29 48.68C41.44 48.65 41.75 48.62 42 48.62C42.24 48.61 42.64 48.7 42.88 48.81C43.17 48.95 43.37 49.14 43.48 49.39C43.6 49.67 43.6 49.81 43.5 50C43.43 50.14 43.25 50.31 43.07 50.37C42.83 50.47 42.7 50.46 42.46 50.32C42.3 50.22 42.1 50.14 42.02 50.14C41.95 50.14 41.73 50.21 41.56 50.31C41.38 50.4 41.18 50.47 41.12 50.47C41.05 50.49 40.87 50.39 40.69 50.25C40.49 50.1 40.4 49.93 40.4 49.7C40.4 49.48 40.51 49.26 40.72 49.05C40.89 48.87 41.15 48.7 41.29 48.68ZM61.86 51.93C61.97 51.78 62.16 51.69 62.35 51.69C62.54 51.69 62.92 51.82 63.2 51.99C63.61 52.21 63.82 52.26 64.08 52.21C64.28 52.16 64.58 52.03 64.75 51.91C64.92 51.78 65.21 51.69 65.39 51.69C65.57 51.69 65.81 51.78 65.92 51.89C66.03 52 66.12 52.23 66.1 52.43C66.1 52.7 66.01 52.87 65.74 53.09C65.55 53.24 65.17 53.48 64.89 53.6C64.51 53.76 64.23 53.81 63.73 53.76C63.29 53.73 62.89 53.62 62.54 53.42C62.25 53.25 61.94 53.01 61.86 52.87C61.77 52.74 61.68 52.53 61.68 52.41C61.67 52.28 61.75 52.06 61.86 51.93ZM37.09 53.12C37.22 52.99 37.45 52.9 37.66 52.9C37.86 52.9 38.12 52.98 38.23 53.07C38.35 53.16 38.55 53.23 38.67 53.23C38.81 53.24 38.98 53.17 39.07 53.07C39.16 52.97 39.41 52.89 39.62 52.9C39.83 52.9 40.1 52.99 40.21 53.1C40.32 53.2 40.41 53.41 40.4 53.56C40.4 53.72 40.33 53.96 40.25 54.1C40.18 54.25 39.89 54.46 39.62 54.57C39.35 54.68 38.95 54.78 38.74 54.78C38.53 54.78 38.17 54.72 37.94 54.67C37.72 54.6 37.37 54.4 37.2 54.23C37.01 54.04 36.87 53.77 36.87 53.62C36.87 53.46 36.97 53.24 37.09 53.12ZM48.78 62.06C48.91 61.94 49.15 61.84 49.33 61.84C49.52 61.84 49.76 61.94 49.89 62.06C50.05 62.22 50.11 62.42 50.11 62.83C50.11 63.24 50.05 63.44 49.89 63.6C49.76 63.73 49.52 63.82 49.33 63.82C49.15 63.82 48.91 63.73 48.78 63.6C48.62 63.44 48.56 63.24 48.56 62.83C48.56 62.42 48.62 62.22 48.78 62.06ZM53.19 62.06C53.32 61.94 53.55 61.84 53.71 61.84C53.89 61.84 54.08 61.88 54.14 61.93C54.21 61.97 54.32 62.11 54.4 62.25C54.46 62.39 54.52 62.66 54.52 62.83C54.52 63.01 54.46 63.27 54.4 63.41C54.32 63.55 54.21 63.69 54.14 63.74C54.08 63.78 53.89 63.82 53.71 63.82C53.55 63.82 53.32 63.73 53.19 63.6C53.03 63.44 52.98 63.24 52.98 62.83C52.98 62.42 53.03 62.22 53.19 62.06Z" stroke="#000000" stroke-opacity="0" stroke-width="0.110331"/>
</svg>
