<svg width="100.000000" height="100.000000" viewBox="0 0 100 100" fill="none" xmlns="http://www.w3.org/2000/svg" xmlns:xlink="http://www.w3.org/1999/xlink">
	<desc>
			Created with Pixso.
	</desc>
	<defs>
		<filter id="filter_1_2245_dd" x="6.000000" y="6.000000" width="88.750000" height="88.750000" filterUnits="userSpaceOnUse" color-interpolation-filters="sRGB">
			<feFlood flood-opacity="0" result="BackgroundImageFix"/>
			<feGaussianBlur in="BackgroundImage" stdDeviation="1.66667"/>
			<feComposite in2="SourceAlpha" operator="in" result="effect_backgroundBlur_1"/>
			<feBlend mode="normal" in="SourceGraphic" in2="effect_backgroundBlur_1" result="shape"/>
		</filter>
	</defs>
	<g filter="url(#filter_1_2245_dd)">
		<rect id="Rectangle 561" x="6.000000" y="6.000000" rx="44.375000" width="88.750000" height="88.750000" fill="#FFFFFF" fill-opacity="0.280000"/>
	</g>
	<circle id="Ellipse 63" cx="50.000000" cy="50.000000" r="49.500000" stroke="#B57427" stroke-opacity="1.000000" stroke-width="1.000000" stroke-dasharray="7 14 22 8"/>
	<path id="Vector" d="M45.3 27C45.82 26.99 46.28 27.01 46.6 27.03C46.88 27.06 47.26 27.1 47.45 27.12C47.64 27.14 47.99 27.19 48.23 27.23C48.46 27.27 48.85 27.35 49.09 27.4C49.33 27.45 49.71 27.54 49.94 27.61C50.17 27.67 50.53 27.78 50.75 27.85C50.96 27.91 51.29 28.03 51.48 28.1C51.67 28.18 52.01 28.32 52.23 28.41C52.45 28.5 52.89 28.71 53.2 28.87C53.52 29.03 53.96 29.26 54.17 29.4C54.4 29.53 54.75 29.75 54.97 29.9C55.18 30.04 55.52 30.28 55.72 30.42C55.92 30.57 56.23 30.81 56.4 30.96C56.58 31.1 56.89 31.38 57.11 31.58C57.32 31.77 57.62 32.06 57.78 32.22C57.93 32.38 58.18 32.64 58.33 32.81C58.48 32.98 58.74 33.29 58.92 33.51C59.09 33.72 59.34 34.06 59.49 34.26C59.63 34.45 59.86 34.79 60 35.01C60.13 35.22 60.34 35.56 60.45 35.76C60.57 35.95 60.78 36.35 60.92 36.63C61.06 36.91 61.26 37.34 61.35 37.58C61.46 37.81 61.61 38.2 61.69 38.44C61.78 38.67 61.91 39.07 61.99 39.31C62.06 39.56 62.16 39.93 62.22 40.15C62.27 40.36 62.35 40.72 62.4 40.95C62.44 41.18 62.51 41.54 62.54 41.74C62.57 41.95 62.62 42.3 62.64 42.52C62.66 42.74 62.69 43.13 62.71 43.4C62.72 43.66 62.74 44.09 62.74 44.36C62.74 44.63 62.72 45.07 62.71 45.33C62.69 45.6 62.66 46.04 62.62 46.31C62.59 46.59 62.54 47 62.5 47.23C62.46 47.46 62.39 47.84 62.33 48.08C62.28 48.31 62.19 48.7 62.12 48.92C62.06 49.16 61.94 49.56 61.85 49.83C61.76 50.09 61.6 50.54 61.49 50.81C61.38 51.09 61.14 51.61 60.96 51.98C60.78 52.35 60.53 52.82 60.4 53.04C60.28 53.25 60.05 53.61 59.91 53.83C59.76 54.05 59.58 54.31 59.38 54.59L60 55.23C60.33 55.58 60.76 56.04 61.31 56.6L61.62 56.63C61.8 56.65 62.07 56.69 62.21 56.73C62.35 56.77 62.57 56.84 62.68 56.88C62.8 56.93 62.98 57.02 63.1 57.09C63.21 57.16 63.41 57.29 63.53 57.39C63.65 57.49 65.44 59.26 67.49 61.32C70.74 64.57 71.26 65.1 71.4 65.31C71.49 65.45 71.61 65.66 71.66 65.77C71.72 65.89 71.8 66.08 71.83 66.2C71.87 66.33 71.92 66.53 71.95 66.66C71.98 66.81 72 67.04 72 67.27C72 67.5 71.98 67.74 71.95 67.88C71.92 68.01 71.87 68.22 71.83 68.34C71.8 68.46 71.72 68.66 71.66 68.77C71.61 68.89 71.5 69.09 71.41 69.22C71.32 69.35 71.12 69.58 70.98 69.74C70.82 69.9 70.6 70.11 70.48 70.21C70.35 70.31 70.16 70.44 70.05 70.51C69.93 70.58 69.75 70.67 69.63 70.72C69.51 70.76 69.33 70.83 69.23 70.86C69.12 70.88 68.91 70.93 68.76 70.95C68.61 70.98 68.4 71 68.3 71C68.19 71 67.98 70.98 67.83 70.95C67.68 70.93 67.47 70.88 67.37 70.86C67.26 70.83 67.08 70.76 66.96 70.72C66.85 70.67 66.66 70.58 66.55 70.51C66.43 70.44 66.24 70.31 66.11 70.21C65.99 70.11 64.21 68.34 62.15 66.28C59.19 63.31 58.38 62.49 58.26 62.31C58.18 62.19 58.06 61.99 58 61.86C57.93 61.73 57.85 61.52 57.81 61.39C57.77 61.26 57.71 61.05 57.69 60.92C57.67 60.78 57.65 60.59 57.65 60.29L57.45 60.11C57.33 60.02 56.88 59.58 55.61 58.36L55.47 58.47C55.39 58.52 55.16 58.68 54.96 58.82C54.75 58.96 54.41 59.17 54.19 59.3C53.98 59.43 53.58 59.65 53.3 59.79C53.03 59.93 52.66 60.11 52.48 60.19C52.31 60.27 51.98 60.41 51.75 60.5C51.52 60.59 51.11 60.74 50.84 60.83C50.57 60.92 50.17 61.04 49.95 61.1C49.73 61.16 49.4 61.24 49.21 61.29C49.03 61.33 48.69 61.4 48.45 61.44C48.21 61.48 47.82 61.54 47.56 61.58C47.31 61.61 46.95 61.64 46.77 61.66C46.58 61.68 46.12 61.7 45.74 61.71C45.32 61.72 44.82 61.71 44.48 61.69C44.16 61.67 43.73 61.64 43.52 61.62C43.3 61.59 42.96 61.55 42.77 61.52C42.57 61.49 42.21 61.43 41.98 61.38C41.74 61.33 41.37 61.25 41.16 61.2C40.94 61.14 40.57 61.04 40.32 60.97C40.08 60.89 39.69 60.77 39.48 60.69C39.25 60.61 38.85 60.45 38.58 60.34C38.32 60.22 37.84 60 37.53 59.84C37.21 59.68 36.78 59.44 36.55 59.31C36.33 59.18 35.98 58.96 35.76 58.81C35.55 58.67 35.21 58.43 35.01 58.29C34.82 58.14 34.51 57.9 34.33 57.75C34.16 57.61 33.84 57.33 33.62 57.13C33.41 56.94 33.11 56.65 32.96 56.49C32.8 56.33 32.55 56.06 32.4 55.9C32.25 55.73 31.99 55.42 31.82 55.2C31.64 54.99 31.39 54.65 31.25 54.45C31.1 54.25 30.87 53.92 30.74 53.7C30.6 53.49 30.39 53.15 30.28 52.95C30.17 52.75 29.96 52.37 29.83 52.11C29.69 51.84 29.51 51.44 29.42 51.23C29.32 51.02 29.19 50.68 29.11 50.48C29.04 50.28 28.92 49.94 28.85 49.73C28.78 49.52 28.67 49.15 28.61 48.92C28.55 48.69 28.45 48.31 28.4 48.08C28.35 47.84 28.27 47.46 28.23 47.23C28.19 47 28.14 46.59 28.11 46.31C28.08 46.04 28.04 45.59 28.02 45.31C28.01 45.04 28 44.61 28 44.35C28 44.1 28.01 43.67 28.02 43.4C28.04 43.12 28.08 42.67 28.11 42.4C28.14 42.12 28.19 41.71 28.23 41.48C28.27 41.25 28.35 40.87 28.4 40.63C28.45 40.4 28.55 40.01 28.61 39.79C28.67 39.55 28.78 39.19 28.85 38.98C28.92 38.77 29.04 38.43 29.11 38.23C29.19 38.03 29.32 37.69 29.42 37.48C29.51 37.27 29.69 36.87 29.83 36.6C29.96 36.34 30.17 35.95 30.29 35.74C30.41 35.54 30.59 35.22 30.71 35.05C30.82 34.87 31.04 34.54 31.21 34.31C31.37 34.08 31.64 33.72 31.82 33.51C31.99 33.29 32.25 32.98 32.4 32.81C32.55 32.64 32.8 32.38 32.96 32.22C33.11 32.06 33.41 31.77 33.62 31.58C33.84 31.38 34.17 31.09 34.36 30.93C34.55 30.78 34.85 30.55 35.01 30.42C35.18 30.3 35.48 30.09 35.67 29.96C35.86 29.83 36.23 29.6 36.49 29.44C36.75 29.28 37.21 29.03 37.53 28.87C37.84 28.71 38.27 28.51 38.49 28.41C38.7 28.32 39.04 28.18 39.24 28.11C39.44 28.03 39.77 27.91 39.99 27.85C40.2 27.78 40.57 27.67 40.8 27.61C41.03 27.54 41.41 27.45 41.64 27.4C41.88 27.35 42.26 27.27 42.49 27.23C42.72 27.19 43.14 27.14 43.42 27.11C43.7 27.08 44.06 27.04 44.21 27.03C44.37 27.01 44.85 27 45.3 27ZM43.91 28.45C43.65 28.48 43.26 28.52 43.06 28.55C42.85 28.58 42.49 28.64 42.25 28.69C42.02 28.74 41.7 28.81 41.55 28.84C41.39 28.88 41.07 28.97 40.83 29.04C40.6 29.11 40.23 29.23 40.01 29.3C39.8 29.38 39.44 29.52 39.21 29.62C38.98 29.71 38.66 29.86 38.49 29.94C38.32 30.02 38.03 30.16 37.85 30.26C37.66 30.36 37.38 30.53 37.21 30.63C37.04 30.73 36.73 30.92 36.53 31.06C36.32 31.19 35.99 31.43 35.79 31.58C35.59 31.73 35.27 31.98 35.07 32.15C34.87 32.32 34.51 32.64 34.28 32.87C34.04 33.1 33.71 33.43 33.55 33.62C33.38 33.8 33.1 34.13 32.92 34.35C32.74 34.58 32.49 34.91 32.35 35.09C32.23 35.27 32.03 35.57 31.91 35.74C31.8 35.92 31.6 36.24 31.48 36.47C31.35 36.69 31.15 37.07 31.03 37.31C30.91 37.56 30.73 37.96 30.62 38.2C30.52 38.45 30.37 38.83 30.29 39.06C30.21 39.29 30.09 39.65 30.03 39.87C29.96 40.08 29.89 40.38 29.85 40.54C29.81 40.69 29.74 41.01 29.69 41.24C29.65 41.48 29.58 41.84 29.55 42.05C29.52 42.25 29.48 42.64 29.45 42.91C29.41 43.27 29.4 43.64 29.4 44.35C29.4 45.07 29.41 45.44 29.45 45.8C29.48 46.07 29.52 46.46 29.55 46.66C29.58 46.87 29.65 47.23 29.69 47.47C29.74 47.7 29.81 48.02 29.85 48.17C29.89 48.33 29.96 48.63 30.03 48.84C30.09 49.05 30.21 49.42 30.29 49.65C30.37 49.87 30.52 50.26 30.62 50.51C30.73 50.75 30.91 51.15 31.03 51.4C31.15 51.64 31.35 52.02 31.48 52.24C31.6 52.47 31.8 52.79 31.91 52.97C32.03 53.14 32.23 53.44 32.36 53.62C32.49 53.8 32.71 54.11 32.87 54.29C33.01 54.48 33.29 54.8 33.47 55C33.65 55.2 33.97 55.54 34.18 55.75C34.4 55.96 34.68 56.22 34.82 56.34C34.96 56.47 35.19 56.67 35.35 56.79C35.5 56.91 35.75 57.1 35.89 57.21C36.03 57.32 36.32 57.51 36.53 57.65C36.73 57.79 37.04 57.98 37.21 58.08C37.38 58.18 37.66 58.35 37.85 58.44C38.03 58.54 38.32 58.69 38.49 58.77C38.66 58.85 38.99 59 39.23 59.1C39.46 59.19 39.82 59.34 40.03 59.41C40.24 59.48 40.6 59.6 40.83 59.67C41.07 59.74 41.42 59.84 41.61 59.88C41.81 59.92 42.12 59.99 42.32 60.03C42.52 60.07 42.85 60.13 43.06 60.16C43.26 60.19 43.66 60.24 43.92 60.26C44.28 60.3 44.66 60.31 45.37 60.31C46.08 60.31 46.45 60.3 46.81 60.26C47.08 60.24 47.47 60.19 47.67 60.16C47.88 60.13 48.21 60.07 48.41 60.03C48.61 59.99 48.92 59.92 49.12 59.88C49.31 59.84 49.66 59.74 49.9 59.67C50.13 59.6 50.5 59.48 50.7 59.41C50.91 59.34 51.27 59.19 51.51 59.1C51.75 59 52.17 58.8 52.45 58.66C52.74 58.52 53.02 58.37 53.09 58.33C53.16 58.29 53.36 58.18 53.52 58.08C53.69 57.98 54 57.79 54.21 57.65C54.41 57.51 54.67 57.33 54.79 57.25C54.9 57.16 55.14 56.98 55.32 56.84C55.49 56.7 55.79 56.45 55.98 56.28C56.17 56.11 56.53 55.77 56.76 55.53C57 55.29 57.31 54.96 57.44 54.8C57.58 54.64 57.79 54.39 57.91 54.24C58.02 54.1 58.19 53.88 58.28 53.76C58.37 53.64 58.53 53.39 58.66 53.22C58.77 53.04 58.94 52.78 59.03 52.63C59.12 52.49 59.25 52.27 59.31 52.15C59.38 52.02 59.54 51.72 59.67 51.47C59.79 51.21 59.97 50.83 60.06 50.62C60.16 50.41 60.29 50.06 60.37 49.86C60.45 49.65 60.56 49.31 60.62 49.11C60.69 48.9 60.79 48.54 60.85 48.31C60.91 48.08 60.99 47.7 61.04 47.47C61.08 47.23 61.15 46.87 61.18 46.66C61.21 46.46 61.26 46.07 61.28 45.8C61.32 45.44 61.33 45.07 61.33 44.35C61.33 43.64 61.32 43.27 61.28 42.91C61.26 42.64 61.21 42.25 61.18 42.05C61.15 41.84 61.09 41.51 61.05 41.31C61.01 41.12 60.94 40.8 60.9 40.6C60.85 40.41 60.76 40.06 60.69 39.83C60.62 39.59 60.5 39.23 60.43 39.02C60.35 38.82 60.21 38.45 60.12 38.22C60.01 37.98 59.87 37.65 59.79 37.48C59.71 37.31 59.56 37.02 59.46 36.84C59.37 36.66 59.2 36.37 59.1 36.2C59 36.03 58.77 35.68 58.59 35.41C58.41 35.14 58.16 34.79 58.03 34.62C57.89 34.45 57.67 34.17 57.52 33.99C57.37 33.82 57.04 33.46 56.79 33.2C56.54 32.95 56.17 32.6 55.98 32.43C55.79 32.26 55.49 32 55.3 31.86C55.12 31.71 54.82 31.48 54.64 31.35C54.45 31.22 54.16 31.03 54 30.92C53.83 30.81 53.58 30.66 53.45 30.58C53.32 30.51 53.05 30.36 52.86 30.25C52.66 30.14 52.33 29.98 52.14 29.89C51.94 29.8 51.6 29.65 51.38 29.56C51.17 29.47 50.84 29.35 50.66 29.28C50.48 29.22 50.13 29.11 49.9 29.04C49.66 28.97 49.34 28.88 49.19 28.84C49.03 28.81 48.72 28.74 48.49 28.69C48.26 28.65 47.89 28.58 47.67 28.55C47.45 28.52 47.08 28.47 46.84 28.45C46.6 28.43 46.04 28.4 45.57 28.4C45.12 28.39 44.66 28.39 44.56 28.4C44.46 28.4 44.17 28.43 43.91 28.45ZM57.72 56.53C57.48 56.78 57.15 57.1 57 57.24L56.72 57.49C57.72 58.49 58.01 58.78 58.02 58.77C58.03 58.76 58.07 58.7 58.1 58.62C58.14 58.54 58.24 58.39 58.32 58.27C58.4 58.16 58.58 57.95 58.72 57.8C58.86 57.66 59.07 57.47 59.19 57.38C59.32 57.29 59.5 57.16 59.61 57.1L59.8 56.99C58.8 55.98 58.51 55.69 58.51 55.69C58.5 55.69 58.42 55.78 58.33 55.89C58.24 55.99 57.96 56.29 57.72 56.53ZM60.68 58.12C60.57 58.16 60.39 58.24 60.29 58.29C60.17 58.36 59.99 58.52 59.76 58.74C59.57 58.94 59.37 59.16 59.32 59.24C59.28 59.33 59.19 59.5 59.15 59.63C59.1 59.77 59.06 59.97 59.05 60.11C59.03 60.24 59.03 60.44 59.05 60.56C59.06 60.69 59.11 60.89 59.15 61.02C59.19 61.15 59.27 61.33 59.32 61.41C59.39 61.52 60.45 62.6 63.24 65.39C66.98 69.13 67.07 69.21 67.28 69.32C67.41 69.38 67.6 69.46 67.73 69.5C67.91 69.55 68.02 69.56 68.3 69.56C68.57 69.56 68.69 69.55 68.87 69.5C68.99 69.46 69.19 69.38 69.31 69.32C69.49 69.23 69.6 69.14 69.87 68.87C70.1 68.64 70.25 68.47 70.32 68.34C70.38 68.24 70.47 68.05 70.51 67.93C70.55 67.8 70.59 67.6 70.6 67.48C70.61 67.36 70.61 67.16 70.59 67.04C70.58 66.91 70.53 66.71 70.49 66.58C70.45 66.45 70.37 66.27 70.32 66.19C70.25 66.08 69.19 65 66.46 62.26C63.75 59.55 62.64 58.45 62.5 58.36C62.39 58.29 62.23 58.2 62.14 58.16C62.05 58.13 61.91 58.09 61.83 58.06C61.76 58.04 61.6 58.02 61.47 58.01C61.35 58.01 61.17 58.01 61.07 58.03C60.97 58.04 60.8 58.08 60.68 58.12ZM45.56 31.18C46 31.18 46.5 31.2 46.71 31.23C46.93 31.25 47.29 31.3 47.52 31.34C47.75 31.38 48.11 31.45 48.31 31.49C48.52 31.54 48.88 31.63 49.1 31.7C49.33 31.77 49.7 31.89 49.92 31.97C50.15 32.06 50.48 32.19 50.66 32.27C50.84 32.35 51.11 32.48 51.26 32.55C51.4 32.62 51.69 32.78 51.9 32.9C52.1 33.01 52.47 33.24 52.7 33.4C52.94 33.55 53.27 33.79 53.44 33.92C53.61 34.05 53.92 34.32 54.15 34.52C54.37 34.71 54.68 35.01 54.84 35.17C55 35.34 55.25 35.62 55.39 35.79C55.54 35.95 55.77 36.24 55.91 36.42C56.05 36.61 56.26 36.91 56.39 37.1C56.51 37.3 56.71 37.62 56.83 37.83C56.95 38.03 57.14 38.4 57.26 38.65C57.38 38.89 57.55 39.27 57.63 39.48C57.71 39.69 57.83 40 57.89 40.17C57.94 40.33 58.03 40.62 58.08 40.81C58.13 40.99 58.21 41.32 58.26 41.52C58.3 41.73 58.37 42.1 58.41 42.35C58.45 42.61 58.5 42.97 58.52 43.16C58.54 43.36 58.55 43.87 58.55 44.35C58.55 44.84 58.54 45.35 58.52 45.55C58.5 45.74 58.45 46.1 58.41 46.35C58.37 46.61 58.3 46.98 58.26 47.19C58.21 47.39 58.13 47.72 58.08 47.91C58.03 48.09 57.94 48.38 57.89 48.54C57.83 48.71 57.72 49.02 57.63 49.23C57.55 49.44 57.35 49.87 57.21 50.17C57.05 50.48 56.82 50.92 56.67 51.16C56.53 51.39 56.31 51.72 56.19 51.91C56.06 52.08 55.83 52.39 55.67 52.59C55.51 52.79 55.23 53.12 55.03 53.33C54.85 53.53 54.53 53.85 54.33 54.03C54.13 54.21 53.8 54.49 53.61 54.65C53.41 54.81 53.1 55.05 52.91 55.17C52.73 55.3 52.41 55.51 52.19 55.64C51.98 55.77 51.66 55.96 51.48 56.05C51.3 56.14 51 56.29 50.8 56.38C50.6 56.47 50.23 56.62 49.98 56.71C49.73 56.81 49.33 56.94 49.1 57.01C48.88 57.08 48.52 57.17 48.31 57.22C48.11 57.26 47.75 57.33 47.52 57.37C47.29 57.41 46.93 57.46 46.71 57.48C46.5 57.5 46.09 57.53 45.81 57.54C45.35 57.56 45.28 57.55 45.14 57.51C45.05 57.47 44.95 57.42 44.88 57.34C44.81 57.28 44.75 57.17 44.72 57.09C44.69 57.02 44.67 56.91 44.67 56.86C44.67 56.8 44.69 56.7 44.72 56.62C44.75 56.54 44.81 56.44 44.88 56.37C44.95 56.3 45.05 56.24 45.13 56.21C45.22 56.18 45.35 56.16 45.52 56.16C45.66 56.16 45.94 56.15 46.14 56.13C46.35 56.12 46.63 56.09 46.77 56.08C46.91 56.06 47.2 56.01 47.42 55.98C47.64 55.94 48.02 55.86 48.26 55.8C48.49 55.74 48.89 55.62 49.15 55.54C49.4 55.45 49.77 55.31 49.97 55.23C50.16 55.14 50.53 54.97 50.77 54.84C51.01 54.72 51.39 54.5 51.61 54.37C51.83 54.23 52.19 53.99 52.41 53.83C52.62 53.66 52.96 53.39 53.15 53.22C53.34 53.06 53.65 52.76 53.84 52.56C54.03 52.36 54.3 52.07 54.44 51.9C54.58 51.74 54.8 51.45 54.94 51.26C55.07 51.08 55.28 50.76 55.41 50.56C55.53 50.37 55.74 50 55.86 49.76C55.99 49.51 56.16 49.15 56.25 48.95C56.33 48.75 56.47 48.39 56.55 48.13C56.64 47.88 56.76 47.48 56.82 47.24C56.87 47.01 56.96 46.63 57 46.41C57.03 46.19 57.08 45.83 57.11 45.62C57.14 45.41 57.16 44.97 57.17 44.65C57.18 44.3 57.17 43.88 57.16 43.62C57.14 43.37 57.1 43.02 57.08 42.84C57.06 42.66 57 42.32 56.96 42.09C56.91 41.86 56.82 41.49 56.76 41.27C56.7 41.05 56.61 40.74 56.55 40.58C56.5 40.42 56.38 40.12 56.3 39.91C56.21 39.7 56.05 39.35 55.94 39.12C55.82 38.89 55.66 38.58 55.57 38.44C55.49 38.29 55.31 38.01 55.18 37.81C55.04 37.62 54.84 37.33 54.72 37.17C54.6 37.02 54.43 36.81 54.19 36.53L50.57 40.15C48.57 42.14 46.94 43.77 46.95 43.78C46.96 43.79 47.05 43.82 47.16 43.85C47.27 43.89 47.46 43.97 47.59 44.03C47.72 44.1 47.92 44.22 48.05 44.3C48.17 44.38 48.38 44.57 48.52 44.7C48.66 44.84 48.84 45.06 48.92 45.19C49.01 45.32 49.13 45.51 49.18 45.62C49.23 45.73 49.31 45.91 49.35 46.02C49.39 46.14 49.44 46.32 49.47 46.44C49.51 46.61 49.52 46.83 49.53 47.66C49.53 48.36 49.53 48.75 49.51 48.94C49.49 49.08 49.44 49.32 49.41 49.45C49.37 49.59 49.28 49.83 49.21 49.98C49.13 50.13 49.01 50.36 48.92 50.48C48.84 50.6 48.66 50.82 48.51 50.97C48.36 51.12 48.14 51.3 48.02 51.38C47.9 51.47 47.67 51.59 47.52 51.66C47.37 51.74 47.15 51.82 47.03 51.86C46.92 51.89 46.71 51.93 46.56 51.95C46.42 51.97 46.25 51.99 46.06 51.99L46.06 52.74C46.06 53.37 46.05 53.5 46.01 53.62C45.99 53.7 45.92 53.8 45.85 53.87C45.78 53.94 45.69 54 45.6 54.03C45.53 54.06 45.42 54.08 45.37 54.08C45.31 54.08 45.21 54.06 45.13 54.03C45.05 54 44.95 53.94 44.88 53.87C44.81 53.8 44.75 53.7 44.72 53.62C44.68 53.5 44.67 53.37 44.67 51.99L44.55 51.99C44.49 51.99 44.32 51.97 44.17 51.95C44.03 51.93 43.81 51.89 43.7 51.86C43.58 51.82 43.36 51.73 43.2 51.66C43.04 51.58 42.82 51.46 42.71 51.39C42.6 51.32 42.4 51.15 42.26 51.01C42.1 50.86 41.98 50.71 41.94 50.63C41.9 50.55 41.88 50.45 41.88 50.34C41.88 50.23 41.9 50.13 41.94 50.05C41.97 49.98 42.05 49.88 42.1 49.83C42.16 49.78 42.26 49.72 42.31 49.69C42.36 49.67 42.48 49.66 42.57 49.65C42.69 49.65 42.78 49.67 42.87 49.72C42.93 49.75 43.07 49.86 43.17 49.96C43.27 50.06 43.43 50.2 43.53 50.26C43.63 50.32 43.79 50.41 43.88 50.44C43.97 50.48 44.12 50.53 44.2 50.55C44.32 50.58 44.58 50.59 45.37 50.59C46.15 50.59 46.41 50.58 46.53 50.55C46.62 50.53 46.76 50.48 46.85 50.44C46.94 50.41 47.09 50.33 47.17 50.28C47.26 50.23 47.41 50.11 47.5 50.01C47.6 49.92 47.73 49.76 47.8 49.66C47.87 49.56 47.95 49.41 47.98 49.31C48.02 49.22 48.07 49.08 48.09 48.99C48.12 48.87 48.13 48.61 48.13 47.83C48.13 47.06 48.12 46.78 48.09 46.66C48.07 46.58 48.02 46.43 47.99 46.34C47.95 46.25 47.86 46.09 47.8 45.99C47.73 45.89 47.6 45.74 47.5 45.64C47.41 45.55 47.26 45.43 47.17 45.37C47.09 45.32 46.94 45.25 46.85 45.21C46.76 45.17 46.59 45.12 46.47 45.09C46.35 45.07 46.12 45.05 45.66 45.05L41.3 49.41C37.87 52.83 36.9 53.78 36.81 53.83C36.73 53.86 36.62 53.88 36.54 53.88C36.47 53.88 36.35 53.87 36.29 53.85C36.23 53.83 36.12 53.76 36.04 53.67C35.96 53.59 35.89 53.49 35.87 53.42C35.85 53.36 35.83 53.25 35.83 53.17C35.83 53.09 35.86 52.98 35.89 52.91C35.93 52.81 36.8 51.94 39.87 48.86C42.03 46.71 43.79 44.94 43.78 44.93C43.77 44.92 43.68 44.89 43.57 44.85C43.47 44.82 43.27 44.74 43.13 44.67C42.99 44.6 42.78 44.48 42.67 44.4C42.56 44.32 42.35 44.15 42.21 44.01C42.08 43.87 41.89 43.65 41.81 43.52C41.72 43.39 41.6 43.2 41.55 43.09C41.5 42.99 41.42 42.8 41.38 42.69C41.34 42.57 41.29 42.37 41.26 42.24C41.22 42.04 41.21 41.87 41.21 40.88C41.21 39.9 41.22 39.73 41.26 39.52C41.29 39.39 41.34 39.19 41.38 39.08C41.42 38.96 41.5 38.77 41.57 38.65C41.62 38.52 41.73 38.34 41.8 38.23C41.87 38.12 42.07 37.9 42.23 37.74C42.39 37.58 42.6 37.39 42.71 37.32C42.82 37.25 43.01 37.14 43.13 37.08C43.25 37.02 43.44 36.94 43.56 36.9C43.67 36.86 43.87 36.81 43.98 36.79C44.1 36.76 44.3 36.74 44.67 36.7L44.67 35.97C44.67 35.34 44.68 35.21 44.72 35.09C44.75 35.01 44.81 34.91 44.88 34.84C44.95 34.77 45.05 34.71 45.13 34.68C45.21 34.65 45.31 34.63 45.37 34.63C45.42 34.63 45.53 34.65 45.6 34.68C45.69 34.71 45.78 34.77 45.85 34.84C45.92 34.91 45.99 35.01 46.01 35.09C46.05 35.21 46.06 35.34 46.06 36.7L46.3 36.72C46.43 36.74 46.63 36.76 46.75 36.79C46.87 36.81 47.06 36.86 47.17 36.9C47.29 36.94 47.48 37.02 47.6 37.08C47.73 37.15 47.92 37.26 48.03 37.34C48.15 37.41 48.33 37.57 48.45 37.67C48.58 37.8 48.68 37.92 48.72 38.01C48.76 38.1 48.78 38.2 48.78 38.3C48.78 38.41 48.76 38.49 48.71 38.6C48.67 38.68 48.59 38.79 48.53 38.83C48.48 38.88 48.37 38.93 48.28 38.96C48.19 38.99 48.09 38.99 48.01 38.98C47.95 38.97 47.85 38.95 47.81 38.92C47.76 38.89 47.64 38.8 47.55 38.72C47.46 38.64 47.31 38.52 47.21 38.46C47.12 38.39 46.97 38.31 46.87 38.27C46.77 38.23 46.59 38.17 46.47 38.15C46.35 38.12 46.21 38.1 46.06 38.1L46.06 39.89C46.06 41.5 46.06 41.69 46.01 41.81C45.99 41.9 45.92 42 45.85 42.07C45.78 42.13 45.69 42.2 45.6 42.22C45.53 42.25 45.42 42.27 45.37 42.27C45.31 42.27 45.21 42.25 45.13 42.22C45.05 42.2 44.95 42.13 44.88 42.07C44.81 42 44.75 41.9 44.72 41.81C44.67 41.69 44.67 41.5 44.67 38.1L44.57 38.1C44.52 38.1 44.38 38.12 44.26 38.15C44.14 38.17 43.97 38.22 43.88 38.26C43.79 38.3 43.64 38.38 43.56 38.43C43.48 38.48 43.33 38.6 43.23 38.7C43.13 38.79 43 38.95 42.93 39.05C42.87 39.15 42.79 39.29 42.76 39.37C42.72 39.45 42.67 39.58 42.65 39.66C42.62 39.79 42.6 40 42.6 40.79C42.58 41.61 42.59 41.79 42.63 41.98C42.66 42.1 42.71 42.28 42.75 42.37C42.78 42.46 42.86 42.6 42.91 42.69C42.96 42.77 43.09 42.92 43.18 43.02C43.27 43.12 43.43 43.25 43.53 43.31C43.63 43.38 43.78 43.46 43.87 43.49C43.95 43.53 44.08 43.57 44.16 43.6C44.23 43.62 44.47 43.64 45.07 43.67L53.2 35.54L53.01 35.38C52.91 35.29 52.7 35.13 52.55 35.01C52.4 34.89 52.11 34.68 51.91 34.55C51.71 34.41 51.43 34.24 51.28 34.15C51.14 34.07 50.83 33.9 50.6 33.79C50.38 33.68 50.04 33.52 49.85 33.44C49.67 33.37 49.37 33.25 49.19 33.19C49 33.13 48.67 33.02 48.45 32.96C48.23 32.9 47.86 32.82 47.63 32.77C47.41 32.73 47.07 32.67 46.88 32.65C46.7 32.62 46.35 32.59 46.1 32.57C45.83 32.55 45.42 32.55 45.06 32.56C44.73 32.57 44.29 32.6 44.09 32.62C43.88 32.64 43.56 32.68 43.38 32.72C43.19 32.75 42.82 32.83 42.55 32.9C42.27 32.96 41.86 33.08 41.64 33.15C41.42 33.23 41.1 33.34 40.93 33.41C40.76 33.48 40.4 33.65 40.11 33.79C39.83 33.93 39.42 34.15 39.21 34.29C39 34.42 38.69 34.62 38.54 34.72C38.39 34.83 38.11 35.05 37.92 35.2C37.73 35.35 37.33 35.72 37.03 36.02C36.73 36.32 36.36 36.72 36.21 36.91C36.05 37.1 35.84 37.38 35.73 37.54C35.62 37.69 35.42 37.99 35.29 38.2C35.16 38.42 34.93 38.84 34.78 39.15C34.63 39.45 34.44 39.85 34.38 40.02C34.31 40.2 34.2 40.5 34.14 40.69C34.08 40.88 33.97 41.26 33.9 41.54C33.83 41.81 33.75 42.19 33.72 42.38C33.69 42.57 33.64 42.9 33.62 43.1C33.6 43.31 33.57 43.7 33.57 43.97C33.55 44.29 33.53 44.5 33.5 44.59C33.48 44.68 33.42 44.77 33.35 44.84C33.28 44.91 33.18 44.97 33.1 45C33.02 45.03 32.91 45.05 32.86 45.05C32.81 45.05 32.7 45.03 32.62 45C32.54 44.97 32.44 44.91 32.37 44.84C32.3 44.77 32.24 44.67 32.21 44.58C32.16 44.44 32.16 44.37 32.17 43.91C32.18 43.63 32.21 43.22 32.24 42.99C32.26 42.77 32.32 42.38 32.36 42.12C32.4 41.86 32.47 41.51 32.51 41.34C32.55 41.17 32.64 40.84 32.71 40.6C32.78 40.37 32.9 40 32.98 39.8C33.05 39.59 33.18 39.27 33.27 39.08C33.35 38.88 33.48 38.6 33.56 38.45C33.64 38.3 33.78 38.03 33.88 37.85C33.98 37.68 34.17 37.37 34.3 37.17C34.42 36.98 34.64 36.68 34.76 36.51C34.89 36.34 35.12 36.05 35.28 35.85C35.44 35.66 35.78 35.29 36.04 35.04C36.3 34.77 36.67 34.43 36.86 34.27C37.05 34.11 37.35 33.88 37.51 33.75C37.68 33.63 37.98 33.42 38.18 33.29C38.38 33.16 38.69 32.98 38.86 32.88C39.04 32.78 39.3 32.64 39.43 32.57C39.57 32.5 39.82 32.38 39.99 32.31C40.16 32.23 40.5 32.09 40.75 31.99C41.01 31.9 41.42 31.76 41.67 31.69C41.92 31.62 42.3 31.52 42.52 31.47C42.73 31.42 43.11 31.35 43.37 31.32C43.62 31.28 43.98 31.23 44.17 31.21C44.36 31.2 44.58 31.18 44.66 31.18C44.73 31.17 45.14 31.17 45.56 31.18ZM45.35 46.44C45.41 46.44 45.53 46.46 45.6 46.49C45.69 46.51 45.78 46.58 45.85 46.64C45.92 46.71 45.99 46.81 46.01 46.9C46.05 47.02 46.06 47.16 46.06 47.83C46.06 48.5 46.05 48.64 46.01 48.76C45.99 48.84 45.92 48.94 45.85 49.01C45.78 49.08 45.69 49.14 45.6 49.17C45.53 49.2 45.42 49.22 45.37 49.22C45.31 49.22 45.21 49.2 45.13 49.17C45.05 49.14 44.95 49.08 44.88 49.01C44.81 48.94 44.75 48.84 44.72 48.76C44.68 48.64 44.67 48.5 44.67 47.83C44.67 47.16 44.68 47.02 44.72 46.9C44.75 46.81 44.81 46.71 44.88 46.64C44.94 46.58 45.05 46.51 45.12 46.49C45.19 46.46 45.29 46.44 45.35 46.44ZM34.72 46.54C34.77 46.55 34.86 46.58 34.9 46.6C34.95 46.62 35.02 46.67 35.07 46.7C35.11 46.73 35.18 46.8 35.21 46.86C35.25 46.92 35.29 47.02 35.3 47.1C35.33 47.19 35.33 47.27 35.31 47.37C35.29 47.45 35.24 47.56 35.19 47.63C35.15 47.69 35.06 47.77 35.01 47.81C34.94 47.85 34.64 47.95 34.17 48.07C33.69 48.2 33.37 48.27 33.28 48.27C33.19 48.27 33.08 48.25 33.03 48.23C32.97 48.21 32.89 48.16 32.83 48.12C32.78 48.07 32.72 48 32.69 47.95C32.66 47.91 32.62 47.81 32.61 47.73C32.59 47.63 32.58 47.55 32.6 47.45C32.62 47.38 32.67 47.26 32.72 47.2C32.76 47.13 32.85 47.05 32.91 47.01C32.97 46.97 33.26 46.88 33.65 46.77C34 46.68 34.37 46.58 34.46 46.56C34.55 46.54 34.67 46.54 34.72 46.54ZM35.78 49.23C35.86 49.23 35.98 49.26 36.04 49.29C36.1 49.32 36.19 49.39 36.24 49.44C36.29 49.49 36.35 49.59 36.38 49.65C36.4 49.71 36.42 49.83 36.42 49.91C36.42 50 36.41 50.11 36.37 50.19C36.34 50.26 36.27 50.35 36.22 50.4C36.17 50.45 35.82 50.66 35.44 50.88C34.95 51.16 34.73 51.28 34.64 51.29C34.57 51.3 34.45 51.29 34.37 51.27C34.3 51.25 34.19 51.21 34.14 51.17C34.08 51.13 34.02 51.07 34 51.05C33.98 51.03 33.94 50.96 33.91 50.9C33.87 50.82 33.85 50.74 33.85 50.61C33.85 50.47 33.87 50.39 33.91 50.31C33.94 50.25 34.01 50.16 34.06 50.11C34.11 50.07 34.44 49.86 34.79 49.66C35.14 49.46 35.48 49.27 35.53 49.25C35.58 49.23 35.69 49.22 35.78 49.23ZM39.88 53.29C39.94 53.3 40.04 53.33 40.1 53.35C40.16 53.38 40.26 53.46 40.33 53.54C40.41 53.63 40.46 53.72 40.48 53.81C40.5 53.89 40.5 54.01 40.49 54.08C40.48 54.16 40.39 54.35 40.19 54.7C40.03 54.98 39.85 55.29 39.79 55.4C39.73 55.5 39.64 55.63 39.6 55.67C39.55 55.71 39.46 55.78 39.41 55.81C39.33 55.85 39.24 55.87 39.11 55.87C38.99 55.87 38.9 55.85 38.83 55.82C38.78 55.79 38.69 55.73 38.65 55.68C38.59 55.63 38.53 55.54 38.49 55.48C38.45 55.4 38.43 55.32 38.43 54.98L38.82 54.3C39.03 53.92 39.25 53.57 39.31 53.51C39.36 53.45 39.44 53.39 39.48 53.37C39.52 53.34 39.6 53.32 39.66 53.3C39.72 53.29 39.82 53.28 39.88 53.29ZM42.56 54.4C42.63 54.41 42.72 54.43 42.77 54.45C42.82 54.47 42.89 54.52 42.94 54.57C43 54.61 43.07 54.71 43.11 54.79C43.15 54.88 43.17 54.98 43.17 55.08C43.17 55.18 43.1 55.47 42.97 55.98C42.82 56.56 42.75 56.76 42.69 56.84C42.65 56.89 42.57 56.97 42.51 57.01C42.45 57.05 42.33 57.09 42.25 57.11C42.12 57.14 42.08 57.13 41.95 57.1C41.86 57.07 41.75 57.01 41.68 56.96C41.62 56.91 41.55 56.81 41.51 56.74C41.47 56.65 41.45 56.56 41.45 56.44C41.45 56.34 41.51 56.06 41.64 55.55C41.75 55.14 41.86 54.78 41.88 54.74C41.91 54.71 41.95 54.64 41.99 54.61C42.02 54.58 42.1 54.52 42.16 54.49C42.22 54.46 42.31 54.42 42.35 54.41C42.4 54.4 42.49 54.39 42.56 54.4Z" fill="#B57427" fill-opacity="1.000000" fill-rule="evenodd"/>
	<path id="Vector" d="M46.6 27.03C46.88 27.06 47.26 27.1 47.45 27.12C47.64 27.14 47.99 27.19 48.23 27.23C48.46 27.27 48.85 27.35 49.09 27.4C49.33 27.45 49.71 27.54 49.94 27.61C50.17 27.67 50.53 27.78 50.75 27.85C50.96 27.91 51.29 28.03 51.48 28.1C51.67 28.18 52.01 28.32 52.23 28.41C52.45 28.5 52.89 28.71 53.2 28.87C53.52 29.03 53.96 29.26 54.17 29.4C54.4 29.53 54.75 29.75 54.97 29.9C55.18 30.04 55.52 30.28 55.72 30.42C55.92 30.57 56.23 30.81 56.4 30.96C56.58 31.1 56.89 31.38 57.11 31.58C57.32 31.77 57.62 32.06 57.78 32.22C57.93 32.38 58.18 32.64 58.33 32.81C58.48 32.98 58.74 33.29 58.92 33.51C59.09 33.72 59.34 34.06 59.49 34.26C59.63 34.45 59.86 34.79 60 35.01C60.13 35.22 60.34 35.56 60.45 35.76C60.57 35.95 60.78 36.35 60.92 36.63C61.06 36.91 61.26 37.34 61.35 37.58C61.46 37.81 61.61 38.2 61.69 38.44C61.78 38.67 61.91 39.07 61.99 39.31C62.06 39.56 62.16 39.93 62.22 40.15C62.27 40.36 62.35 40.72 62.4 40.95C62.44 41.18 62.51 41.54 62.54 41.74C62.57 41.95 62.62 42.3 62.64 42.52C62.66 42.74 62.69 43.13 62.71 43.4C62.72 43.66 62.74 44.09 62.74 44.36C62.74 44.63 62.72 45.07 62.71 45.33C62.69 45.6 62.66 46.04 62.62 46.31C62.59 46.59 62.54 47 62.5 47.23C62.46 47.46 62.39 47.84 62.33 48.08C62.28 48.31 62.19 48.7 62.12 48.92C62.06 49.16 61.94 49.56 61.85 49.83C61.76 50.09 61.6 50.54 61.49 50.81C61.38 51.09 61.14 51.61 60.96 51.98C60.78 52.35 60.53 52.82 60.4 53.04C60.28 53.25 60.05 53.61 59.91 53.83C59.76 54.05 59.58 54.31 59.38 54.59L60 55.23C60.33 55.58 60.76 56.04 61.31 56.6L61.62 56.63C61.8 56.65 62.07 56.69 62.21 56.73C62.35 56.77 62.57 56.84 62.68 56.88C62.8 56.93 62.98 57.02 63.1 57.09C63.21 57.16 63.41 57.29 63.53 57.39C63.65 57.49 65.44 59.26 67.49 61.32C70.74 64.57 71.26 65.1 71.4 65.31C71.49 65.45 71.61 65.66 71.66 65.77C71.72 65.89 71.8 66.08 71.83 66.2C71.87 66.33 71.92 66.53 71.95 66.66C71.98 66.81 72 67.04 72 67.27C72 67.5 71.98 67.74 71.95 67.88C71.92 68.01 71.87 68.22 71.83 68.34C71.8 68.46 71.72 68.66 71.66 68.77C71.61 68.89 71.5 69.09 71.41 69.22C71.32 69.35 71.12 69.58 70.98 69.74C70.82 69.9 70.6 70.11 70.48 70.21C70.35 70.31 70.16 70.44 70.05 70.51C69.93 70.58 69.75 70.67 69.63 70.72C69.51 70.76 69.33 70.83 69.23 70.86C69.12 70.88 68.91 70.93 68.76 70.95C68.61 70.98 68.4 71 68.3 71C68.19 71 67.98 70.98 67.83 70.95C67.68 70.93 67.47 70.88 67.37 70.86C67.26 70.83 67.08 70.76 66.96 70.72C66.85 70.67 66.66 70.58 66.55 70.51C66.43 70.44 66.24 70.31 66.11 70.21C65.99 70.11 64.21 68.34 62.15 66.28C59.19 63.31 58.38 62.49 58.26 62.31C58.18 62.19 58.06 61.99 58 61.86C57.93 61.73 57.85 61.52 57.81 61.39C57.77 61.26 57.71 61.05 57.69 60.92C57.67 60.78 57.65 60.59 57.65 60.29L57.45 60.11C57.33 60.02 56.88 59.58 55.61 58.36L55.47 58.47C55.39 58.52 55.16 58.68 54.96 58.82C54.75 58.96 54.41 59.17 54.19 59.3C53.98 59.43 53.58 59.65 53.3 59.79C53.03 59.93 52.66 60.11 52.48 60.19C52.31 60.27 51.98 60.41 51.75 60.5C51.52 60.59 51.11 60.74 50.84 60.83C50.57 60.92 50.17 61.04 49.95 61.1C49.73 61.16 49.4 61.24 49.21 61.29C49.03 61.33 48.69 61.4 48.45 61.44C48.21 61.48 47.82 61.54 47.56 61.58C47.31 61.61 46.95 61.64 46.77 61.66C46.58 61.68 46.12 61.7 45.74 61.71C45.32 61.72 44.82 61.71 44.48 61.69C44.16 61.67 43.73 61.64 43.52 61.62C43.3 61.59 42.96 61.55 42.77 61.52C42.57 61.49 42.21 61.43 41.98 61.38C41.74 61.33 41.37 61.25 41.16 61.2C40.94 61.14 40.57 61.04 40.32 60.97C40.08 60.89 39.69 60.77 39.48 60.69C39.25 60.61 38.85 60.45 38.58 60.34C38.32 60.22 37.84 60 37.53 59.84C37.21 59.68 36.78 59.44 36.55 59.31C36.33 59.18 35.98 58.96 35.76 58.81C35.55 58.67 35.21 58.43 35.01 58.29C34.82 58.14 34.51 57.9 34.33 57.75C34.16 57.61 33.84 57.33 33.62 57.13C33.41 56.94 33.11 56.65 32.96 56.49C32.8 56.33 32.55 56.06 32.4 55.9C32.25 55.73 31.99 55.42 31.82 55.2C31.64 54.99 31.39 54.65 31.25 54.45C31.1 54.25 30.87 53.92 30.74 53.7C30.6 53.49 30.39 53.15 30.28 52.95C30.17 52.75 29.96 52.37 29.83 52.11C29.69 51.84 29.51 51.44 29.42 51.23C29.32 51.02 29.19 50.68 29.11 50.48C29.04 50.28 28.92 49.94 28.85 49.73C28.78 49.52 28.67 49.15 28.61 48.92C28.55 48.69 28.45 48.31 28.4 48.08C28.35 47.84 28.27 47.46 28.23 47.23C28.19 47 28.14 46.59 28.11 46.31C28.08 46.04 28.04 45.59 28.02 45.31C28.01 45.04 28 44.61 28 44.35C28 44.1 28.01 43.67 28.02 43.4C28.04 43.12 28.08 42.67 28.11 42.4C28.14 42.12 28.19 41.71 28.23 41.48C28.27 41.25 28.35 40.87 28.4 40.63C28.45 40.4 28.55 40.01 28.61 39.79C28.67 39.55 28.78 39.19 28.85 38.98C28.92 38.77 29.04 38.43 29.11 38.23C29.19 38.03 29.32 37.69 29.42 37.48C29.51 37.27 29.69 36.87 29.83 36.6C29.96 36.34 30.17 35.95 30.29 35.74C30.41 35.54 30.59 35.22 30.71 35.05C30.82 34.87 31.04 34.54 31.21 34.31C31.37 34.08 31.64 33.72 31.82 33.51C31.99 33.29 32.25 32.98 32.4 32.81C32.55 32.64 32.8 32.38 32.96 32.22C33.11 32.06 33.41 31.77 33.62 31.58C33.84 31.38 34.17 31.09 34.36 30.93C34.55 30.78 34.85 30.55 35.01 30.42C35.18 30.3 35.48 30.09 35.67 29.96C35.86 29.83 36.23 29.6 36.49 29.44C36.75 29.28 37.21 29.03 37.53 28.87C37.84 28.71 38.27 28.51 38.49 28.41C38.7 28.32 39.04 28.18 39.24 28.11C39.44 28.03 39.77 27.91 39.99 27.85C40.2 27.78 40.57 27.67 40.8 27.61C41.03 27.54 41.41 27.45 41.64 27.4C41.88 27.35 42.26 27.27 42.49 27.23C42.72 27.19 43.14 27.14 43.42 27.11C43.7 27.08 44.06 27.04 44.21 27.03C44.37 27.01 44.85 27 45.3 27C45.82 26.99 46.28 27.01 46.6 27.03ZM43.06 28.55C42.85 28.58 42.49 28.64 42.25 28.69C42.02 28.74 41.7 28.81 41.55 28.84C41.39 28.88 41.07 28.97 40.83 29.04C40.6 29.11 40.23 29.23 40.01 29.3C39.8 29.38 39.44 29.52 39.21 29.62C38.98 29.71 38.66 29.86 38.49 29.94C38.32 30.02 38.03 30.16 37.85 30.26C37.66 30.36 37.38 30.53 37.21 30.63C37.04 30.73 36.73 30.92 36.53 31.06C36.32 31.19 35.99 31.43 35.79 31.58C35.59 31.73 35.27 31.98 35.07 32.15C34.87 32.32 34.51 32.64 34.28 32.87C34.04 33.1 33.71 33.43 33.55 33.62C33.38 33.8 33.1 34.13 32.92 34.35C32.74 34.58 32.49 34.91 32.35 35.09C32.23 35.27 32.03 35.57 31.91 35.74C31.8 35.92 31.6 36.24 31.48 36.47C31.35 36.69 31.15 37.07 31.03 37.31C30.91 37.56 30.73 37.96 30.62 38.2C30.52 38.45 30.37 38.83 30.29 39.06C30.21 39.29 30.09 39.65 30.03 39.87C29.96 40.08 29.89 40.38 29.85 40.54C29.81 40.69 29.74 41.01 29.69 41.24C29.65 41.48 29.58 41.84 29.55 42.05C29.52 42.25 29.48 42.64 29.45 42.91C29.41 43.27 29.4 43.64 29.4 44.35C29.4 45.07 29.41 45.44 29.45 45.8C29.48 46.07 29.52 46.46 29.55 46.66C29.58 46.87 29.65 47.23 29.69 47.47C29.74 47.7 29.81 48.02 29.85 48.17C29.89 48.33 29.96 48.63 30.03 48.84C30.09 49.05 30.21 49.42 30.29 49.65C30.37 49.87 30.52 50.26 30.62 50.51C30.73 50.75 30.91 51.15 31.03 51.4C31.15 51.64 31.35 52.02 31.48 52.24C31.6 52.47 31.8 52.79 31.91 52.97C32.03 53.14 32.23 53.44 32.36 53.62C32.49 53.8 32.71 54.11 32.87 54.29C33.01 54.48 33.29 54.8 33.47 55C33.65 55.2 33.97 55.54 34.18 55.75C34.4 55.96 34.68 56.22 34.82 56.34C34.96 56.47 35.19 56.67 35.35 56.79C35.5 56.91 35.75 57.1 35.89 57.21C36.03 57.32 36.32 57.51 36.53 57.65C36.73 57.79 37.04 57.98 37.21 58.08C37.38 58.18 37.66 58.35 37.85 58.44C38.03 58.54 38.32 58.69 38.49 58.77C38.66 58.85 38.99 59 39.23 59.1C39.46 59.19 39.82 59.34 40.03 59.41C40.24 59.48 40.6 59.6 40.83 59.67C41.07 59.74 41.42 59.84 41.61 59.88C41.81 59.92 42.12 59.99 42.32 60.03C42.52 60.07 42.85 60.13 43.06 60.16C43.26 60.19 43.66 60.24 43.92 60.26C44.28 60.3 44.66 60.31 45.37 60.31C46.08 60.31 46.45 60.3 46.81 60.26C47.08 60.24 47.47 60.19 47.67 60.16C47.88 60.13 48.21 60.07 48.41 60.03C48.61 59.99 48.92 59.92 49.12 59.88C49.31 59.84 49.66 59.74 49.9 59.67C50.13 59.6 50.5 59.48 50.7 59.41C50.91 59.34 51.27 59.19 51.51 59.1C51.75 59 52.17 58.8 52.45 58.66C52.74 58.52 53.02 58.37 53.09 58.33C53.16 58.29 53.36 58.18 53.52 58.08C53.69 57.98 54 57.79 54.21 57.65C54.41 57.51 54.67 57.33 54.79 57.25C54.9 57.16 55.14 56.98 55.32 56.84C55.49 56.7 55.79 56.45 55.98 56.28C56.17 56.11 56.53 55.77 56.76 55.53C57 55.29 57.31 54.96 57.44 54.8C57.58 54.64 57.79 54.39 57.91 54.24C58.02 54.1 58.19 53.88 58.28 53.76C58.37 53.64 58.53 53.39 58.66 53.22C58.77 53.04 58.94 52.78 59.03 52.63C59.12 52.49 59.25 52.27 59.31 52.15C59.38 52.02 59.54 51.72 59.67 51.47C59.79 51.21 59.97 50.83 60.06 50.62C60.16 50.41 60.29 50.06 60.37 49.86C60.45 49.65 60.56 49.31 60.62 49.11C60.69 48.9 60.79 48.54 60.85 48.31C60.91 48.08 60.99 47.7 61.04 47.47C61.08 47.23 61.15 46.87 61.18 46.66C61.21 46.46 61.26 46.07 61.28 45.8C61.32 45.44 61.33 45.07 61.33 44.35C61.33 43.64 61.32 43.27 61.28 42.91C61.26 42.64 61.21 42.25 61.18 42.05C61.15 41.84 61.09 41.51 61.05 41.31C61.01 41.12 60.94 40.8 60.9 40.6C60.85 40.41 60.76 40.06 60.69 39.83C60.62 39.59 60.5 39.23 60.43 39.02C60.35 38.82 60.21 38.45 60.12 38.22C60.01 37.98 59.87 37.65 59.79 37.48C59.71 37.31 59.56 37.02 59.46 36.84C59.37 36.66 59.2 36.37 59.1 36.2C59 36.03 58.77 35.68 58.59 35.41C58.41 35.14 58.16 34.79 58.03 34.62C57.89 34.45 57.67 34.17 57.52 33.99C57.37 33.82 57.04 33.46 56.79 33.2C56.54 32.95 56.17 32.6 55.98 32.43C55.79 32.26 55.49 32 55.3 31.86C55.12 31.71 54.82 31.48 54.64 31.35C54.45 31.22 54.16 31.03 54 30.92C53.83 30.81 53.58 30.66 53.45 30.58C53.32 30.51 53.05 30.36 52.86 30.25C52.66 30.14 52.33 29.98 52.14 29.89C51.94 29.8 51.6 29.65 51.38 29.56C51.17 29.47 50.84 29.35 50.66 29.28C50.48 29.22 50.13 29.11 49.9 29.04C49.66 28.97 49.34 28.88 49.19 28.84C49.03 28.81 48.72 28.74 48.49 28.69C48.26 28.65 47.89 28.58 47.67 28.55C47.45 28.52 47.08 28.47 46.84 28.45C46.6 28.43 46.04 28.4 45.57 28.4C45.12 28.39 44.66 28.39 44.56 28.4C44.46 28.4 44.17 28.43 43.91 28.45C43.65 28.48 43.26 28.52 43.06 28.55ZM57 57.24L56.72 57.49C57.72 58.49 58.01 58.78 58.02 58.77C58.03 58.76 58.07 58.7 58.1 58.62C58.14 58.54 58.24 58.39 58.32 58.27C58.4 58.16 58.58 57.95 58.72 57.8C58.86 57.66 59.07 57.47 59.19 57.38C59.32 57.29 59.5 57.16 59.61 57.1L59.8 56.99C58.8 55.98 58.51 55.69 58.51 55.69C58.5 55.69 58.42 55.78 58.33 55.89C58.24 55.99 57.96 56.29 57.72 56.53C57.48 56.78 57.15 57.1 57 57.24ZM60.29 58.29C60.17 58.36 59.99 58.52 59.76 58.74C59.57 58.94 59.37 59.16 59.32 59.24C59.28 59.33 59.19 59.5 59.15 59.63C59.1 59.77 59.06 59.97 59.05 60.11C59.03 60.24 59.03 60.44 59.05 60.56C59.06 60.69 59.11 60.89 59.15 61.02C59.19 61.15 59.27 61.33 59.32 61.41C59.39 61.52 60.45 62.6 63.24 65.39C66.98 69.13 67.07 69.21 67.28 69.32C67.41 69.38 67.6 69.46 67.73 69.5C67.91 69.55 68.02 69.56 68.3 69.56C68.57 69.56 68.69 69.55 68.87 69.5C68.99 69.46 69.19 69.38 69.31 69.32C69.49 69.23 69.6 69.14 69.87 68.87C70.1 68.64 70.25 68.47 70.32 68.34C70.38 68.24 70.47 68.05 70.51 67.93C70.55 67.8 70.59 67.6 70.6 67.48C70.61 67.36 70.61 67.16 70.59 67.04C70.58 66.91 70.53 66.71 70.49 66.58C70.45 66.45 70.37 66.27 70.32 66.19C70.25 66.08 69.19 65 66.46 62.26C63.75 59.55 62.64 58.45 62.5 58.36C62.39 58.29 62.23 58.2 62.14 58.16C62.05 58.13 61.91 58.09 61.83 58.06C61.76 58.04 61.6 58.02 61.47 58.01C61.35 58.01 61.17 58.01 61.07 58.03C60.97 58.04 60.8 58.08 60.68 58.12C60.57 58.16 60.39 58.24 60.29 58.29ZM46.71 31.23C46.93 31.25 47.29 31.3 47.52 31.34C47.75 31.38 48.11 31.45 48.31 31.49C48.52 31.54 48.88 31.63 49.1 31.7C49.33 31.77 49.7 31.89 49.92 31.97C50.15 32.06 50.48 32.19 50.66 32.27C50.84 32.35 51.11 32.48 51.26 32.55C51.4 32.62 51.69 32.78 51.9 32.9C52.1 33.01 52.47 33.24 52.7 33.4C52.94 33.55 53.27 33.79 53.44 33.92C53.61 34.05 53.92 34.32 54.15 34.52C54.37 34.71 54.68 35.01 54.84 35.17C55 35.34 55.25 35.62 55.39 35.79C55.54 35.95 55.77 36.24 55.91 36.42C56.05 36.61 56.26 36.91 56.39 37.1C56.51 37.3 56.71 37.62 56.83 37.83C56.95 38.03 57.14 38.4 57.26 38.65C57.38 38.89 57.55 39.27 57.63 39.48C57.71 39.69 57.83 40 57.89 40.17C57.94 40.33 58.03 40.62 58.08 40.81C58.13 40.99 58.21 41.32 58.26 41.52C58.3 41.73 58.37 42.1 58.41 42.35C58.45 42.61 58.5 42.97 58.52 43.16C58.54 43.36 58.55 43.87 58.55 44.35C58.55 44.84 58.54 45.35 58.52 45.55C58.5 45.74 58.45 46.1 58.41 46.35C58.37 46.61 58.3 46.98 58.26 47.19C58.21 47.39 58.13 47.72 58.08 47.91C58.03 48.09 57.94 48.38 57.89 48.54C57.83 48.71 57.72 49.02 57.63 49.23C57.55 49.44 57.35 49.87 57.21 50.17C57.05 50.48 56.82 50.92 56.67 51.16C56.53 51.39 56.31 51.72 56.19 51.91C56.06 52.08 55.83 52.39 55.67 52.59C55.51 52.79 55.23 53.12 55.03 53.33C54.85 53.53 54.53 53.85 54.33 54.03C54.13 54.21 53.8 54.49 53.61 54.65C53.41 54.81 53.1 55.05 52.91 55.17C52.73 55.3 52.41 55.51 52.19 55.64C51.98 55.77 51.66 55.96 51.48 56.05C51.3 56.14 51 56.29 50.8 56.38C50.6 56.47 50.23 56.62 49.98 56.71C49.73 56.81 49.33 56.94 49.1 57.01C48.88 57.08 48.52 57.17 48.31 57.22C48.11 57.26 47.75 57.33 47.52 57.37C47.29 57.41 46.93 57.46 46.71 57.48C46.5 57.5 46.09 57.53 45.81 57.54C45.35 57.56 45.28 57.55 45.14 57.51C45.05 57.47 44.95 57.42 44.88 57.34C44.81 57.28 44.75 57.17 44.72 57.09C44.69 57.02 44.67 56.91 44.67 56.86C44.67 56.8 44.69 56.7 44.72 56.62C44.75 56.54 44.81 56.44 44.88 56.37C44.95 56.3 45.05 56.24 45.13 56.21C45.22 56.18 45.35 56.16 45.52 56.16C45.66 56.16 45.94 56.15 46.14 56.13C46.35 56.12 46.63 56.09 46.77 56.08C46.91 56.06 47.2 56.01 47.42 55.98C47.64 55.94 48.02 55.86 48.26 55.8C48.49 55.74 48.89 55.62 49.15 55.54C49.4 55.45 49.77 55.31 49.97 55.23C50.16 55.14 50.53 54.97 50.77 54.84C51.01 54.72 51.39 54.5 51.61 54.37C51.83 54.23 52.19 53.99 52.41 53.83C52.62 53.66 52.96 53.39 53.15 53.22C53.34 53.06 53.65 52.76 53.84 52.56C54.03 52.36 54.3 52.07 54.44 51.9C54.58 51.74 54.8 51.45 54.94 51.26C55.07 51.08 55.28 50.76 55.41 50.56C55.53 50.37 55.74 50 55.86 49.76C55.99 49.51 56.16 49.15 56.25 48.95C56.33 48.75 56.47 48.39 56.55 48.13C56.64 47.88 56.76 47.48 56.82 47.24C56.87 47.01 56.96 46.63 57 46.41C57.03 46.19 57.08 45.83 57.11 45.62C57.14 45.41 57.16 44.97 57.17 44.65C57.18 44.3 57.17 43.88 57.16 43.62C57.14 43.37 57.1 43.02 57.08 42.84C57.06 42.66 57 42.32 56.96 42.09C56.91 41.86 56.82 41.49 56.76 41.27C56.7 41.05 56.61 40.74 56.55 40.58C56.5 40.42 56.38 40.12 56.3 39.91C56.21 39.7 56.05 39.35 55.94 39.12C55.82 38.89 55.66 38.58 55.57 38.44C55.49 38.29 55.31 38.01 55.18 37.81C55.04 37.62 54.84 37.33 54.72 37.17C54.6 37.02 54.43 36.81 54.19 36.53L50.57 40.15C48.57 42.14 46.94 43.77 46.95 43.78C46.96 43.79 47.05 43.82 47.16 43.85C47.27 43.89 47.46 43.97 47.59 44.03C47.72 44.1 47.92 44.22 48.05 44.3C48.17 44.38 48.38 44.57 48.52 44.7C48.66 44.84 48.84 45.06 48.92 45.19C49.01 45.32 49.13 45.51 49.18 45.62C49.23 45.73 49.31 45.91 49.35 46.02C49.39 46.14 49.44 46.32 49.47 46.44C49.51 46.61 49.52 46.83 49.53 47.66C49.53 48.36 49.53 48.75 49.51 48.94C49.49 49.08 49.44 49.32 49.41 49.45C49.37 49.59 49.28 49.83 49.21 49.98C49.13 50.13 49.01 50.36 48.92 50.48C48.84 50.6 48.66 50.82 48.51 50.97C48.36 51.12 48.14 51.3 48.02 51.38C47.9 51.47 47.67 51.59 47.52 51.66C47.37 51.74 47.15 51.82 47.03 51.86C46.92 51.89 46.71 51.93 46.56 51.95C46.42 51.97 46.25 51.99 46.06 51.99L46.06 52.74C46.06 53.37 46.05 53.5 46.01 53.62C45.99 53.7 45.92 53.8 45.85 53.87C45.78 53.94 45.69 54 45.6 54.03C45.53 54.06 45.42 54.08 45.37 54.08C45.31 54.08 45.21 54.06 45.13 54.03C45.05 54 44.95 53.94 44.88 53.87C44.81 53.8 44.75 53.7 44.72 53.62C44.68 53.5 44.67 53.37 44.67 51.99L44.55 51.99C44.49 51.99 44.32 51.97 44.17 51.95C44.03 51.93 43.81 51.89 43.7 51.86C43.58 51.82 43.36 51.73 43.2 51.66C43.04 51.58 42.82 51.46 42.71 51.39C42.6 51.32 42.4 51.15 42.26 51.01C42.1 50.86 41.98 50.71 41.94 50.63C41.9 50.55 41.88 50.45 41.88 50.34C41.88 50.23 41.9 50.13 41.94 50.05C41.97 49.98 42.05 49.88 42.1 49.83C42.16 49.78 42.26 49.72 42.31 49.69C42.36 49.67 42.48 49.66 42.57 49.65C42.69 49.65 42.78 49.67 42.87 49.72C42.93 49.75 43.07 49.86 43.17 49.96C43.27 50.06 43.43 50.2 43.53 50.26C43.63 50.32 43.79 50.41 43.88 50.44C43.97 50.48 44.12 50.53 44.2 50.55C44.32 50.58 44.58 50.59 45.37 50.59C46.15 50.59 46.41 50.58 46.53 50.55C46.62 50.53 46.76 50.48 46.85 50.44C46.94 50.41 47.09 50.33 47.17 50.28C47.26 50.23 47.41 50.11 47.5 50.01C47.6 49.92 47.73 49.76 47.8 49.66C47.87 49.56 47.95 49.41 47.98 49.31C48.02 49.22 48.07 49.08 48.09 48.99C48.12 48.87 48.13 48.61 48.13 47.83C48.13 47.06 48.12 46.78 48.09 46.66C48.07 46.58 48.02 46.43 47.99 46.34C47.95 46.25 47.86 46.09 47.8 45.99C47.73 45.89 47.6 45.74 47.5 45.64C47.41 45.55 47.26 45.43 47.17 45.37C47.09 45.32 46.94 45.25 46.85 45.21C46.76 45.17 46.59 45.12 46.47 45.09C46.35 45.07 46.12 45.05 45.66 45.05L41.3 49.41C37.87 52.83 36.9 53.78 36.81 53.83C36.73 53.86 36.62 53.88 36.54 53.88C36.47 53.88 36.35 53.87 36.29 53.85C36.23 53.83 36.12 53.76 36.04 53.67C35.96 53.59 35.89 53.49 35.87 53.42C35.85 53.36 35.83 53.25 35.83 53.17C35.83 53.09 35.86 52.98 35.89 52.91C35.93 52.81 36.8 51.94 39.87 48.86C42.03 46.71 43.79 44.94 43.78 44.93C43.77 44.92 43.68 44.89 43.57 44.85C43.47 44.82 43.27 44.74 43.13 44.67C42.99 44.6 42.78 44.48 42.67 44.4C42.56 44.32 42.35 44.15 42.21 44.01C42.08 43.87 41.89 43.65 41.81 43.52C41.72 43.39 41.6 43.2 41.55 43.09C41.5 42.99 41.42 42.8 41.38 42.69C41.34 42.57 41.29 42.37 41.26 42.24C41.22 42.04 41.21 41.87 41.21 40.88C41.21 39.9 41.22 39.73 41.26 39.52C41.29 39.39 41.34 39.19 41.38 39.08C41.42 38.96 41.5 38.77 41.57 38.65C41.62 38.52 41.73 38.34 41.8 38.23C41.87 38.12 42.07 37.9 42.23 37.74C42.39 37.58 42.6 37.39 42.71 37.32C42.82 37.25 43.01 37.14 43.13 37.08C43.25 37.02 43.44 36.94 43.56 36.9C43.67 36.86 43.87 36.81 43.98 36.79C44.1 36.76 44.3 36.74 44.67 36.7L44.67 35.97C44.67 35.34 44.68 35.21 44.72 35.09C44.75 35.01 44.81 34.91 44.88 34.84C44.95 34.77 45.05 34.71 45.13 34.68C45.21 34.65 45.31 34.63 45.37 34.63C45.42 34.63 45.53 34.65 45.6 34.68C45.69 34.71 45.78 34.77 45.85 34.84C45.92 34.91 45.99 35.01 46.01 35.09C46.05 35.21 46.06 35.34 46.06 36.7L46.3 36.72C46.43 36.74 46.63 36.76 46.75 36.79C46.87 36.81 47.06 36.86 47.17 36.9C47.29 36.94 47.48 37.02 47.6 37.08C47.73 37.15 47.92 37.26 48.03 37.34C48.15 37.41 48.33 37.57 48.45 37.67C48.58 37.8 48.68 37.92 48.72 38.01C48.76 38.1 48.78 38.2 48.78 38.3C48.78 38.41 48.76 38.49 48.71 38.6C48.67 38.68 48.59 38.79 48.53 38.83C48.48 38.88 48.37 38.93 48.28 38.96C48.19 38.99 48.09 38.99 48.01 38.98C47.95 38.97 47.85 38.95 47.81 38.92C47.76 38.89 47.64 38.8 47.55 38.72C47.46 38.64 47.31 38.52 47.21 38.46C47.12 38.39 46.97 38.31 46.87 38.27C46.77 38.23 46.59 38.17 46.47 38.15C46.35 38.12 46.21 38.1 46.06 38.1L46.06 39.89C46.06 41.5 46.06 41.69 46.01 41.81C45.99 41.9 45.92 42 45.85 42.07C45.78 42.13 45.69 42.2 45.6 42.22C45.53 42.25 45.42 42.27 45.37 42.27C45.31 42.27 45.21 42.25 45.13 42.22C45.05 42.2 44.95 42.13 44.88 42.07C44.81 42 44.75 41.9 44.72 41.81C44.67 41.69 44.67 41.5 44.67 38.1L44.57 38.1C44.52 38.1 44.38 38.12 44.26 38.15C44.14 38.17 43.97 38.22 43.88 38.26C43.79 38.3 43.64 38.38 43.56 38.43C43.48 38.48 43.33 38.6 43.23 38.7C43.13 38.79 43 38.95 42.93 39.05C42.87 39.15 42.79 39.29 42.76 39.37C42.72 39.45 42.67 39.58 42.65 39.66C42.62 39.79 42.6 40 42.6 40.79C42.58 41.61 42.59 41.79 42.63 41.98C42.66 42.1 42.71 42.28 42.75 42.37C42.78 42.46 42.86 42.6 42.91 42.69C42.96 42.77 43.09 42.92 43.18 43.02C43.27 43.12 43.43 43.25 43.53 43.31C43.63 43.38 43.78 43.46 43.87 43.49C43.95 43.53 44.08 43.57 44.16 43.6C44.23 43.62 44.47 43.64 45.07 43.67L53.2 35.54L53.01 35.38C52.91 35.29 52.7 35.13 52.55 35.01C52.4 34.89 52.11 34.68 51.91 34.55C51.71 34.41 51.43 34.24 51.28 34.15C51.14 34.07 50.83 33.9 50.6 33.79C50.38 33.68 50.04 33.52 49.85 33.44C49.67 33.37 49.37 33.25 49.19 33.19C49 33.13 48.67 33.02 48.45 32.96C48.23 32.9 47.86 32.82 47.63 32.77C47.41 32.73 47.07 32.67 46.88 32.65C46.7 32.62 46.35 32.59 46.1 32.57C45.83 32.55 45.42 32.55 45.06 32.56C44.73 32.57 44.29 32.6 44.09 32.62C43.88 32.64 43.56 32.68 43.38 32.72C43.19 32.75 42.82 32.83 42.55 32.9C42.27 32.96 41.86 33.08 41.64 33.15C41.42 33.23 41.1 33.34 40.93 33.41C40.76 33.48 40.4 33.65 40.11 33.79C39.83 33.93 39.42 34.15 39.21 34.29C39 34.42 38.69 34.62 38.54 34.72C38.39 34.83 38.11 35.05 37.92 35.2C37.73 35.35 37.33 35.72 37.03 36.02C36.73 36.32 36.36 36.72 36.21 36.91C36.05 37.1 35.84 37.38 35.73 37.54C35.62 37.69 35.42 37.99 35.29 38.2C35.16 38.42 34.93 38.84 34.78 39.15C34.63 39.45 34.44 39.85 34.38 40.02C34.31 40.2 34.2 40.5 34.14 40.69C34.08 40.88 33.97 41.26 33.9 41.54C33.83 41.81 33.75 42.19 33.72 42.38C33.69 42.57 33.64 42.9 33.62 43.1C33.6 43.31 33.57 43.7 33.57 43.97C33.55 44.29 33.53 44.5 33.5 44.59C33.48 44.68 33.42 44.77 33.35 44.84C33.28 44.91 33.18 44.97 33.1 45C33.02 45.03 32.91 45.05 32.86 45.05C32.81 45.05 32.7 45.03 32.62 45C32.54 44.97 32.44 44.91 32.37 44.84C32.3 44.77 32.24 44.67 32.21 44.58C32.16 44.44 32.16 44.37 32.17 43.91C32.18 43.63 32.21 43.22 32.24 42.99C32.26 42.77 32.32 42.38 32.36 42.12C32.4 41.86 32.47 41.51 32.51 41.34C32.55 41.17 32.64 40.84 32.71 40.6C32.78 40.37 32.9 40 32.98 39.8C33.05 39.59 33.18 39.27 33.27 39.08C33.35 38.88 33.48 38.6 33.56 38.45C33.64 38.3 33.78 38.03 33.88 37.85C33.98 37.68 34.17 37.37 34.3 37.17C34.42 36.98 34.64 36.68 34.76 36.51C34.89 36.34 35.12 36.05 35.28 35.85C35.44 35.66 35.78 35.29 36.04 35.04C36.3 34.77 36.67 34.43 36.86 34.27C37.05 34.11 37.35 33.88 37.51 33.75C37.68 33.63 37.98 33.42 38.18 33.29C38.38 33.16 38.69 32.98 38.86 32.88C39.04 32.78 39.3 32.64 39.43 32.57C39.57 32.5 39.82 32.38 39.99 32.31C40.16 32.23 40.5 32.09 40.75 31.99C41.01 31.9 41.42 31.76 41.67 31.69C41.92 31.62 42.3 31.52 42.52 31.47C42.73 31.42 43.11 31.35 43.37 31.32C43.62 31.28 43.98 31.23 44.17 31.21C44.36 31.2 44.58 31.18 44.66 31.18C44.73 31.17 45.14 31.17 45.56 31.18C46 31.18 46.5 31.2 46.71 31.23ZM45.6 46.49C45.69 46.51 45.78 46.58 45.85 46.64C45.92 46.71 45.99 46.81 46.01 46.9C46.05 47.02 46.06 47.16 46.06 47.83C46.06 48.5 46.05 48.64 46.01 48.76C45.99 48.84 45.92 48.94 45.85 49.01C45.78 49.08 45.69 49.14 45.6 49.17C45.53 49.2 45.42 49.22 45.37 49.22C45.31 49.22 45.21 49.2 45.13 49.17C45.05 49.14 44.95 49.08 44.88 49.01C44.81 48.94 44.75 48.84 44.72 48.76C44.68 48.64 44.67 48.5 44.67 47.83C44.67 47.16 44.68 47.02 44.72 46.9C44.75 46.81 44.81 46.71 44.88 46.64C44.94 46.58 45.05 46.51 45.12 46.49C45.19 46.46 45.29 46.44 45.35 46.44C45.41 46.44 45.53 46.46 45.6 46.49ZM34.9 46.6C34.95 46.62 35.02 46.67 35.07 46.7C35.11 46.73 35.18 46.8 35.21 46.86C35.25 46.92 35.29 47.02 35.3 47.1C35.33 47.19 35.33 47.27 35.31 47.37C35.29 47.45 35.24 47.56 35.19 47.63C35.15 47.69 35.06 47.77 35.01 47.81C34.94 47.85 34.64 47.95 34.17 48.07C33.69 48.2 33.37 48.27 33.28 48.27C33.19 48.27 33.08 48.25 33.03 48.23C32.97 48.21 32.89 48.16 32.83 48.12C32.78 48.07 32.72 48 32.69 47.95C32.66 47.91 32.62 47.81 32.61 47.73C32.59 47.63 32.58 47.55 32.6 47.45C32.62 47.38 32.67 47.26 32.72 47.2C32.76 47.13 32.85 47.05 32.91 47.01C32.97 46.97 33.26 46.88 33.65 46.77C34 46.68 34.37 46.58 34.46 46.56C34.55 46.54 34.67 46.54 34.72 46.54C34.77 46.55 34.86 46.58 34.9 46.6ZM36.04 49.29C36.1 49.32 36.19 49.39 36.24 49.44C36.29 49.49 36.35 49.59 36.38 49.65C36.4 49.71 36.42 49.83 36.42 49.91C36.42 50 36.41 50.11 36.37 50.19C36.34 50.26 36.27 50.35 36.22 50.4C36.17 50.45 35.82 50.66 35.44 50.88C34.95 51.16 34.73 51.28 34.64 51.29C34.57 51.3 34.45 51.29 34.37 51.27C34.3 51.25 34.19 51.21 34.14 51.17C34.08 51.13 34.02 51.07 34 51.05C33.98 51.03 33.94 50.96 33.91 50.9C33.87 50.82 33.85 50.74 33.85 50.61C33.85 50.47 33.87 50.39 33.91 50.31C33.94 50.25 34.01 50.16 34.06 50.11C34.11 50.07 34.44 49.86 34.79 49.66C35.14 49.46 35.48 49.27 35.53 49.25C35.58 49.23 35.69 49.22 35.78 49.23C35.86 49.23 35.98 49.26 36.04 49.29ZM40.1 53.35C40.16 53.38 40.26 53.46 40.33 53.54C40.41 53.63 40.46 53.72 40.48 53.81C40.5 53.89 40.5 54.01 40.49 54.08C40.48 54.16 40.39 54.35 40.19 54.7C40.03 54.98 39.85 55.29 39.79 55.4C39.73 55.5 39.64 55.63 39.6 55.67C39.55 55.71 39.46 55.78 39.41 55.81C39.33 55.85 39.24 55.87 39.11 55.87C38.99 55.87 38.9 55.85 38.83 55.82C38.78 55.79 38.69 55.73 38.65 55.68C38.59 55.63 38.53 55.54 38.49 55.48C38.45 55.4 38.43 55.32 38.43 54.98L38.82 54.3C39.03 53.92 39.25 53.57 39.31 53.51C39.36 53.45 39.44 53.39 39.48 53.37C39.52 53.34 39.6 53.32 39.66 53.3C39.72 53.29 39.82 53.28 39.88 53.29C39.94 53.3 40.04 53.33 40.1 53.35ZM42.77 54.45C42.82 54.47 42.89 54.52 42.94 54.57C43 54.61 43.07 54.71 43.11 54.79C43.15 54.88 43.17 54.98 43.17 55.08C43.17 55.18 43.1 55.47 42.97 55.98C42.82 56.56 42.75 56.76 42.69 56.84C42.65 56.89 42.57 56.97 42.51 57.01C42.45 57.05 42.33 57.09 42.25 57.11C42.12 57.14 42.08 57.13 41.95 57.1C41.86 57.07 41.75 57.01 41.68 56.96C41.62 56.91 41.55 56.81 41.51 56.74C41.47 56.65 41.45 56.56 41.45 56.44C41.45 56.34 41.51 56.06 41.64 55.55C41.75 55.14 41.86 54.78 41.88 54.74C41.91 54.71 41.95 54.64 41.99 54.61C42.02 54.58 42.1 54.52 42.16 54.49C42.22 54.46 42.31 54.42 42.35 54.41C42.4 54.4 42.49 54.39 42.56 54.4C42.63 54.41 42.72 54.43 42.77 54.45Z" stroke="#000000" stroke-opacity="0" stroke-width="0.027779"/>
</svg>
