<svg width="100.000000" height="100.000000" viewBox="0 0 100 100" fill="none" xmlns="http://www.w3.org/2000/svg" xmlns:xlink="http://www.w3.org/1999/xlink">
	<desc>
			Created with Pixso.
	</desc>
	<defs>
		<filter id="filter_10_81_dd" x="6.000000" y="6.000000" width="88.750000" height="88.750000" filterUnits="userSpaceOnUse" color-interpolation-filters="sRGB">
			<feFlood flood-opacity="0" result="BackgroundImageFix"/>
			<feGaussianBlur in="BackgroundImage" stdDeviation="1.66667"/>
			<feComposite in2="SourceAlpha" operator="in" result="effect_backgroundBlur_1"/>
			<feBlend mode="normal" in="SourceGraphic" in2="effect_backgroundBlur_1" result="shape"/>
		</filter>
	</defs>
	<g filter="url(#filter_10_81_dd)">
		<rect id="Rectangle 633" x="6.000000" y="6.000000" rx="44.375000" width="88.750000" height="88.750000" fill="#FFFFFF" fill-opacity="0.280000"/>
	</g>
	<circle id="Ellipse 366" cx="50.000000" cy="50.000000" r="49.500000" stroke="#B57427" stroke-opacity="1.000000" stroke-width="1.000000" stroke-dasharray="7 14 22 8"/>
	<path id="path822" d="M64.83 24C64.45 24 64.06 24.26 64.03 24.8L64.03 29.6C64.03 30.67 65.63 30.67 65.63 29.6L65.63 24.8C65.6 24.26 65.22 23.99 64.83 24ZM68.02 27.2C67.62 27.21 67.24 27.49 67.23 28L67.23 33.6C67.26 34.66 68.81 34.68 68.83 33.6L68.83 28C68.81 27.44 68.41 27.19 68.02 27.2ZM44.81 29.6C44.42 29.6 44.03 29.87 44.01 30.4L44.01 35.21C44.01 36.25 45.59 36.29 45.62 35.21L45.62 30.4C45.6 29.86 45.2 29.6 44.81 29.6ZM56.82 30.32C50.64 30.32 45.62 35.37 45.62 41.57C45.62 47.77 50.64 52.82 56.82 52.82C63.01 52.82 68.04 47.77 68.04 41.57C68.04 35.37 63.01 30.32 56.82 30.32ZM56.82 31.93C62.14 31.93 66.44 36.23 66.44 41.57C66.44 46.91 62.14 51.22 56.82 51.22C51.51 51.22 47.22 46.91 47.22 41.57C47.22 36.23 51.51 31.93 56.82 31.93ZM41.61 32.8C41.22 32.81 40.83 33.07 40.81 33.6L40.81 39.21C40.85 40.28 42.37 40.28 42.41 39.21L42.41 33.6C42.39 33.07 42 32.8 41.61 32.8ZM56.83 34.41C56.43 34.41 56.04 34.67 56.02 35.21L56.02 35.97C54.45 36.33 53.26 37.69 53.26 39.37C53.26 40.55 53.86 41.23 54.57 41.58C55.29 41.93 56.05 41.98 56.75 42.05C57.43 42.12 58.05 42.21 58.37 42.37C58.57 42.48 58.79 42.58 58.79 43.13C58.79 44.15 57.95 45.01 56.86 45.02C55.94 45 55.22 44.44 54.92 43.43C54.57 42.42 53.1 42.89 53.39 43.92C53.9 45.51 54.98 46.25 56.02 46.52L56.02 47.22C56.08 48.3 57.61 48.26 57.62 47.22L57.62 46.53C59.2 46.17 60.39 44.79 60.39 43.13C60.39 41.97 59.8 41.28 59.08 40.93C58.36 40.58 57.6 40.53 56.91 40.46C56.22 40.39 55.6 40.29 55.28 40.13C55.04 40.02 54.86 39.86 54.86 39.37C54.86 38.33 55.71 37.51 56.8 37.5C57.78 37.54 58.42 38.06 58.74 39.07C59.08 40.06 60.54 39.64 60.27 38.59C59.87 37.34 59.03 36.35 57.62 35.99L57.62 35.21C57.61 34.68 57.22 34.41 56.83 34.41ZM72.03 42.41C71.64 42.42 71.25 42.69 71.24 43.21L71.24 52.72L70.21 51.69C69.47 50.95 68.33 52.02 69.07 52.82L71.48 55.23C71.79 55.54 72.29 55.54 72.6 55.23L75.01 52.82C75.71 52.05 74.69 50.96 73.87 51.69L72.84 52.73L72.84 43.21C72.82 42.67 72.42 42.41 72.03 42.41ZM42.37 56.03C41.13 56.03 38.91 56.87 37.15 57.71C36.23 58.15 35.48 58.54 34.9 58.85C34.49 58.12 33.7 57.63 32.82 57.63L26.4 57.63C25.05 57.63 24 58.72 24 60.04C24 61.17 24 67.51 24 71.24C24 72.56 25.06 73.65 26.4 73.65L32.82 73.65C34.13 73.65 35.2 72.6 35.21 71.24L35.21 71.11C36.78 70.85 38.26 70.51 40.02 70.45C41.01 70.45 42.86 71.85 44.06 72.7C45.78 73.91 47.62 75.25 49.62 75.25C50.23 75.25 50.83 75.05 51.63 74.75C56.01 73.11 65.25 67.88 70.63 64.74C71.82 64.08 72.32 62.66 71.91 61.42C71.85 61.25 71.77 61.07 71.67 60.91C70.94 59.63 69.44 59.31 67.98 59.81L56.77 63.69C56.58 62.86 56.05 62.12 55.26 61.66C52.12 59.98 48.88 58.26 45.67 56.95C44.6 56.53 43.48 56.07 42.37 56.03ZM45.08 58.43C48.36 59.83 51.24 61.3 54.46 63.05C55.35 63.57 55.41 64.61 55.05 65.24C54.62 65.98 53.63 66.27 52.85 65.82L48 63.02C47.05 62.38 46.17 63.91 47.2 64.41L52.05 67.21C53.58 68.09 55.55 67.56 56.43 66.04C56.55 65.84 56.64 65.62 56.71 65.41L68.5 61.32C69.53 60.97 70.14 61.33 70.36 61.85C70.57 62.37 70.4 63.05 69.86 63.33C63.6 66.94 55.44 71.58 51.07 73.25C50.34 73.52 49.75 73.65 49.62 73.65C48.42 73.65 46.67 72.58 44.98 71.39C43.84 70.62 41.77 68.87 40.02 68.84C38.72 68.85 36.62 69.22 35.21 69.48L35.21 60.51C35.21 60.51 36.55 59.76 37.83 59.16C39.5 58.37 41.44 57.65 42.32 57.63C43.06 57.63 44.28 58.11 45.08 58.43ZM26.4 59.23L32.82 59.23C33.3 59.23 33.61 59.64 33.61 60.04C33.61 64.18 33.61 70.45 33.61 71.24C33.61 71.68 33.26 72.05 32.82 72.05C32.82 72.05 28.54 72.05 26.4 72.05C25.97 72.05 25.6 71.7 25.6 71.24C25.6 67.51 25.6 60.42 25.6 60.04C25.6 59.55 25.99 59.23 26.4 59.23ZM28 68.84C27.56 68.84 27.2 69.2 27.2 69.64C27.2 70.08 27.56 70.44 28 70.44C28.44 70.44 28.8 70.08 28.8 69.64C28.8 69.2 28.44 68.84 28 68.84Z" fill="#B57427" fill-opacity="1.000000" fill-rule="nonzero"/>
</svg>
