<svg width="100.000000" height="100.000000" viewBox="0 0 100 100" fill="none" xmlns="http://www.w3.org/2000/svg" xmlns:xlink="http://www.w3.org/1999/xlink">
	<desc>
			Created with Pixso.
	</desc>
	<defs>
		<filter id="filter_1_2238_dd" x="6.000000" y="6.000000" width="88.750000" height="88.750000" filterUnits="userSpaceOnUse" color-interpolation-filters="sRGB">
			<feFlood flood-opacity="0" result="BackgroundImageFix"/>
			<feGaussianBlur in="BackgroundImage" stdDeviation="1.66667"/>
			<feComposite in2="SourceAlpha" operator="in" result="effect_backgroundBlur_1"/>
			<feBlend mode="normal" in="SourceGraphic" in2="effect_backgroundBlur_1" result="shape"/>
		</filter>
	</defs>
	<g filter="url(#filter_1_2238_dd)">
		<rect id="Rectangle 562" x="6.000000" y="6.000000" rx="44.375000" width="88.750000" height="88.750000" fill="#FFFFFF" fill-opacity="0.280000"/>
	</g>
	<circle id="Ellipse 64" cx="50.000000" cy="50.000000" r="49.500000" stroke="#B57427" stroke-opacity="1.000000" stroke-width="1.000000" stroke-dasharray="7 14 22 8"/>
	<path id="Vector" d="M59.25 22L59.56 22C59.73 22.01 59.98 22.03 60.11 22.07C60.33 22.12 60.51 22.28 63.8 25.5L64 25.45C64.12 25.43 65.18 25.19 66.37 24.91C67.55 24.65 68.61 24.42 68.73 24.42C68.84 24.42 68.99 24.46 69.08 24.5C69.15 24.54 69.26 24.63 69.32 24.69C69.39 24.76 69.46 24.86 69.49 24.91C69.52 24.97 69.73 25.89 69.96 26.95C70.19 28.02 70.39 28.89 70.39 28.9C70.4 28.91 71.23 29.14 72.23 29.4C73.24 29.67 74.12 29.91 74.19 29.95C74.27 29.97 74.4 30.07 74.49 30.16C74.58 30.26 74.68 30.44 74.72 30.56C74.77 30.79 74.75 30.89 73.64 35.13L75.28 36.76C76.87 38.32 76.93 38.39 76.96 38.61C76.98 38.77 76.97 38.91 76.92 39.03C76.87 39.13 76.31 39.75 75.51 40.57C74.78 41.33 73.98 42.14 73.31 42.82L73.83 45.45C74.32 47.85 74.35 48.1 74.3 48.29C74.26 48.4 74.19 48.55 74.13 48.61C74.07 48.67 73.94 48.75 73.86 48.78C73.78 48.81 72.86 49.01 71.82 49.24C70.78 49.47 69.92 49.67 69.91 49.69C69.89 49.72 69.65 50.57 69.37 51.59C68.99 53.03 68.85 53.49 68.74 53.65C68.63 53.81 68.53 53.88 68.03 54.04L63.64 52.9L63.23 53.33C63 53.57 62.29 54.29 61.65 54.95C60.68 55.94 60.46 56.15 60.28 56.2C60.15 56.23 60.01 56.24 59.87 56.21C59.73 56.17 59.58 56.07 59.41 55.91C59.27 55.77 58.44 54.97 57.57 54.12C56.71 53.28 55.97 52.6 55.94 52.6C55.9 52.6 54.8 52.84 53.49 53.14C51.85 53.51 51.05 53.67 50.94 53.65C50.86 53.63 50.7 53.57 50.6 53.5C50.5 53.44 50.38 53.29 50.32 53.16C50.26 53.03 50.02 52.08 49.39 49.15L47.51 48.65C46.09 48.28 45.57 48.12 45.42 48.01C45.32 47.94 45.2 47.82 45.16 47.75C45.12 47.67 45.08 47.53 45.06 47.44C45.03 47.3 45.14 46.79 45.56 45.17C45.86 44.02 46.12 43.04 46.12 42.99C46.14 42.93 45.65 42.42 44.59 41.39C43.67 40.5 43 39.81 42.92 39.68C42.86 39.56 42.81 39.39 42.81 39.31C42.81 39.23 42.85 39.08 42.9 38.99C42.95 38.9 43.68 38.12 44.51 37.26C45.35 36.4 46.14 35.6 46.48 35.23L45.92 32.83C45.62 31.51 45.38 30.35 45.39 30.25C45.39 30.14 45.43 29.97 45.47 29.88C45.51 29.79 45.61 29.67 45.69 29.63C45.77 29.58 46.72 29.35 47.8 29.11C48.88 28.87 49.78 28.67 49.8 28.66C49.81 28.64 50.06 27.74 50.34 26.64C50.75 25.12 50.89 24.63 50.98 24.54C51.05 24.47 51.17 24.38 51.25 24.34C51.33 24.29 51.51 24.25 51.64 24.25C51.77 24.25 52.76 24.49 53.86 24.78C54.95 25.07 55.88 25.3 55.92 25.3C55.96 25.3 56.73 24.56 57.63 23.65L59.25 22ZM56.75 26.99C56.65 27.05 56.49 27.1 56.39 27.1C56.29 27.1 55.33 26.87 54.27 26.59C53.21 26.31 52.33 26.09 52.32 26.09C52.32 26.1 52.11 26.89 51.85 27.85C51.6 28.82 51.37 29.65 51.34 29.71C51.31 29.77 51.23 29.86 51.16 29.92C51.1 29.98 51 30.05 50.94 30.08C50.89 30.12 50.05 30.31 49.08 30.51C48.12 30.72 47.31 30.9 47.29 30.92C47.26 30.94 47.47 31.94 47.74 33.14C48.01 34.35 48.23 35.38 48.23 35.44C48.23 35.49 48.2 35.63 48.16 35.75C48.12 35.91 47.78 36.28 46.46 37.63L44.82 39.3C47.06 41.51 47.73 42.19 47.76 42.26C47.79 42.32 47.82 42.46 47.83 42.57C47.83 42.67 47.61 43.63 47.33 44.7C47.05 45.76 46.85 46.65 46.87 46.66C46.89 46.67 47.67 46.88 48.61 47.13C49.55 47.37 50.37 47.6 50.42 47.63C50.48 47.65 50.6 47.76 50.69 47.86C50.79 47.97 50.86 48.06 50.86 48.07C50.86 48.07 51.04 48.89 51.25 49.88C51.47 50.88 51.65 51.7 51.66 51.71C51.66 51.71 52.66 51.5 53.87 51.23C55.08 50.96 56.16 50.73 56.24 50.73C56.33 50.73 56.49 50.77 56.58 50.83C56.67 50.87 57.32 51.46 58.02 52.13C58.73 52.8 59.48 53.51 59.68 53.71L60.06 54.06C62.9 51.17 63.09 51 63.26 50.97C63.41 50.95 63.94 51.07 65.46 51.46C66.56 51.74 67.46 51.97 67.47 51.96C67.48 51.96 67.69 51.15 67.95 50.18C68.2 49.21 68.46 48.35 68.5 48.28C68.55 48.21 68.69 48.09 68.8 48.02C68.94 47.95 69.58 47.79 70.76 47.53C71.73 47.33 72.52 47.16 72.53 47.16C72.55 47.15 72.33 46.16 72.06 44.95C71.78 43.75 71.56 42.71 71.56 42.66C71.56 42.6 71.59 42.46 71.62 42.35C71.66 42.17 71.92 41.9 73.36 40.48L75.05 38.82C72.48 36.31 72.08 35.89 72.01 35.73C71.94 35.55 71.94 35.47 71.98 35.27C72.01 35.14 72.24 34.23 72.5 33.26C72.75 32.28 72.96 31.47 72.96 31.45C72.96 31.43 72.16 31.21 71.19 30.95C70.22 30.69 69.35 30.44 69.26 30.38C69.18 30.32 69.06 30.17 69 30.04C68.94 29.91 68.73 29.06 68.52 28.08C68.31 27.13 68.14 26.35 68.14 26.34C68.14 26.34 67.16 26.56 65.96 26.82C64.77 27.09 63.72 27.31 63.64 27.31C63.56 27.31 63.4 27.28 63.28 27.25C63.13 27.2 62.69 26.8 61.41 25.6C60.5 24.72 59.74 24.01 59.73 24.01C59.72 24.01 59.09 24.65 58.33 25.44C57.57 26.23 56.86 26.92 56.75 26.99Z" fill="#B57427" fill-opacity="1.000000" fill-rule="evenodd"/>
	<path id="Vector" d="M59.56 22C59.73 22.01 59.98 22.03 60.11 22.07C60.33 22.12 60.51 22.28 63.8 25.5L64 25.45C64.12 25.43 65.18 25.19 66.37 24.91C67.55 24.65 68.61 24.42 68.73 24.42C68.84 24.42 68.99 24.46 69.08 24.5C69.15 24.54 69.26 24.63 69.32 24.69C69.39 24.76 69.46 24.86 69.49 24.91C69.52 24.97 69.73 25.89 69.96 26.95C70.19 28.02 70.39 28.89 70.39 28.9C70.4 28.91 71.23 29.14 72.23 29.4C73.24 29.67 74.12 29.91 74.19 29.95C74.27 29.97 74.4 30.07 74.49 30.16C74.58 30.26 74.68 30.44 74.72 30.56C74.77 30.79 74.75 30.89 73.64 35.13L75.28 36.76C76.87 38.32 76.93 38.39 76.96 38.61C76.98 38.77 76.97 38.91 76.92 39.03C76.87 39.13 76.31 39.75 75.51 40.57C74.78 41.33 73.98 42.14 73.31 42.82L73.83 45.45C74.32 47.85 74.35 48.1 74.3 48.29C74.26 48.4 74.19 48.55 74.13 48.61C74.07 48.67 73.94 48.75 73.86 48.78C73.78 48.81 72.86 49.01 71.82 49.24C70.78 49.47 69.92 49.67 69.91 49.69C69.89 49.72 69.65 50.57 69.37 51.59C68.99 53.03 68.85 53.49 68.74 53.65C68.63 53.81 68.53 53.88 68.03 54.04L63.64 52.9L63.23 53.33C63 53.57 62.29 54.29 61.65 54.95C60.68 55.94 60.46 56.15 60.28 56.2C60.15 56.23 60.01 56.24 59.87 56.21C59.73 56.17 59.58 56.07 59.41 55.91C59.27 55.77 58.44 54.97 57.57 54.12C56.71 53.28 55.97 52.6 55.94 52.6C55.9 52.6 54.8 52.84 53.49 53.14C51.85 53.51 51.05 53.67 50.94 53.65C50.86 53.63 50.7 53.57 50.6 53.5C50.5 53.44 50.38 53.29 50.32 53.16C50.26 53.03 50.02 52.08 49.39 49.15L47.51 48.65C46.09 48.28 45.57 48.12 45.42 48.01C45.32 47.94 45.2 47.82 45.16 47.75C45.12 47.67 45.08 47.53 45.06 47.44C45.03 47.3 45.14 46.79 45.56 45.17C45.86 44.02 46.12 43.04 46.12 42.99C46.14 42.93 45.65 42.42 44.59 41.39C43.67 40.5 43 39.81 42.92 39.68C42.86 39.56 42.81 39.39 42.81 39.31C42.81 39.23 42.85 39.08 42.9 38.99C42.95 38.9 43.68 38.12 44.51 37.26C45.35 36.4 46.14 35.6 46.48 35.23L45.92 32.83C45.62 31.51 45.38 30.35 45.39 30.25C45.39 30.14 45.43 29.97 45.47 29.88C45.51 29.79 45.61 29.67 45.69 29.63C45.77 29.58 46.72 29.35 47.8 29.11C48.88 28.87 49.78 28.67 49.8 28.66C49.81 28.64 50.06 27.74 50.34 26.64C50.75 25.12 50.89 24.63 50.98 24.54C51.05 24.47 51.17 24.38 51.25 24.34C51.33 24.29 51.51 24.25 51.64 24.25C51.77 24.25 52.76 24.49 53.86 24.78C54.95 25.07 55.88 25.3 55.92 25.3C55.96 25.3 56.73 24.56 57.63 23.65L59.25 22L59.56 22ZM56.39 27.1C56.29 27.1 55.33 26.87 54.27 26.59C53.21 26.31 52.33 26.09 52.32 26.09C52.32 26.1 52.11 26.89 51.85 27.85C51.6 28.82 51.37 29.65 51.34 29.71C51.31 29.77 51.23 29.86 51.16 29.92C51.1 29.98 51 30.05 50.94 30.08C50.89 30.12 50.05 30.31 49.08 30.51C48.12 30.72 47.31 30.9 47.29 30.92C47.26 30.94 47.47 31.94 47.74 33.14C48.01 34.35 48.23 35.38 48.23 35.44C48.23 35.49 48.2 35.63 48.16 35.75C48.12 35.91 47.78 36.28 46.46 37.63L44.82 39.3C47.06 41.51 47.73 42.19 47.76 42.26C47.79 42.32 47.82 42.46 47.83 42.57C47.83 42.67 47.61 43.63 47.33 44.7C47.05 45.76 46.85 46.65 46.87 46.66C46.89 46.67 47.67 46.88 48.61 47.13C49.55 47.37 50.37 47.6 50.42 47.63C50.48 47.65 50.6 47.76 50.69 47.86C50.79 47.97 50.86 48.06 50.86 48.07C50.86 48.07 51.04 48.89 51.25 49.88C51.47 50.88 51.65 51.7 51.66 51.71C51.66 51.71 52.66 51.5 53.87 51.23C55.08 50.96 56.16 50.73 56.24 50.73C56.33 50.73 56.49 50.77 56.58 50.83C56.67 50.87 57.32 51.46 58.02 52.13C58.73 52.8 59.48 53.51 59.68 53.71L60.06 54.06C62.9 51.17 63.09 51 63.26 50.97C63.41 50.95 63.94 51.07 65.46 51.46C66.56 51.74 67.46 51.97 67.47 51.96C67.48 51.96 67.69 51.15 67.95 50.18C68.2 49.21 68.46 48.35 68.5 48.28C68.55 48.21 68.69 48.09 68.8 48.02C68.94 47.95 69.58 47.79 70.76 47.53C71.73 47.33 72.52 47.16 72.53 47.16C72.55 47.15 72.33 46.16 72.06 44.95C71.78 43.75 71.56 42.71 71.56 42.66C71.56 42.6 71.59 42.46 71.62 42.35C71.66 42.17 71.92 41.9 73.36 40.48L75.05 38.82C72.48 36.31 72.08 35.89 72.01 35.73C71.94 35.55 71.94 35.47 71.98 35.27C72.01 35.14 72.24 34.23 72.5 33.26C72.75 32.28 72.96 31.47 72.96 31.45C72.96 31.43 72.16 31.21 71.19 30.95C70.22 30.69 69.35 30.44 69.26 30.38C69.18 30.32 69.06 30.17 69 30.04C68.94 29.91 68.73 29.06 68.52 28.08C68.31 27.13 68.14 26.35 68.14 26.34C68.14 26.34 67.16 26.56 65.96 26.82C64.77 27.09 63.72 27.31 63.64 27.31C63.56 27.31 63.4 27.28 63.28 27.25C63.13 27.2 62.69 26.8 61.41 25.6C60.5 24.72 59.74 24.01 59.73 24.01C59.72 24.01 59.09 24.65 58.33 25.44C57.57 26.23 56.86 26.92 56.75 26.99C56.65 27.05 56.49 27.1 56.39 27.1Z" stroke="#000000" stroke-opacity="0" stroke-width="0.051594"/>
	<path id="Vector" d="M59.86 28.2C60.43 28.19 61.01 28.22 61.41 28.27C61.75 28.32 62.34 28.43 62.71 28.53C63.08 28.62 63.6 28.79 63.87 28.89C64.14 29 64.59 29.2 64.88 29.34C65.16 29.48 65.59 29.72 65.83 29.88C66.07 30.04 66.42 30.28 66.6 30.43C66.79 30.57 67.08 30.82 67.27 30.97C67.45 31.13 67.8 31.5 68.06 31.8C68.32 32.1 68.7 32.6 68.9 32.91C69.11 33.23 69.4 33.7 69.54 33.97C69.68 34.24 69.91 34.74 70.05 35.08C70.18 35.42 70.36 36 70.46 36.37C70.55 36.74 70.66 37.33 70.71 37.68C70.75 38.04 70.79 38.69 70.79 39.13C70.79 39.58 70.76 40.19 70.71 40.52C70.66 40.85 70.55 41.42 70.45 41.79C70.36 42.15 70.2 42.67 70.1 42.92C70 43.17 69.8 43.64 69.64 43.95C69.48 44.27 69.21 44.74 69.03 45.01C68.85 45.28 68.58 45.66 68.42 45.86C68.26 46.06 67.94 46.42 67.71 46.66C67.48 46.91 67.08 47.28 66.82 47.49C66.55 47.7 66.14 48.01 65.89 48.17C65.65 48.34 65.16 48.62 64.8 48.8C64.44 48.98 63.92 49.21 63.64 49.32C63.35 49.42 62.85 49.58 62.53 49.66C62.2 49.74 61.67 49.84 61.37 49.89C61.01 49.94 60.46 49.97 59.9 49.97C59.33 49.97 58.78 49.94 58.42 49.89C58.12 49.84 57.61 49.74 57.32 49.67C57.01 49.6 56.54 49.46 56.26 49.36C55.97 49.26 55.44 49.04 55.07 48.86C54.7 48.68 54.12 48.34 53.78 48.12C53.44 47.89 52.93 47.51 52.66 47.28C52.37 47.04 51.95 46.61 51.71 46.33C51.46 46.04 51.08 45.53 50.85 45.19C50.62 44.85 50.3 44.27 50.11 43.9C49.93 43.54 49.71 43 49.61 42.72C49.51 42.43 49.37 41.96 49.3 41.66C49.23 41.36 49.13 40.86 49.08 40.55C49.03 40.21 49 39.65 49 39.16C49 38.7 49.03 38.11 49.06 37.84C49.08 37.57 49.17 37.08 49.24 36.76C49.32 36.43 49.45 35.92 49.55 35.62C49.65 35.32 49.87 34.79 50.04 34.43C50.21 34.08 50.46 33.61 50.59 33.4C50.72 33.19 50.99 32.79 51.19 32.53C51.39 32.26 51.78 31.81 52.05 31.52C52.32 31.25 52.75 30.85 53 30.64C53.26 30.44 53.67 30.14 53.91 29.98C54.15 29.82 54.64 29.54 54.99 29.36C55.35 29.18 55.87 28.95 56.16 28.84C56.44 28.73 56.94 28.58 57.26 28.5C57.59 28.41 58.1 28.32 58.4 28.27C58.7 28.23 59.35 28.2 59.86 28.2ZM58.12 29.92C57.89 29.97 57.53 30.05 57.32 30.11C57.1 30.17 56.75 30.29 56.54 30.37C56.33 30.45 55.95 30.63 55.69 30.76C55.43 30.88 55.03 31.12 54.78 31.28C54.54 31.43 54.19 31.7 53.99 31.85C53.79 32.02 53.42 32.36 53.18 32.61C52.94 32.86 52.63 33.21 52.5 33.38C52.37 33.55 52.15 33.87 52.01 34.1C51.87 34.33 51.68 34.65 51.6 34.82C51.51 34.99 51.36 35.34 51.26 35.6C51.16 35.85 51.01 36.3 50.94 36.6C50.86 36.9 50.77 37.4 50.73 37.71C50.69 38.03 50.66 38.61 50.66 39.03C50.67 39.44 50.69 39.92 50.71 40.11C50.74 40.3 50.8 40.63 50.84 40.86C50.88 41.08 51.01 41.55 51.12 41.89C51.24 42.23 51.42 42.71 51.54 42.95C51.65 43.19 51.85 43.56 51.98 43.77C52.12 43.98 52.35 44.34 52.51 44.55C52.67 44.76 53 45.13 53.24 45.39C53.48 45.64 53.85 46 54.06 46.17C54.28 46.35 54.64 46.62 54.86 46.77C55.09 46.92 55.48 47.15 55.74 47.29C56 47.42 56.44 47.62 56.72 47.72C57.01 47.82 57.44 47.97 57.7 48.04C57.96 48.1 58.44 48.19 58.76 48.24C59.21 48.3 59.57 48.32 60.23 48.3C60.72 48.28 61.32 48.23 61.57 48.18C61.83 48.14 62.23 48.04 62.48 47.97C62.72 47.9 63.14 47.76 63.41 47.65C63.67 47.54 64.12 47.34 64.39 47.19C64.66 47.04 65.08 46.77 65.33 46.6C65.57 46.42 65.98 46.09 66.23 45.86C66.47 45.64 66.85 45.24 67.07 44.99C67.28 44.73 67.57 44.34 67.72 44.11C67.87 43.88 68.11 43.45 68.26 43.15C68.41 42.85 68.63 42.31 68.75 41.94C68.88 41.58 69.02 41 69.08 40.68C69.13 40.35 69.19 39.86 69.21 39.59C69.22 39.33 69.21 38.8 69.19 38.43C69.16 38.07 69.09 37.53 69.03 37.25C68.98 36.96 68.88 36.58 68.83 36.4C68.77 36.21 68.64 35.84 68.53 35.57C68.41 35.3 68.23 34.92 68.12 34.72C68.01 34.52 67.82 34.18 67.67 33.97C67.53 33.76 67.28 33.42 67.12 33.22C66.96 33.03 66.63 32.66 66.39 32.43C66.16 32.2 65.75 31.84 65.5 31.65C65.24 31.46 64.83 31.18 64.57 31.02C64.31 30.87 63.84 30.64 63.53 30.5C63.23 30.37 62.76 30.2 62.5 30.13C62.25 30.05 61.77 29.95 61.44 29.89C61.12 29.84 60.53 29.78 60.13 29.77C59.73 29.75 59.21 29.77 58.97 29.8C58.73 29.82 58.34 29.88 58.12 29.92Z" fill="#B57427" fill-opacity="1.000000" fill-rule="evenodd"/>
	<path id="Vector" d="M61.41 28.27C61.75 28.32 62.34 28.43 62.71 28.53C63.08 28.62 63.6 28.79 63.87 28.89C64.14 29 64.59 29.2 64.88 29.34C65.16 29.48 65.59 29.72 65.83 29.88C66.07 30.04 66.42 30.28 66.6 30.43C66.79 30.57 67.08 30.82 67.27 30.97C67.45 31.13 67.8 31.5 68.06 31.8C68.32 32.1 68.7 32.6 68.9 32.91C69.11 33.23 69.4 33.7 69.54 33.97C69.68 34.24 69.91 34.74 70.05 35.08C70.18 35.42 70.36 36 70.46 36.37C70.55 36.74 70.66 37.33 70.71 37.68C70.75 38.04 70.79 38.69 70.79 39.13C70.79 39.58 70.76 40.19 70.71 40.52C70.66 40.85 70.55 41.42 70.45 41.79C70.36 42.15 70.2 42.67 70.1 42.92C70 43.17 69.8 43.64 69.64 43.95C69.48 44.27 69.21 44.74 69.03 45.01C68.85 45.28 68.58 45.66 68.42 45.86C68.26 46.06 67.94 46.42 67.71 46.66C67.48 46.91 67.08 47.28 66.82 47.49C66.55 47.7 66.14 48.01 65.89 48.17C65.65 48.34 65.16 48.62 64.8 48.8C64.44 48.98 63.92 49.21 63.64 49.32C63.35 49.42 62.85 49.58 62.53 49.66C62.2 49.74 61.67 49.84 61.37 49.89C61.01 49.94 60.46 49.97 59.9 49.97C59.33 49.97 58.78 49.94 58.42 49.89C58.12 49.84 57.61 49.74 57.32 49.67C57.01 49.6 56.54 49.46 56.26 49.36C55.97 49.26 55.44 49.04 55.07 48.86C54.7 48.68 54.12 48.34 53.78 48.12C53.44 47.89 52.93 47.51 52.66 47.28C52.37 47.04 51.95 46.61 51.71 46.33C51.46 46.04 51.08 45.53 50.85 45.19C50.62 44.85 50.3 44.27 50.11 43.9C49.93 43.54 49.71 43 49.61 42.72C49.51 42.43 49.37 41.96 49.3 41.66C49.23 41.36 49.13 40.86 49.08 40.55C49.03 40.21 49 39.65 49 39.16C49 38.7 49.03 38.11 49.06 37.84C49.08 37.57 49.17 37.08 49.24 36.76C49.32 36.43 49.45 35.92 49.55 35.62C49.65 35.32 49.87 34.79 50.04 34.43C50.21 34.08 50.46 33.61 50.59 33.4C50.72 33.19 50.99 32.79 51.19 32.53C51.39 32.26 51.78 31.81 52.05 31.52C52.32 31.25 52.75 30.85 53 30.64C53.26 30.44 53.67 30.14 53.91 29.98C54.15 29.82 54.64 29.54 54.99 29.36C55.35 29.18 55.87 28.95 56.16 28.84C56.44 28.73 56.94 28.58 57.26 28.5C57.59 28.41 58.1 28.32 58.4 28.27C58.7 28.23 59.35 28.2 59.86 28.2C60.43 28.19 61.01 28.22 61.41 28.27ZM57.32 30.11C57.1 30.17 56.75 30.29 56.54 30.37C56.33 30.45 55.95 30.63 55.69 30.76C55.43 30.88 55.03 31.12 54.78 31.28C54.54 31.43 54.19 31.7 53.99 31.85C53.79 32.02 53.42 32.36 53.18 32.61C52.94 32.86 52.63 33.21 52.5 33.38C52.37 33.55 52.15 33.87 52.01 34.1C51.87 34.33 51.68 34.65 51.6 34.82C51.51 34.99 51.36 35.34 51.26 35.6C51.16 35.85 51.01 36.3 50.94 36.6C50.86 36.9 50.77 37.4 50.73 37.71C50.69 38.03 50.66 38.61 50.66 39.03C50.67 39.44 50.69 39.92 50.71 40.11C50.74 40.3 50.8 40.63 50.84 40.86C50.88 41.08 51.01 41.55 51.12 41.89C51.24 42.23 51.42 42.71 51.54 42.95C51.65 43.19 51.85 43.56 51.98 43.77C52.12 43.98 52.35 44.34 52.51 44.55C52.67 44.76 53 45.13 53.24 45.39C53.48 45.64 53.85 46 54.06 46.17C54.28 46.35 54.64 46.62 54.86 46.77C55.09 46.92 55.48 47.15 55.74 47.29C56 47.42 56.44 47.62 56.72 47.72C57.01 47.82 57.44 47.97 57.7 48.04C57.96 48.1 58.44 48.19 58.76 48.24C59.21 48.3 59.57 48.32 60.23 48.3C60.72 48.28 61.32 48.23 61.57 48.18C61.83 48.14 62.23 48.04 62.48 47.97C62.72 47.9 63.14 47.76 63.41 47.65C63.67 47.54 64.12 47.34 64.39 47.19C64.66 47.04 65.08 46.77 65.33 46.6C65.57 46.42 65.98 46.09 66.23 45.86C66.47 45.64 66.85 45.24 67.07 44.99C67.28 44.73 67.57 44.34 67.72 44.11C67.87 43.88 68.11 43.45 68.26 43.15C68.41 42.85 68.63 42.31 68.75 41.94C68.88 41.58 69.02 41 69.08 40.68C69.13 40.35 69.19 39.86 69.21 39.59C69.22 39.33 69.21 38.8 69.19 38.43C69.16 38.07 69.09 37.53 69.03 37.25C68.98 36.96 68.88 36.58 68.83 36.4C68.77 36.21 68.64 35.84 68.53 35.57C68.41 35.3 68.23 34.92 68.12 34.72C68.01 34.52 67.82 34.18 67.67 33.97C67.53 33.76 67.28 33.42 67.12 33.22C66.96 33.03 66.63 32.66 66.39 32.43C66.16 32.2 65.75 31.84 65.5 31.65C65.24 31.46 64.83 31.18 64.57 31.02C64.31 30.87 63.84 30.64 63.53 30.5C63.23 30.37 62.76 30.2 62.5 30.13C62.25 30.05 61.77 29.95 61.44 29.89C61.12 29.84 60.53 29.78 60.13 29.77C59.73 29.75 59.21 29.77 58.97 29.8C58.73 29.82 58.34 29.88 58.12 29.92C57.89 29.97 57.53 30.05 57.32 30.11Z" stroke="#000000" stroke-opacity="0" stroke-width="0.051594"/>
	<path id="Vector" d="M63.12 39.75C63.33 39.75 63.62 39.78 63.8 39.83C63.97 39.87 64.22 39.97 64.36 40.05C64.5 40.12 64.74 40.33 64.9 40.5C65.06 40.68 65.25 40.93 65.33 41.07C65.41 41.21 65.5 41.46 65.55 41.63C65.59 41.8 65.63 42.13 65.63 42.35C65.63 42.58 65.59 42.91 65.55 43.08C65.5 43.25 65.39 43.53 65.3 43.69C65.21 43.86 64.99 44.13 64.81 44.29C64.64 44.46 64.41 44.64 64.3 44.7C64.19 44.75 63.99 44.83 63.85 44.87C63.7 44.92 63.46 44.97 63.3 44.99C63.15 45.01 62.87 44.99 62.69 44.96C62.5 44.93 62.2 44.83 62.01 44.74C61.79 44.63 61.56 44.46 61.34 44.24C61.15 44.06 60.94 43.78 60.86 43.63C60.79 43.48 60.69 43.23 60.65 43.06C60.6 42.9 60.57 42.62 60.57 42.43C60.57 42.25 60.6 41.93 60.65 41.73C60.69 41.53 60.8 41.23 60.89 41.07C60.99 40.9 61.17 40.65 61.32 40.5C61.46 40.36 61.71 40.16 61.86 40.07C62.01 39.98 62.28 39.87 62.45 39.83C62.62 39.79 62.92 39.75 63.12 39.75ZM62.97 33.25L64.04 33.25C64.63 33.25 65.11 33.26 65.11 33.27C65.11 33.29 63.21 35.9 56.67 44.88L54.48 44.91L56.94 41.54C58.28 39.69 60.2 37.07 61.18 35.71L62.97 33.25ZM62.48 41.81C62.4 41.96 62.35 42.15 62.33 42.37C62.32 42.58 62.34 42.79 62.38 42.92C62.42 43.03 62.51 43.21 62.58 43.32C62.66 43.44 62.8 43.55 62.91 43.59C63.01 43.63 63.17 43.66 63.25 43.66C63.32 43.66 63.49 43.61 63.62 43.55C63.79 43.46 63.88 43.37 63.98 43.17C64.08 42.96 64.1 42.85 64.1 42.48C64.1 42.11 64.08 42.01 63.98 41.81C63.91 41.68 63.77 41.53 63.67 41.46C63.54 41.37 63.41 41.34 63.23 41.34C63.04 41.34 62.91 41.38 62.79 41.46C62.69 41.53 62.55 41.68 62.48 41.81ZM56.73 33.1C57.2 33.12 57.28 33.13 57.65 33.31C57.95 33.46 58.16 33.6 58.38 33.83C58.56 34.01 58.77 34.28 58.86 34.47C58.95 34.65 59.05 34.9 59.08 35.04C59.11 35.17 59.13 35.48 59.13 35.72C59.13 35.97 59.09 36.28 59.04 36.44C59 36.6 58.9 36.84 58.83 36.98C58.76 37.13 58.58 37.37 58.43 37.52C58.29 37.67 58.05 37.87 57.91 37.95C57.77 38.05 57.51 38.16 57.34 38.21C57.15 38.27 56.86 38.31 56.6 38.31C56.33 38.31 56.04 38.28 55.85 38.22C55.67 38.17 55.44 38.08 55.33 38.01C55.22 37.95 54.99 37.75 54.82 37.57C54.66 37.39 54.45 37.13 54.37 36.98C54.29 36.84 54.19 36.57 54.15 36.38C54.1 36.19 54.07 35.89 54.07 35.73C54.07 35.57 54.1 35.28 54.15 35.07C54.19 34.88 54.3 34.58 54.39 34.41C54.48 34.24 54.69 33.97 54.85 33.82C55.01 33.66 55.25 33.46 55.39 33.39C55.53 33.31 55.77 33.21 55.92 33.17C56.12 33.11 56.37 33.09 56.73 33.1ZM55.83 34.92C55.68 35.16 55.67 35.21 55.67 35.56C55.67 35.78 55.7 36.04 55.73 36.16C55.77 36.27 55.88 36.45 55.98 36.57C56.15 36.76 56.17 36.77 56.49 36.79C56.78 36.81 56.85 36.8 57.01 36.69C57.11 36.62 57.25 36.46 57.32 36.34C57.42 36.14 57.45 36.04 57.45 35.67C57.45 35.28 57.43 35.2 57.29 34.96C57.18 34.76 57.08 34.66 56.93 34.58C56.82 34.53 56.66 34.49 56.57 34.49C56.49 34.49 56.32 34.53 56.21 34.58C56.07 34.64 55.94 34.75 55.83 34.92Z" fill="#B57427" fill-opacity="1.000000" fill-rule="evenodd"/>
	<path id="Vector" d="M63.8 39.83C63.97 39.87 64.22 39.97 64.36 40.05C64.5 40.12 64.74 40.33 64.9 40.5C65.06 40.68 65.25 40.93 65.33 41.07C65.41 41.21 65.5 41.46 65.55 41.63C65.59 41.8 65.63 42.13 65.63 42.35C65.63 42.58 65.59 42.91 65.55 43.08C65.5 43.25 65.39 43.53 65.3 43.69C65.21 43.86 64.99 44.13 64.81 44.29C64.64 44.46 64.41 44.64 64.3 44.7C64.19 44.75 63.99 44.83 63.85 44.87C63.7 44.92 63.46 44.97 63.3 44.99C63.15 45.01 62.87 44.99 62.69 44.96C62.5 44.93 62.2 44.83 62.01 44.74C61.79 44.63 61.56 44.46 61.34 44.24C61.15 44.06 60.94 43.78 60.86 43.63C60.79 43.48 60.69 43.23 60.65 43.06C60.6 42.9 60.57 42.62 60.57 42.43C60.57 42.25 60.6 41.93 60.65 41.73C60.69 41.53 60.8 41.23 60.89 41.07C60.99 40.9 61.17 40.65 61.32 40.5C61.46 40.36 61.71 40.16 61.86 40.07C62.01 39.98 62.28 39.87 62.45 39.83C62.62 39.79 62.92 39.75 63.12 39.75C63.33 39.75 63.62 39.78 63.8 39.83ZM64.04 33.25C64.63 33.25 65.11 33.26 65.11 33.27C65.11 33.29 63.21 35.9 56.67 44.88L54.48 44.91L56.94 41.54C58.28 39.69 60.2 37.07 61.18 35.71L62.97 33.25L64.04 33.25ZM62.33 42.37C62.32 42.58 62.34 42.79 62.38 42.92C62.42 43.03 62.51 43.21 62.58 43.32C62.66 43.44 62.8 43.55 62.91 43.59C63.01 43.63 63.17 43.66 63.25 43.66C63.32 43.66 63.49 43.61 63.62 43.55C63.79 43.46 63.88 43.37 63.98 43.17C64.08 42.96 64.1 42.85 64.1 42.48C64.1 42.11 64.08 42.01 63.98 41.81C63.91 41.68 63.77 41.53 63.67 41.46C63.54 41.37 63.41 41.34 63.23 41.34C63.04 41.34 62.91 41.38 62.79 41.46C62.69 41.53 62.55 41.68 62.48 41.81C62.4 41.96 62.35 42.15 62.33 42.37ZM57.65 33.31C57.95 33.46 58.16 33.6 58.38 33.83C58.56 34.01 58.77 34.28 58.86 34.47C58.95 34.65 59.05 34.9 59.08 35.04C59.11 35.17 59.13 35.48 59.13 35.72C59.13 35.97 59.09 36.28 59.04 36.44C59 36.6 58.9 36.84 58.83 36.98C58.76 37.13 58.58 37.37 58.43 37.52C58.29 37.67 58.05 37.87 57.91 37.95C57.77 38.05 57.51 38.16 57.34 38.21C57.15 38.27 56.86 38.31 56.6 38.31C56.33 38.31 56.04 38.28 55.85 38.22C55.67 38.17 55.44 38.08 55.33 38.01C55.22 37.95 54.99 37.75 54.82 37.57C54.66 37.39 54.45 37.13 54.37 36.98C54.29 36.84 54.19 36.57 54.15 36.38C54.1 36.19 54.07 35.89 54.07 35.73C54.07 35.57 54.1 35.28 54.15 35.07C54.19 34.88 54.3 34.58 54.39 34.41C54.48 34.24 54.69 33.97 54.85 33.82C55.01 33.66 55.25 33.46 55.39 33.39C55.53 33.31 55.77 33.21 55.92 33.17C56.12 33.11 56.37 33.09 56.73 33.1C57.2 33.12 57.28 33.13 57.65 33.31ZM55.67 35.56C55.67 35.78 55.7 36.04 55.73 36.16C55.77 36.27 55.88 36.45 55.98 36.57C56.15 36.76 56.17 36.77 56.49 36.79C56.78 36.81 56.85 36.8 57.01 36.69C57.11 36.62 57.25 36.46 57.32 36.34C57.42 36.14 57.45 36.04 57.45 35.67C57.45 35.28 57.43 35.2 57.29 34.96C57.18 34.76 57.08 34.66 56.93 34.58C56.82 34.53 56.66 34.49 56.57 34.49C56.49 34.49 56.32 34.53 56.21 34.58C56.07 34.64 55.94 34.75 55.83 34.92C55.68 35.16 55.67 35.21 55.67 35.56Z" stroke="#000000" stroke-opacity="0" stroke-width="0.051594"/>
	<path id="Vector" d="M24.67 52.65L36.9 52.65L37.13 52.76C37.3 52.84 37.39 52.94 37.47 53.09C37.55 53.26 37.57 53.42 37.58 54.17C37.6 54.83 37.62 55.05 37.66 55.04C37.7 55.04 38.04 54.97 38.42 54.9C38.8 54.83 39.46 54.73 39.87 54.68C40.39 54.61 40.98 54.59 41.85 54.59C42.54 54.59 43.29 54.62 43.53 54.65C43.78 54.69 44.21 54.76 44.51 54.82C44.81 54.88 45.3 55.01 45.6 55.11C45.9 55.21 46.37 55.4 46.66 55.55C46.94 55.69 47.35 55.92 47.56 56.07C47.77 56.21 48.24 56.62 48.59 56.99C49.1 57.5 49.28 57.65 49.44 57.7C49.59 57.74 51.12 57.75 54.48 57.75C58.65 57.75 59.35 57.77 59.64 57.84C59.82 57.88 60.13 58 60.33 58.11C60.53 58.21 60.83 58.43 61 58.58C61.17 58.74 61.42 59.04 61.56 59.25C61.7 59.46 61.87 59.81 61.94 60.03C62 60.24 62.08 60.6 62.11 60.84C62.15 61.14 62.15 61.38 62.11 61.69C62.08 61.92 61.99 62.3 61.91 62.53C61.82 62.75 61.65 63.09 61.53 63.27C61.41 63.45 61.17 63.74 60.98 63.91C60.8 64.08 60.48 64.29 60.28 64.39C60.08 64.48 59.78 64.6 59.61 64.64C59.35 64.71 58.64 64.72 54.68 64.72C50.36 64.72 50.05 64.73 49.85 64.81C49.74 64.87 49.6 64.97 49.54 65.06C49.48 65.14 49.4 65.3 49.37 65.42C49.33 65.53 49.32 65.72 49.32 65.83C49.34 65.94 49.41 66.16 49.48 66.32C49.56 66.48 49.62 66.7 49.62 66.81C49.62 66.92 49.58 67.09 49.53 67.19C49.48 67.29 49.39 67.41 49.32 67.46C49.24 67.52 49.09 67.57 48.98 67.59C48.87 67.61 48.69 67.61 48.59 67.59C48.49 67.57 48.33 67.49 48.24 67.39C48.14 67.3 48.01 67.14 47.95 67.04C47.89 66.94 47.78 66.73 47.73 66.56C47.66 66.4 47.6 66.1 47.58 65.89C47.56 65.64 47.57 65.4 47.63 65.13C47.68 64.92 47.79 64.6 47.88 64.41C47.97 64.23 48.19 63.93 48.36 63.75C48.57 63.52 48.78 63.36 49.03 63.25C49.26 63.13 49.52 63.05 49.75 63.02C49.96 62.99 52.12 62.97 59.05 62.97L59.3 62.84C59.44 62.77 59.66 62.61 59.79 62.47C59.92 62.33 60.08 62.09 60.16 61.93C60.26 61.69 60.28 61.58 60.28 61.16C60.28 60.71 60.27 60.64 60.11 60.32C60.03 60.13 59.85 59.88 59.73 59.76C59.61 59.65 59.41 59.5 59.05 59.33L53.99 59.3C49.37 59.28 48.91 59.27 48.67 59.18C48.53 59.14 48.28 59.02 48.13 58.94C47.97 58.84 47.64 58.56 47.38 58.28C47.12 58.01 46.76 57.68 46.58 57.54C46.39 57.4 46.05 57.18 45.8 57.06C45.56 56.94 45.16 56.76 44.9 56.68C44.65 56.59 44.19 56.48 43.89 56.42C43.6 56.36 43 56.29 42.58 56.26C42.13 56.22 41.52 56.21 41.13 56.23C40.76 56.25 40.15 56.3 39.76 56.34C39.38 56.39 38.87 56.46 38.63 56.5C38.39 56.54 38.01 56.61 37.39 56.75L37.39 71.35L37.74 71.31C37.93 71.29 38.77 71.25 41.13 71.16L46.66 73.15C49.69 74.24 52.33 75.17 52.51 75.22C52.7 75.27 53.05 75.32 53.29 75.33C53.55 75.35 53.9 75.34 54.14 75.3C54.37 75.26 54.7 75.18 54.89 75.12C55.07 75.05 55.35 74.94 55.51 74.86C55.66 74.78 56.72 74.13 57.86 73.41C58.99 72.7 60.8 71.56 61.86 70.89C62.92 70.21 64.72 69.06 65.86 68.33C67 67.6 68.98 66.33 70.27 65.48C71.56 64.65 73.48 63.4 74.53 62.71C75.58 62.02 76.53 61.38 76.64 61.27C76.75 61.17 76.91 60.94 76.99 60.77C77.07 60.6 77.17 60.3 77.2 60.1C77.25 59.84 77.25 59.65 77.21 59.43C77.18 59.26 77.1 59.01 77.03 58.87C76.96 58.73 76.82 58.52 76.73 58.41C76.62 58.3 76.44 58.15 76.31 58.08C76.16 57.99 75.97 57.94 75.77 57.92C75.6 57.91 75.38 57.92 75.28 57.95C75.18 57.97 72.26 59.85 62.5 66.24L62.16 66.24C61.85 66.24 61.8 66.23 61.65 66.09C61.56 66 61.45 65.86 61.41 65.76C61.37 65.67 61.34 65.51 61.34 65.4C61.34 65.3 61.39 65.13 61.44 65.04C61.5 64.95 61.62 64.82 61.72 64.75C61.81 64.68 64.66 62.82 68.05 60.61C71.44 58.41 74.34 56.55 74.48 56.49C74.62 56.43 74.84 56.35 74.97 56.32C75.1 56.29 75.34 56.25 75.51 56.23C75.7 56.21 75.99 56.23 76.26 56.28C76.57 56.33 76.83 56.42 77.14 56.58C77.45 56.74 77.68 56.9 77.94 57.16C78.23 57.45 78.35 57.63 78.55 58.01C78.72 58.37 78.82 58.65 78.89 59.04C78.95 59.34 79 59.68 79 59.79C79 59.91 78.95 60.2 78.9 60.44C78.84 60.68 78.75 61.02 78.68 61.19C78.61 61.36 78.45 61.66 78.32 61.86C78.19 62.06 77.95 62.33 77.8 62.47C77.65 62.61 76.54 63.38 75.33 64.18C74.12 64.98 72.18 66.25 71.02 67C69.86 67.75 67.8 69.08 66.45 69.94C65.1 70.81 62.87 72.23 61.5 73.1C60.12 73.98 58.44 75.04 57.75 75.47C57.07 75.9 56.33 76.33 56.1 76.44C55.87 76.55 55.49 76.69 55.25 76.76C55.01 76.83 54.62 76.92 54.37 76.95C54.11 76.99 53.67 77 53.26 76.99C52.87 76.97 52.44 76.92 52.23 76.87C52.03 76.82 49.43 75.91 41.03 72.91L39.48 72.97C38.63 73.01 37.83 73.04 37.5 73.08L37.5 73.73C37.5 74.32 37.48 74.42 37.38 74.63C37.3 74.79 37.2 74.89 37.05 74.96C36.85 75.07 36.75 75.07 30.73 75.07C24.72 75.07 24.61 75.07 24.41 74.96C24.3 74.91 24.17 74.78 24 74.5L24 63.87C24 53.29 24 53.24 24.1 53.06C24.16 52.95 24.3 52.83 24.43 52.76L24.67 52.65ZM25.67 73.34C33.51 73.32 35.79 73.29 35.79 73.27C35.79 73.25 35.79 68.97 35.79 63.75L35.79 54.25L25.67 54.25L25.67 73.34Z" fill="#B57427" fill-opacity="1.000000" fill-rule="evenodd"/>
	<path id="Vector" d="M36.9 52.65L37.13 52.76C37.3 52.84 37.39 52.94 37.47 53.09C37.55 53.26 37.57 53.42 37.58 54.17C37.6 54.83 37.62 55.05 37.66 55.04C37.7 55.04 38.04 54.97 38.42 54.9C38.8 54.83 39.46 54.73 39.87 54.68C40.39 54.61 40.98 54.59 41.85 54.59C42.54 54.59 43.29 54.62 43.53 54.65C43.78 54.69 44.21 54.76 44.51 54.82C44.81 54.88 45.3 55.01 45.6 55.11C45.9 55.21 46.37 55.4 46.66 55.55C46.94 55.69 47.35 55.92 47.56 56.07C47.77 56.21 48.24 56.62 48.59 56.99C49.1 57.5 49.28 57.65 49.44 57.7C49.59 57.74 51.12 57.75 54.48 57.75C58.65 57.75 59.35 57.77 59.64 57.84C59.82 57.88 60.13 58 60.33 58.11C60.53 58.21 60.83 58.43 61 58.58C61.17 58.74 61.42 59.04 61.56 59.25C61.7 59.46 61.87 59.81 61.94 60.03C62 60.24 62.08 60.6 62.11 60.84C62.15 61.14 62.15 61.38 62.11 61.69C62.08 61.92 61.99 62.3 61.91 62.53C61.82 62.75 61.65 63.09 61.53 63.27C61.41 63.45 61.17 63.74 60.98 63.91C60.8 64.08 60.48 64.29 60.28 64.39C60.08 64.48 59.78 64.6 59.61 64.64C59.35 64.71 58.64 64.72 54.68 64.72C50.36 64.72 50.05 64.73 49.85 64.81C49.74 64.87 49.6 64.97 49.54 65.06C49.48 65.14 49.4 65.3 49.37 65.42C49.33 65.53 49.32 65.72 49.32 65.83C49.34 65.94 49.41 66.16 49.48 66.32C49.56 66.48 49.62 66.7 49.62 66.81C49.62 66.92 49.58 67.09 49.53 67.19C49.48 67.29 49.39 67.41 49.32 67.46C49.24 67.52 49.09 67.57 48.98 67.59C48.87 67.61 48.69 67.61 48.59 67.59C48.49 67.57 48.33 67.49 48.24 67.39C48.14 67.3 48.01 67.14 47.95 67.04C47.89 66.94 47.78 66.73 47.73 66.56C47.66 66.4 47.6 66.1 47.58 65.89C47.56 65.64 47.57 65.4 47.63 65.13C47.68 64.92 47.79 64.6 47.88 64.41C47.97 64.23 48.19 63.93 48.36 63.75C48.57 63.52 48.78 63.36 49.03 63.25C49.26 63.13 49.52 63.05 49.75 63.02C49.96 62.99 52.12 62.97 59.05 62.97L59.3 62.84C59.44 62.77 59.66 62.61 59.79 62.47C59.92 62.33 60.08 62.09 60.16 61.93C60.26 61.69 60.28 61.58 60.28 61.16C60.28 60.71 60.27 60.64 60.11 60.32C60.03 60.13 59.85 59.88 59.73 59.76C59.61 59.65 59.41 59.5 59.05 59.33L53.99 59.3C49.37 59.28 48.91 59.27 48.67 59.18C48.53 59.14 48.28 59.02 48.13 58.94C47.97 58.84 47.64 58.56 47.38 58.28C47.12 58.01 46.76 57.68 46.58 57.54C46.39 57.4 46.05 57.18 45.8 57.06C45.56 56.94 45.16 56.76 44.9 56.68C44.65 56.59 44.19 56.48 43.89 56.42C43.6 56.36 43 56.29 42.58 56.26C42.13 56.22 41.52 56.21 41.13 56.23C40.76 56.25 40.15 56.3 39.76 56.34C39.38 56.39 38.87 56.46 38.63 56.5C38.39 56.54 38.01 56.61 37.39 56.75L37.39 71.35L37.74 71.31C37.93 71.29 38.77 71.25 41.13 71.16L46.66 73.15C49.69 74.24 52.33 75.17 52.51 75.22C52.7 75.27 53.05 75.32 53.29 75.33C53.55 75.35 53.9 75.34 54.14 75.3C54.37 75.26 54.7 75.18 54.89 75.12C55.07 75.05 55.35 74.94 55.51 74.86C55.66 74.78 56.72 74.13 57.86 73.41C58.99 72.7 60.8 71.56 61.86 70.89C62.92 70.21 64.72 69.06 65.86 68.33C67 67.6 68.98 66.33 70.27 65.48C71.56 64.65 73.48 63.4 74.53 62.71C75.58 62.02 76.53 61.38 76.64 61.27C76.75 61.17 76.91 60.94 76.99 60.77C77.07 60.6 77.17 60.3 77.2 60.1C77.25 59.84 77.25 59.65 77.21 59.43C77.18 59.26 77.1 59.01 77.03 58.87C76.96 58.73 76.82 58.52 76.73 58.41C76.62 58.3 76.44 58.15 76.31 58.08C76.16 57.99 75.97 57.94 75.77 57.92C75.6 57.91 75.38 57.92 75.28 57.95C75.18 57.97 72.26 59.85 62.5 66.24L62.16 66.24C61.85 66.24 61.8 66.23 61.65 66.09C61.56 66 61.45 65.86 61.41 65.76C61.37 65.67 61.34 65.51 61.34 65.4C61.34 65.3 61.39 65.13 61.44 65.04C61.5 64.95 61.62 64.82 61.72 64.75C61.81 64.68 64.66 62.82 68.05 60.61C71.44 58.41 74.34 56.55 74.48 56.49C74.62 56.43 74.84 56.35 74.97 56.32C75.1 56.29 75.34 56.25 75.51 56.23C75.7 56.21 75.99 56.23 76.26 56.28C76.57 56.33 76.83 56.42 77.14 56.58C77.45 56.74 77.68 56.9 77.94 57.16C78.23 57.45 78.35 57.63 78.55 58.01C78.72 58.37 78.82 58.65 78.89 59.04C78.95 59.34 79 59.68 79 59.79C79 59.91 78.95 60.2 78.9 60.44C78.84 60.68 78.75 61.02 78.68 61.19C78.61 61.36 78.45 61.66 78.32 61.86C78.19 62.06 77.95 62.33 77.8 62.47C77.65 62.61 76.54 63.38 75.33 64.18C74.12 64.98 72.18 66.25 71.02 67C69.86 67.75 67.8 69.08 66.45 69.94C65.1 70.81 62.87 72.23 61.5 73.1C60.12 73.98 58.44 75.04 57.75 75.47C57.07 75.9 56.33 76.33 56.1 76.44C55.87 76.55 55.49 76.69 55.25 76.76C55.01 76.83 54.62 76.92 54.37 76.95C54.11 76.99 53.67 77 53.26 76.99C52.87 76.97 52.44 76.92 52.23 76.87C52.03 76.82 49.43 75.91 41.03 72.91L39.48 72.97C38.63 73.01 37.83 73.04 37.5 73.08L37.5 73.73C37.5 74.32 37.48 74.42 37.38 74.63C37.3 74.79 37.2 74.89 37.05 74.96C36.85 75.07 36.75 75.07 30.73 75.07C24.72 75.07 24.61 75.07 24.41 74.96C24.3 74.91 24.17 74.78 24 74.5L24 63.87C24 53.29 24 53.24 24.1 53.06C24.16 52.95 24.3 52.83 24.43 52.76L24.67 52.65L36.9 52.65ZM35.79 73.27C35.79 73.25 35.79 68.97 35.79 63.75L35.79 54.25L25.67 54.25L25.67 73.34C33.51 73.32 35.79 73.29 35.79 73.27Z" stroke="#000000" stroke-opacity="0" stroke-width="0.051594"/>
</svg>
