<svg width="53.156250" height="43.968750" viewBox="0 0 53.1562 43.9688" fill="none" xmlns="http://www.w3.org/2000/svg" xmlns:xlink="http://www.w3.org/1999/xlink">
	<desc>
			Created with Pixso.
	</desc>
	<defs>
		<linearGradient x1="26.578125" y1="1.640625" x2="26.578125" y2="42.328125" id="paint_linear_36_98_0" gradientUnits="userSpaceOnUse">
			<stop stop-color="#FEA700"/>
			<stop offset="1.000000" stop-color="#F7E651"/>
		</linearGradient>
	</defs>
	<path id="Vector" d="M46.26 20.01C49.16 20.01 51.51 22.36 51.51 25.26L51.51 35.76L48.39 35.76L43.64 35.76L9.51 35.76L4.75 35.76L1.64 35.76L1.64 25.26C1.64 22.36 3.99 20.01 6.89 20.01L46.26 20.01ZM6.89 20.01L11.75 5.24C12.46 3.09 14.48 1.64 16.74 1.64L36.41 1.64C38.67 1.64 40.68 3.09 41.39 5.24L46.26 20.01M48.39 35.76L48.39 39.94C48.39 41.26 47.33 42.32 46.01 42.32C44.7 42.32 43.64 41.26 43.64 39.94L43.64 35.76M4.75 35.76L4.75 39.94C4.75 41.26 5.82 42.32 7.13 42.32C8.44 42.32 9.51 41.26 9.51 39.94L9.51 35.76M12.14 29.2C11.41 29.2 10.82 28.61 10.82 27.89C10.82 27.16 11.41 26.57 12.14 26.57C12.86 26.57 13.45 27.16 13.45 27.89C13.45 28.61 12.86 29.2 12.14 29.2ZM41.01 29.2C40.28 29.2 39.7 28.61 39.7 27.89C39.7 27.16 40.28 26.57 41.01 26.57C41.74 26.57 42.32 27.16 42.32 27.89C42.32 28.61 41.74 29.2 41.01 29.2Z" stroke="#5A4D47" stroke-opacity="1.000000" stroke-width="3.281250"/>
	<path id="Vector" d="M46.26 20.01C49.16 20.01 51.51 22.36 51.51 25.26L51.51 35.76L48.39 35.76L43.64 35.76L9.51 35.76L4.75 35.76L1.64 35.76L1.64 25.26C1.64 22.36 3.99 20.01 6.89 20.01L46.26 20.01ZM6.89 20.01L11.75 5.24C12.46 3.09 14.48 1.64 16.74 1.64L36.41 1.64C38.67 1.64 40.68 3.09 41.39 5.24L46.26 20.01M48.39 35.76L48.39 39.94C48.39 41.26 47.33 42.32 46.01 42.32C44.7 42.32 43.64 41.26 43.64 39.94L43.64 35.76M4.75 35.76L4.75 39.94C4.75 41.26 5.82 42.32 7.13 42.32C8.44 42.32 9.51 41.26 9.51 39.94L9.51 35.76M12.14 29.2C11.41 29.2 10.82 28.61 10.82 27.89C10.82 27.16 11.41 26.57 12.14 26.57C12.86 26.57 13.45 27.16 13.45 27.89C13.45 28.61 12.86 29.2 12.14 29.2ZM41.01 29.2C40.28 29.2 39.7 28.61 39.7 27.89C39.7 27.16 40.28 26.57 41.01 26.57C41.74 26.57 42.32 27.16 42.32 27.89C42.32 28.61 41.74 29.2 41.01 29.2Z" stroke="url(#paint_linear_36_98_0)" stroke-opacity="1.000000" stroke-width="3.281250"/>
	<path id="Vector" d="M46.26 20.01C49.16 20.01 51.51 22.36 51.51 25.26L51.51 35.76L48.39 35.76L43.64 35.76L9.51 35.76L4.75 35.76L1.64 35.76L1.64 25.26C1.64 22.36 3.99 20.01 6.89 20.01L46.26 20.01ZM6.89 20.01L11.75 5.24C12.46 3.09 14.48 1.64 16.74 1.64L36.41 1.64C38.67 1.64 40.68 3.09 41.39 5.24L46.26 20.01M48.39 35.76L48.39 39.94C48.39 41.26 47.33 42.32 46.01 42.32C44.7 42.32 43.64 41.26 43.64 39.94L43.64 35.76M4.75 35.76L4.75 39.94C4.75 41.26 5.82 42.32 7.13 42.32C8.44 42.32 9.51 41.26 9.51 39.94L9.51 35.76M12.14 29.2C11.41 29.2 10.82 28.61 10.82 27.89C10.82 27.16 11.41 26.57 12.14 26.57C12.86 26.57 13.45 27.16 13.45 27.89C13.45 28.61 12.86 29.2 12.14 29.2ZM41.01 29.2C40.28 29.2 39.7 28.61 39.7 27.89C39.7 27.16 40.28 26.57 41.01 26.57C41.74 26.57 42.32 27.16 42.32 27.89C42.32 28.61 41.74 29.2 41.01 29.2Z" stroke="#5A4D47" stroke-opacity="1.000000" stroke-width="3.281250"/>
</svg>
