<svg width="75.000000" height="75.075195" viewBox="0 0 75 75.0752" fill="none" xmlns="http://www.w3.org/2000/svg" xmlns:xlink="http://www.w3.org/1999/xlink">
	<desc>
			Created with Pixso.
	</desc>
	<defs/>
	<path id="Vector" d="M37.53 0C39.48 0.02 40.71 0.07 41.4 0.15C41.96 0.21 42.94 0.35 43.58 0.46C44.21 0.56 45.18 0.75 45.72 0.87C46.25 0.99 47.07 1.19 47.52 1.32C47.97 1.44 48.76 1.68 49.27 1.85C49.77 2.02 50.65 2.34 51.22 2.56C51.78 2.79 52.64 3.14 53.11 3.36C53.59 3.58 54.37 3.95 54.84 4.21C55.32 4.45 56.16 4.93 56.72 5.26C57.27 5.59 58.11 6.11 58.56 6.42C59.01 6.74 59.72 7.24 60.14 7.56C60.55 7.87 61.33 8.49 61.86 8.95C62.39 9.4 63.38 10.32 64.05 10.98C64.71 11.64 65.62 12.62 66.07 13.16C66.53 13.7 67.15 14.47 67.46 14.88C67.78 15.3 68.33 16.09 68.71 16.65C69.08 17.2 69.6 18.03 69.87 18.49C70.14 18.95 70.58 19.74 70.85 20.25C71.12 20.77 71.53 21.61 71.76 22.13C71.99 22.65 72.28 23.32 72.4 23.63C72.52 23.94 72.77 24.64 72.97 25.17C73.16 25.71 73.43 26.57 73.58 27.09C73.73 27.6 73.97 28.54 74.11 29.15C74.25 29.77 74.46 30.8 74.56 31.44C74.66 32.08 74.8 33.08 74.87 33.66C74.96 34.45 75 35.39 75 37.49C75 39.62 74.96 40.53 74.87 41.39C74.79 42.01 74.65 43.03 74.55 43.64C74.44 44.26 74.27 45.15 74.17 45.62C74.07 46.08 73.92 46.72 73.83 47.04C73.74 47.36 73.58 47.95 73.46 48.34C73.35 48.73 73.07 49.58 72.84 50.21C72.61 50.85 72.25 51.77 72.05 52.24C71.85 52.72 71.41 53.65 71.08 54.31C70.75 54.97 70.23 55.93 69.93 56.45C69.63 56.97 69.03 57.93 68.57 58.59C68.13 59.25 67.37 60.28 66.89 60.88C66.42 61.48 65.61 62.42 65.1 62.97C64.6 63.53 63.75 64.39 63.21 64.89C62.67 65.39 61.85 66.11 61.37 66.5C60.9 66.89 60.21 67.43 59.83 67.71C59.46 67.98 58.75 68.48 58.26 68.81C57.76 69.15 56.95 69.65 56.46 69.94C55.96 70.23 55.37 70.56 55.16 70.67C54.93 70.78 54.64 70.87 54.46 70.87C54.3 70.87 54.07 70.82 53.96 70.76C53.84 70.7 53.68 70.57 53.59 70.47C53.49 70.38 53.39 70.18 53.34 70.04C53.29 69.85 53.31 69.31 53.41 68.09C53.5 67.16 53.63 65.65 53.71 64.75C53.8 63.84 53.93 62.35 54.01 61.44C54.1 60.53 54.22 59.23 54.28 58.55C54.33 57.87 54.44 56.67 54.5 55.88C54.57 55.1 54.65 54.28 54.69 54.08C54.75 53.81 54.83 53.64 55.01 53.47C55.14 53.34 55.34 53.19 55.46 53.15C55.59 53.1 56.85 53.07 59.08 53.07C62.07 53.07 62.5 53.05 62.5 52.96C62.5 52.9 62.42 52.63 62.32 52.37C62.21 52.11 61.55 50.35 60.84 48.45C60.14 46.55 59.49 44.86 59.41 44.7C59.32 44.53 59.1 44 58.92 43.52C58.75 43.03 58.6 42.59 58.6 42.54C58.6 42.49 57.95 40.72 57.16 38.61C56.12 35.84 55.72 34.69 55.72 34.45C55.71 34.23 55.76 34.02 55.87 33.84C55.96 33.69 56.16 33.51 56.35 33.42C56.53 33.32 56.76 33.24 56.87 33.24C56.97 33.24 57.2 33.31 57.38 33.39C57.56 33.48 57.76 33.65 57.84 33.78C57.92 33.92 58.42 35.18 58.94 36.59C59.47 37.99 60.3 40.22 60.79 41.54C61.28 42.86 61.76 44.03 61.85 44.12C61.94 44.21 62.15 44.37 62.31 44.45C62.55 44.57 62.72 44.6 63.11 44.58C63.48 44.55 63.67 44.5 63.91 44.34C64.08 44.22 64.32 43.97 64.43 43.78C64.6 43.49 64.64 43.33 64.63 43.01C64.62 42.67 64.43 42.06 63.6 39.81C63.03 38.28 62.33 36.38 62.03 35.57C61.73 34.77 61.36 33.87 61.2 33.58C61.03 33.29 60.73 32.8 60.53 32.49C60.32 32.19 59.94 31.66 59.68 31.33C59.43 31 58.92 30.44 58.55 30.09C58.18 29.74 57.6 29.26 57.25 29.03C56.89 28.8 56.3 28.45 55.93 28.27C55.55 28.09 54.85 27.79 54.35 27.62C53.86 27.45 53.05 27.21 52.55 27.09C52.05 26.97 51.39 26.84 51.08 26.79C50.66 26.72 50.41 26.72 50.03 26.79C49.76 26.83 49.21 26.95 48.8 27.06C48.38 27.16 47.69 27.36 47.26 27.51C46.82 27.66 46.17 27.91 45.79 28.09C45.42 28.25 44.85 28.54 44.51 28.72C44.19 28.91 43.58 29.29 43.16 29.57C42.75 29.85 42.1 30.33 41.73 30.63C41.35 30.93 40.69 31.49 39.5 32.53L39.87 32.83C40.07 32.99 40.62 33.5 41.08 33.96C41.56 34.41 42.18 35.11 42.48 35.5C42.78 35.89 43.18 36.53 43.37 36.92C43.57 37.31 43.8 37.91 43.88 38.24C43.98 38.63 44.03 39.09 44.03 39.55C44.03 40.08 43.98 40.46 43.83 41.02C43.73 41.43 43.5 42.04 43.33 42.37C43.16 42.7 42.82 43.22 42.58 43.52C42.35 43.81 42.07 44.11 41.96 44.17C41.86 44.23 41.78 44.31 41.78 44.34C41.77 44.37 41.88 44.45 42.01 44.5C42.15 44.56 42.55 44.78 42.9 44.98C43.25 45.18 43.81 45.56 44.14 45.82C44.47 46.08 44.94 46.51 45.2 46.77C45.45 47.03 45.85 47.52 46.1 47.85C46.35 48.18 46.73 48.8 46.95 49.24C47.17 49.67 47.45 50.31 47.57 50.67C47.69 51.02 47.86 51.68 47.95 52.13C48.1 52.89 48.12 53.17 48.12 55.73C48.12 58.45 48.11 58.52 47.95 59C47.85 59.27 47.66 59.67 47.51 59.89C47.37 60.1 47.11 60.42 46.94 60.58C46.76 60.76 46.47 60.98 46.28 61.09C46.09 61.2 45.78 61.35 45.57 61.43C45.33 61.52 44.91 61.59 43.69 61.67L43.56 63.54C43.5 64.58 43.38 66.3 43.32 67.37C43.25 68.45 43.15 69.96 43.09 70.75C43.03 71.54 43.01 72.2 43.04 72.23C43.07 72.26 43.58 72.19 44.18 72.07C44.78 71.95 45.62 71.77 46.05 71.65C46.49 71.55 47.32 71.32 47.89 71.15C48.83 70.87 48.98 70.85 49.23 70.93C49.38 70.98 49.62 71.12 49.73 71.24C49.85 71.36 50 71.6 50.03 71.77C50.09 71.96 50.09 72.16 50.03 72.35C50 72.5 49.91 72.7 49.85 72.8C49.79 72.89 49.61 73.03 49.46 73.11C49.3 73.19 48.75 73.37 48.23 73.52C47.71 73.66 47.11 73.83 46.88 73.9C46.66 73.96 46.06 74.1 45.57 74.21C45.07 74.31 44.18 74.48 43.58 74.58C42.98 74.69 42.05 74.8 41.51 74.85C40.98 74.9 40.48 74.96 40.41 75C40.33 75.04 39.03 75.07 37.5 75.07C35.96 75.07 34.66 75.04 34.59 75C34.51 74.96 34.01 74.9 33.48 74.85C32.94 74.8 32.01 74.69 31.41 74.58C30.81 74.48 29.92 74.31 29.42 74.21C28.93 74.1 28.03 73.88 27.43 73.71C26.83 73.55 26.06 73.31 25.71 73.19C25.35 73.07 24.98 72.89 24.89 72.79C24.8 72.7 24.66 72.52 24.6 72.4C24.52 72.25 24.5 72.06 24.53 71.8C24.55 71.6 24.63 71.35 24.71 71.24C24.79 71.14 24.97 70.99 25.11 70.91C25.26 70.82 25.5 70.76 25.67 70.77C25.83 70.77 26.29 70.88 26.68 71.01C27.07 71.14 27.88 71.38 28.48 71.54C29.08 71.7 30.1 71.94 30.76 72.06C31.41 72.19 32.02 72.29 32.13 72.29C32.32 72.29 32.32 72.28 32.28 71.79C32.25 71.5 32.21 70.65 32.16 69.89C32.13 69.12 32.07 68.11 32.05 67.64C32.03 67.16 31.96 65.83 31.9 64.67C31.84 63.51 31.77 62.36 31.71 61.63L30.65 61.61C29.65 61.59 29.54 61.58 29.12 61.38C28.87 61.26 28.52 61.04 28.34 60.89C28.16 60.74 27.91 60.46 27.78 60.28C27.66 60.09 27.49 59.75 27.4 59.53C27.25 59.14 27.25 58.97 27.25 56.03C27.25 53.14 27.26 52.91 27.42 52.17C27.51 51.73 27.69 51.08 27.82 50.7C27.94 50.33 28.2 49.71 28.39 49.34C28.59 48.95 28.96 48.33 29.23 47.95C29.51 47.57 30.08 46.93 30.51 46.51C30.95 46.08 31.58 45.56 31.94 45.33C32.29 45.09 32.79 44.8 33.05 44.67C33.3 44.54 33.51 44.39 33.51 44.36C33.51 44.32 33.43 44.23 33.33 44.17C33.22 44.11 32.93 43.79 32.68 43.47C32.42 43.16 32.11 42.68 31.98 42.41C31.84 42.13 31.66 41.71 31.57 41.44C31.49 41.19 31.37 40.73 31.33 40.44C31.28 40.13 31.26 39.54 31.28 39.1C31.31 38.6 31.38 38.12 31.49 37.79C31.58 37.49 31.78 37.01 31.94 36.7C32.1 36.39 32.5 35.81 32.82 35.42C33.16 35.03 33.64 34.52 33.9 34.29C34.16 34.06 34.65 33.64 34.98 33.36C35.31 33.08 35.59 32.82 35.6 32.79C35.61 32.75 35.35 32.51 35.04 32.26C34.72 32 34.16 31.62 33.78 31.4C33.41 31.19 32.8 30.87 32.42 30.71C32.06 30.55 31.14 30.19 30.4 29.91C29.66 29.63 28.6 29.23 28.07 29.02C27.54 28.81 26.61 28.42 24.92 27.68L23.49 28.33C22.71 28.69 21.32 29.3 20.41 29.69C19.5 30.08 18.34 30.57 17.82 30.78C17.3 30.98 16.65 31.29 16.36 31.46C16.07 31.64 15.58 32.01 15.28 32.31C14.98 32.59 14.6 33.02 14.44 33.24C14.29 33.47 14.07 33.84 13.96 34.07C13.84 34.3 12.94 36.9 11.96 39.85C10.8 43.31 10.16 45.33 10.16 45.52C10.16 45.69 10.22 45.96 10.3 46.12C10.37 46.29 10.55 46.51 10.69 46.63C10.84 46.74 11.1 46.87 11.29 46.92C11.57 46.99 11.69 46.99 12 46.91C12.23 46.84 12.48 46.71 12.65 46.54C12.9 46.29 13.03 45.9 14.7 40.9C15.94 37.18 16.55 35.45 16.69 35.28C16.79 35.14 17 34.97 17.15 34.91C17.29 34.85 17.54 34.82 17.71 34.84C17.87 34.85 18.13 34.96 18.3 35.07C18.48 35.2 18.61 35.38 18.69 35.59C18.75 35.77 18.83 36.47 18.87 37.15C18.92 37.83 19.01 39.2 19.1 40.19C19.18 41.18 19.26 42.25 19.28 42.56C19.3 42.86 19.39 43.98 19.47 45.03C19.56 46.08 19.67 47.62 19.74 48.45C19.8 49.28 19.92 50.86 20 51.98C20.08 53.1 20.19 54.6 20.25 55.32C20.32 56.04 20.39 56.94 20.41 57.31C20.44 57.69 20.53 58.78 20.6 59.75C20.67 60.72 20.76 61.82 20.79 62.19C20.81 62.57 20.9 63.68 20.98 64.67C21.06 65.66 21.17 67.2 21.36 69.7L21.19 70.04C21.06 70.29 20.92 70.42 20.67 70.55C20.42 70.68 20.26 70.71 20.04 70.68C19.86 70.66 19.38 70.44 18.87 70.14C18.4 69.87 17.52 69.33 16.92 68.93C16.32 68.54 15.51 67.98 15.12 67.69C14.73 67.4 14.14 66.94 13.8 66.67C13.48 66.4 12.92 65.92 12.57 65.62C12.21 65.3 11.61 64.75 11.23 64.37C10.84 64 10.15 63.27 9.68 62.76C9.23 62.24 8.62 61.55 8.35 61.22C8.08 60.89 7.62 60.29 7.33 59.9C7.05 59.51 6.53 58.78 6.21 58.29C5.87 57.79 5.36 56.97 5.06 56.45C4.76 55.93 4.23 54.95 3.89 54.27C3.55 53.59 3.06 52.53 2.8 51.9C2.55 51.29 2.14 50.18 1.9 49.46C1.66 48.74 1.35 47.77 1.23 47.31C1.11 46.84 0.92 46.08 0.82 45.62C0.72 45.15 0.55 44.27 0.44 43.64C0.34 43.03 0.2 42.03 0.13 41.43C0.03 40.61 0 39.66 0 37.56C0 35.44 0.03 34.52 0.12 33.69C0.18 33.09 0.33 32.08 0.43 31.44C0.53 30.8 0.72 29.83 0.84 29.3C0.96 28.77 1.17 27.96 1.3 27.5C1.41 27.04 1.66 26.27 1.81 25.77C1.98 25.28 2.3 24.4 2.53 23.82C2.75 23.24 3.13 22.35 3.37 21.83C3.6 21.31 4 20.5 4.25 20.03C4.5 19.55 4.96 18.74 5.26 18.23C5.57 17.71 6.03 17 6.26 16.65C6.49 16.3 6.99 15.6 7.36 15.11C7.73 14.61 8.42 13.75 8.89 13.19C9.36 12.64 10.28 11.64 10.95 10.98C11.61 10.32 12.54 9.44 13.01 9.03C13.49 8.63 14.34 7.95 14.89 7.53C15.45 7.11 16.21 6.56 16.58 6.31C16.96 6.06 17.68 5.6 18.2 5.29C18.71 4.99 19.53 4.53 20 4.28C20.47 4.03 21.28 3.63 21.8 3.39C22.32 3.15 23.21 2.79 23.78 2.56C24.34 2.34 25.22 2.02 25.73 1.85C26.23 1.68 27.02 1.44 27.47 1.32C27.93 1.19 28.74 0.99 29.27 0.87C29.81 0.75 30.78 0.56 31.41 0.46C32.05 0.35 33.03 0.23 33.58 0.17C34.13 0.12 34.6 0.06 34.63 0.03C34.65 0 35.96 -0.01 37.53 0ZM32.54 2.68C31.94 2.77 30.98 2.94 30.4 3.06C29.82 3.18 28.91 3.39 28.37 3.53C27.84 3.68 26.99 3.93 26.5 4.09C26 4.25 25.05 4.6 24.39 4.87C23.73 5.13 22.64 5.62 21.95 5.96C21.27 6.29 20.17 6.89 19.51 7.28C18.85 7.68 17.89 8.29 17.37 8.66C16.85 9.02 16.03 9.64 15.53 10.03C15.04 10.43 14.3 11.06 13.88 11.44C13.47 11.81 12.71 12.56 12.19 13.09C11.67 13.62 10.93 14.45 10.53 14.92C10.13 15.39 9.58 16.09 9.3 16.46C9.02 16.83 8.48 17.61 8.1 18.19C7.72 18.77 7.2 19.59 6.96 20.03C6.7 20.46 6.23 21.36 5.91 22.02C5.58 22.68 5.1 23.76 4.84 24.42C4.58 25.08 4.22 26.03 4.07 26.52C3.9 27.02 3.65 27.87 3.5 28.4C3.36 28.93 3.15 29.85 3.03 30.43C2.91 31.01 2.75 31.97 2.66 32.57C2.57 33.17 2.47 34.05 2.43 34.52C2.39 34.99 2.35 36.33 2.35 37.49C2.35 38.64 2.39 39.98 2.43 40.45C2.47 40.93 2.58 41.83 2.66 42.44C2.75 43.07 2.9 43.97 3 44.47C3.1 44.97 3.27 45.71 3.37 46.12C3.48 46.54 3.66 47.2 3.78 47.59C3.89 47.98 4.13 48.71 4.3 49.2C4.48 49.7 4.79 50.51 5 51C5.21 51.5 5.57 52.31 5.8 52.81C6.04 53.3 6.48 54.15 6.78 54.68C7.08 55.22 7.58 56.06 7.9 56.56C8.22 57.06 8.76 57.85 9.11 58.32C9.46 58.8 10.09 59.59 10.49 60.09C10.91 60.58 11.87 61.62 12.63 62.39C13.4 63.15 14.44 64.12 14.93 64.53C15.42 64.94 16.09 65.46 16.39 65.69C16.7 65.92 17.34 66.37 17.81 66.69C18.26 67.01 18.69 67.26 18.75 67.26C18.81 67.26 18.82 67.16 18.78 66.87C18.75 66.65 18.66 65.51 18.57 64.33C18.49 63.15 18.39 61.84 18.35 61.4C18.31 60.97 18.24 60.1 18.2 59.49C18.15 58.87 18.05 57.51 17.97 56.48C17.89 55.46 17.77 53.93 17.71 53.11C17.64 52.28 17.53 50.7 17.44 49.58C17.36 48.46 17.25 46.96 17.18 46.23C17.12 45.51 17.03 44.32 16.98 43.58C16.93 42.86 16.85 42.26 16.82 42.27C16.78 42.29 16.38 43.39 15.93 44.73C15.35 46.46 15.03 47.29 14.85 47.57C14.71 47.78 14.45 48.1 14.28 48.27C14.1 48.43 13.8 48.67 13.62 48.77C13.43 48.89 13.07 49.05 12.81 49.14C12.44 49.28 12.18 49.31 11.63 49.31C11.07 49.31 10.81 49.28 10.45 49.14C10.19 49.05 9.82 48.89 9.64 48.77C9.45 48.67 9.15 48.43 8.97 48.25C8.78 48.07 8.51 47.74 8.36 47.51C8.22 47.29 8.03 46.88 7.95 46.61C7.85 46.28 7.8 45.9 7.8 45.45L7.81 44.77C10.69 36.16 11.66 33.39 11.82 33.06C11.98 32.73 12.27 32.22 12.48 31.93C12.68 31.64 13.05 31.17 13.32 30.89C13.58 30.61 14.05 30.2 14.33 29.98C14.62 29.76 15.11 29.44 15.42 29.28C15.73 29.11 16.67 28.69 17.52 28.34C18.37 27.99 19.6 27.46 20.26 27.18C20.92 26.89 21.62 26.58 21.82 26.49C22.02 26.4 22.17 26.31 22.17 26.28C22.17 26.25 21.94 26.07 21.67 25.89C21.39 25.7 20.88 25.31 20.53 25.01C20.17 24.72 19.67 24.25 19.41 23.96C19.14 23.68 18.75 23.21 18.55 22.92C18.35 22.63 18.03 22.09 17.85 21.72C17.67 21.35 17.45 20.77 17.37 20.44C17.28 20.11 17.19 19.5 17.17 19.09C17.14 18.53 17.16 18.14 17.26 17.59C17.33 17.17 17.48 16.6 17.57 16.31C17.68 16.03 17.85 15.62 17.96 15.41C18.05 15.21 18.32 14.79 18.53 14.48C18.74 14.17 19.2 13.65 19.56 13.31C19.91 12.98 20.46 12.55 20.8 12.35C21.12 12.15 21.71 11.88 22.1 11.74C22.49 11.6 23.1 11.44 23.45 11.39C23.84 11.33 24.46 11.31 25.03 11.34C25.64 11.36 26.18 11.44 26.57 11.54C26.9 11.62 27.44 11.83 27.77 11.99C28.1 12.14 28.59 12.41 28.86 12.59C29.13 12.77 29.6 13.18 29.92 13.49C30.23 13.8 30.62 14.26 30.79 14.51C30.96 14.76 31.22 15.21 31.37 15.51C31.52 15.8 31.73 16.34 31.84 16.71C32.03 17.32 32.04 17.45 32.04 18.79C32.04 20.13 32.03 20.25 31.84 20.88C31.73 21.24 31.49 21.82 31.31 22.19C31.13 22.55 30.8 23.1 30.58 23.41C30.36 23.71 29.86 24.29 29.46 24.68C29.06 25.07 28.48 25.58 28.16 25.81C27.85 26.04 27.61 26.25 27.64 26.28C27.67 26.31 28.14 26.5 28.67 26.72C29.21 26.93 30 27.23 30.44 27.39C30.87 27.54 31.71 27.86 32.32 28.1C32.91 28.34 33.73 28.69 34.12 28.89C34.51 29.08 35.15 29.46 35.54 29.71C35.93 29.98 36.44 30.34 36.67 30.53C36.89 30.71 37.19 30.91 37.31 30.98L37.53 31.09C39.1 29.72 39.95 29.02 40.42 28.66C40.9 28.29 41.53 27.83 41.81 27.63C42.1 27.42 42.66 27.07 43.05 26.85C43.44 26.61 44.09 26.28 44.48 26.09C44.87 25.91 45.45 25.67 45.76 25.55C46.06 25.43 46.35 25.31 46.38 25.29C46.42 25.27 46.28 25.13 46.08 24.98C45.88 24.83 45.5 24.47 45.23 24.19C44.96 23.9 44.6 23.47 44.43 23.22C44.26 22.97 44.02 22.57 43.9 22.32C43.78 22.07 43.61 21.66 43.52 21.42C43.43 21.17 43.31 20.7 43.25 20.37C43.19 20.04 43.11 19.53 43.09 19.24C43.06 18.95 43.08 18.41 43.13 18.04C43.17 17.67 43.28 17.11 43.36 16.8C43.44 16.49 43.64 15.97 43.8 15.64C43.94 15.3 44.22 14.82 44.41 14.55C44.58 14.28 44.99 13.8 45.3 13.49C45.61 13.18 46.08 12.77 46.35 12.59C46.63 12.41 47.11 12.14 47.44 11.99C47.78 11.83 48.32 11.62 48.65 11.54C49.04 11.44 49.58 11.36 50.19 11.34C50.76 11.31 51.37 11.33 51.76 11.39C52.12 11.44 52.69 11.59 53.04 11.71C53.39 11.84 53.92 12.07 54.2 12.23C54.5 12.4 54.9 12.66 55.1 12.82C55.32 12.98 55.71 13.34 55.98 13.62C56.25 13.9 56.6 14.34 56.77 14.58C56.94 14.83 57.17 15.24 57.3 15.48C57.42 15.73 57.61 16.21 57.72 16.54C57.82 16.87 57.95 17.5 58 17.96C58.08 18.62 58.08 18.97 58 19.65C57.94 20.26 57.83 20.76 57.64 21.34C57.48 21.81 57.19 22.45 56.98 22.8C56.77 23.16 56.33 23.73 55.96 24.11C55.61 24.49 55.19 24.88 55.04 24.98C54.89 25.09 54.76 25.19 54.76 25.21C54.76 25.23 55.04 25.34 55.39 25.46C55.73 25.58 56.3 25.82 56.68 25.99C57.06 26.16 57.66 26.49 58.03 26.71C58.41 26.94 59.03 27.38 59.42 27.69C59.81 28.01 60.35 28.5 60.62 28.78C60.89 29.07 61.31 29.56 61.55 29.86C61.8 30.17 62.19 30.71 62.42 31.07C62.66 31.42 63.03 32.01 63.24 32.38C63.44 32.75 63.77 33.46 63.96 33.96C64.14 34.45 64.52 35.47 64.79 36.21C65.07 36.95 65.44 37.97 65.62 38.46C65.8 38.96 66.17 39.97 66.45 40.72L66.96 42.07C66.96 43.88 66.94 43.98 66.74 44.47C66.62 44.76 66.37 45.18 66.19 45.41C66.01 45.63 65.73 45.93 65.56 46.07C65.38 46.21 65.1 46.4 64.94 46.5C64.78 46.6 64.41 46.75 64.12 46.83C63.83 46.92 63.43 46.99 63.24 46.99C63.03 46.99 62.87 47.01 62.87 47.05C62.87 47.08 63.44 48.64 64.15 50.52C65.08 52.97 65.44 54.03 65.44 54.27C65.45 54.47 65.4 54.71 65.31 54.86C65.23 54.99 65.05 55.18 64.9 55.27C64.64 55.43 64.6 55.43 60.8 55.45L56.94 55.47C56.89 55.73 56.84 56.27 56.8 56.82C56.76 57.38 56.66 58.58 56.58 59.49C56.49 60.4 56.35 61.92 56.27 62.87C56.18 63.81 56.05 65.25 55.98 66.04C55.91 66.83 55.88 67.49 55.91 67.49C55.94 67.49 56.31 67.26 56.74 66.99C57.16 66.71 57.95 66.16 58.48 65.76C59.02 65.35 59.8 64.75 60.21 64.4C60.62 64.05 61.48 63.27 62.11 62.64C62.75 62.03 63.6 61.13 64.01 60.65C64.41 60.18 65.04 59.41 65.39 58.96C65.75 58.51 66.35 57.66 66.73 57.09C67.12 56.51 67.61 55.73 67.83 55.36C68.05 54.98 68.49 54.17 68.82 53.56C69.13 52.93 69.6 51.96 69.84 51.38C70.08 50.8 70.44 49.88 70.63 49.35C70.82 48.82 71.08 48.04 71.2 47.62C71.32 47.21 71.51 46.54 71.62 46.12C71.72 45.71 71.89 44.95 71.99 44.43C72.1 43.91 72.25 43.01 72.34 42.41C72.42 41.8 72.53 40.86 72.57 40.3C72.62 39.68 72.64 38.34 72.62 36.81C72.58 34.69 72.55 34.14 72.38 32.94C72.28 32.18 72.09 31.07 71.97 30.47C71.85 29.86 71.59 28.82 71.41 28.14C71.22 27.45 70.96 26.61 70.84 26.26C70.72 25.91 70.44 25.13 70.2 24.53C69.96 23.93 69.45 22.8 69.07 22.02C68.69 21.24 68.08 20.1 67.72 19.5C67.36 18.9 66.85 18.09 66.58 17.7C66.31 17.31 65.81 16.63 65.48 16.2C65.14 15.76 64.62 15.1 64.31 14.73C64 14.37 63.12 13.43 62.36 12.66C61.59 11.9 60.55 10.93 60.06 10.52C59.57 10.12 58.78 9.5 58.33 9.17C57.88 8.83 57.12 8.31 56.64 8C56.17 7.69 55.42 7.23 54.99 6.98C54.55 6.73 53.66 6.26 53 5.93C52.34 5.61 51.26 5.13 50.6 4.87C49.94 4.6 48.99 4.25 48.5 4.09C48 3.93 47.16 3.68 46.62 3.53C46.08 3.39 45.17 3.18 44.59 3.06C44.01 2.94 43.05 2.77 42.45 2.69C41.85 2.6 40.97 2.5 40.5 2.46C40.03 2.42 38.61 2.39 37.35 2.39C36.08 2.4 34.73 2.43 34.34 2.46C33.95 2.5 33.14 2.6 32.54 2.68ZM22.74 14.03C22.49 14.12 22.03 14.37 21.73 14.58C21.42 14.79 20.98 15.18 20.75 15.46C20.53 15.73 20.23 16.16 20.1 16.43C19.97 16.69 19.8 17.08 19.73 17.29C19.62 17.58 19.59 17.9 19.59 18.71C19.59 19.72 19.6 19.79 19.83 20.37C19.96 20.7 20.23 21.2 20.44 21.49C20.64 21.79 21.01 22.22 21.25 22.48C21.49 22.72 21.94 23.13 22.25 23.38C22.56 23.62 23.12 24.02 23.49 24.24C23.87 24.47 24.35 24.75 24.57 24.86L24.96 25.06C26.15 24.33 26.72 23.95 26.98 23.74C27.25 23.52 27.69 23.11 27.97 22.84C28.24 22.55 28.62 22.09 28.81 21.79C29 21.5 29.21 21.12 29.3 20.93C29.37 20.74 29.51 20.31 29.6 19.95C29.69 19.58 29.76 19.07 29.76 18.75C29.76 18.44 29.69 17.93 29.61 17.59C29.53 17.26 29.33 16.73 29.18 16.42C28.97 16.01 28.73 15.69 28.26 15.21C27.91 14.86 27.43 14.46 27.21 14.34C26.98 14.21 26.53 14.01 26.19 13.91C25.75 13.76 25.41 13.7 24.84 13.68C24.37 13.66 23.92 13.68 23.64 13.75C23.39 13.81 22.99 13.93 22.74 14.03ZM48.65 14.04C48.4 14.13 48.01 14.34 47.78 14.49C47.56 14.64 47.13 15 46.84 15.31C46.46 15.71 46.23 16.04 46.01 16.5C45.84 16.85 45.65 17.32 45.6 17.55C45.54 17.78 45.49 18.34 45.49 18.83C45.5 19.3 45.55 19.88 45.6 20.1C45.65 20.33 45.84 20.82 46.02 21.19C46.2 21.56 46.49 22.04 46.67 22.26C46.85 22.47 47.21 22.82 47.48 23.04C47.75 23.25 48.14 23.51 48.35 23.62C48.56 23.72 48.91 23.87 49.14 23.95C49.36 24.03 49.76 24.14 50.03 24.19C50.34 24.25 50.66 24.26 50.9 24.23C51.11 24.2 51.42 24.14 51.61 24.08C51.8 24.03 52.21 23.87 52.51 23.73C52.82 23.59 53.3 23.32 53.57 23.12C53.83 22.93 54.23 22.55 54.45 22.28C54.67 22.01 54.97 21.56 55.11 21.27C55.25 20.97 55.44 20.46 55.52 20.1C55.66 19.57 55.68 19.31 55.65 18.56C55.62 17.82 55.58 17.56 55.41 17.1C55.28 16.79 55.13 16.42 55.04 16.27C54.95 16.13 54.75 15.82 54.57 15.6C54.41 15.37 54.1 15.05 53.89 14.88C53.69 14.72 53.34 14.47 53.11 14.34C52.89 14.2 52.43 14.01 52.1 13.9C51.67 13.77 51.28 13.7 50.75 13.68C50.28 13.66 49.83 13.68 49.55 13.75C49.3 13.8 48.89 13.93 48.65 14.04ZM35 36.55C34.72 36.83 34.37 37.27 34.21 37.5C34.07 37.74 33.87 38.12 33.8 38.35C33.73 38.58 33.64 38.97 33.62 39.21C33.59 39.5 33.62 39.87 33.69 40.23C33.76 40.54 33.93 41.01 34.07 41.28C34.21 41.57 34.5 41.96 34.79 42.26C35.12 42.59 35.46 42.85 35.8 43.02C36.1 43.17 36.51 43.33 36.73 43.37C36.94 43.42 37.36 43.46 37.64 43.46C37.94 43.46 38.35 43.42 38.57 43.37C38.78 43.33 39.18 43.18 39.45 43.04C39.72 42.91 40.12 42.63 40.34 42.44C40.56 42.23 40.87 41.86 41.03 41.62C41.2 41.37 41.4 40.93 41.49 40.64C41.6 40.28 41.66 39.93 41.65 39.51C41.65 39.07 41.6 38.79 41.47 38.43C41.36 38.16 41.13 37.7 40.93 37.41C40.74 37.12 40.36 36.63 40.1 36.32C39.83 36.02 39.37 35.54 39.07 35.27C38.76 35 38.34 34.64 38.13 34.47C37.93 34.3 37.74 34.15 37.72 34.15C37.7 34.15 37.19 34.57 36.59 35.08C36 35.6 35.28 36.26 35 36.55ZM35.54 46.24C35.23 46.33 34.61 46.57 34.16 46.8C33.63 47.05 33.1 47.38 32.69 47.71C32.33 48 31.85 48.47 31.6 48.77C31.35 49.07 30.98 49.58 30.78 49.93C30.57 50.27 30.29 50.85 30.14 51.23C30.01 51.6 29.84 52.16 29.78 52.47C29.68 52.93 29.66 53.58 29.66 55.94L29.65 58.85L30.06 59.26C33.08 59.33 33.28 59.35 33.5 59.49C33.64 59.57 33.81 59.77 33.89 59.94C34 60.17 34.05 60.54 34.12 61.59C34.16 62.33 34.25 63.92 34.3 65.12C34.36 66.32 34.46 68.38 34.53 69.7C34.6 71.02 34.66 72.21 34.69 72.33C34.71 72.51 34.76 72.56 34.96 72.61C35.09 72.64 36.23 72.67 37.5 72.66C38.76 72.66 39.97 72.63 40.2 72.61L40.61 72.55C40.69 71.05 40.79 69.59 40.87 68.35C40.96 67.11 41.04 65.83 41.06 65.5C41.08 65.17 41.17 63.83 41.26 62.53C41.39 60.55 41.44 60.12 41.56 59.9C41.64 59.76 41.83 59.56 41.99 59.47C42.24 59.32 42.36 59.31 43.35 59.3C44.1 59.3 44.55 59.27 44.78 59.2C44.98 59.13 45.22 58.97 45.37 58.81C45.49 58.67 45.64 58.42 45.68 58.26C45.72 58.11 45.76 57 45.76 55.77C45.76 54.34 45.72 53.3 45.65 52.84C45.6 52.45 45.45 51.81 45.32 51.42C45.18 51.03 44.93 50.43 44.73 50.1C44.55 49.77 44.27 49.33 44.1 49.13C43.94 48.92 43.54 48.49 43.21 48.16C42.87 47.85 42.34 47.41 42.02 47.21C41.7 47 41.21 46.74 40.91 46.62C40.63 46.49 40.06 46.31 39.67 46.2C39.13 46.05 38.73 45.99 37.98 45.97C37.45 45.96 36.8 45.97 36.56 46.02C36.31 46.05 35.85 46.15 35.54 46.24Z" fill="#5A4D47" fill-opacity="1.000000" fill-rule="evenodd"/>
	<path id="Vector" d="M41.4 0.15C41.96 0.21 42.94 0.35 43.58 0.46C44.21 0.56 45.18 0.75 45.72 0.87C46.25 0.99 47.07 1.19 47.52 1.32C47.97 1.44 48.76 1.68 49.27 1.85C49.77 2.02 50.65 2.34 51.22 2.56C51.78 2.79 52.64 3.14 53.11 3.36C53.59 3.58 54.37 3.95 54.84 4.21C55.32 4.45 56.16 4.93 56.72 5.26C57.27 5.59 58.11 6.11 58.56 6.42C59.01 6.74 59.72 7.24 60.14 7.56C60.55 7.87 61.33 8.49 61.86 8.95C62.39 9.4 63.38 10.32 64.05 10.98C64.71 11.64 65.62 12.62 66.07 13.16C66.53 13.7 67.15 14.47 67.46 14.88C67.78 15.3 68.33 16.09 68.71 16.65C69.08 17.2 69.6 18.03 69.87 18.49C70.14 18.95 70.58 19.74 70.85 20.25C71.12 20.77 71.53 21.61 71.76 22.13C71.99 22.65 72.28 23.32 72.4 23.63C72.52 23.94 72.77 24.64 72.97 25.17C73.16 25.71 73.43 26.57 73.58 27.09C73.73 27.6 73.97 28.54 74.11 29.15C74.25 29.77 74.46 30.8 74.56 31.44C74.66 32.08 74.8 33.08 74.87 33.66C74.96 34.45 75 35.39 75 37.49C75 39.62 74.96 40.53 74.87 41.39C74.79 42.01 74.65 43.03 74.55 43.64C74.44 44.26 74.27 45.15 74.17 45.62C74.07 46.08 73.92 46.72 73.83 47.04C73.74 47.36 73.58 47.95 73.46 48.34C73.35 48.73 73.07 49.58 72.84 50.21C72.61 50.85 72.25 51.77 72.05 52.24C71.85 52.72 71.41 53.65 71.08 54.31C70.75 54.97 70.23 55.93 69.93 56.45C69.63 56.97 69.03 57.93 68.57 58.59C68.13 59.25 67.37 60.28 66.89 60.88C66.42 61.48 65.61 62.42 65.1 62.97C64.6 63.53 63.75 64.39 63.21 64.89C62.67 65.39 61.85 66.11 61.37 66.5C60.9 66.89 60.21 67.43 59.83 67.71C59.46 67.98 58.75 68.48 58.26 68.81C57.76 69.15 56.95 69.65 56.46 69.94C55.96 70.23 55.37 70.56 55.16 70.67C54.93 70.78 54.64 70.87 54.46 70.87C54.3 70.87 54.07 70.82 53.96 70.76C53.84 70.7 53.68 70.57 53.59 70.47C53.49 70.38 53.39 70.18 53.34 70.04C53.29 69.85 53.31 69.31 53.41 68.09C53.5 67.16 53.63 65.65 53.71 64.75C53.8 63.84 53.93 62.35 54.01 61.44C54.1 60.53 54.22 59.23 54.28 58.55C54.33 57.87 54.44 56.67 54.5 55.88C54.57 55.1 54.65 54.28 54.69 54.08C54.75 53.81 54.83 53.64 55.01 53.47C55.14 53.34 55.34 53.19 55.46 53.15C55.59 53.1 56.85 53.07 59.08 53.07C62.07 53.07 62.5 53.05 62.5 52.96C62.5 52.9 62.42 52.63 62.32 52.37C62.21 52.11 61.55 50.35 60.84 48.45C60.14 46.55 59.49 44.86 59.41 44.7C59.32 44.53 59.1 44 58.92 43.52C58.75 43.03 58.6 42.59 58.6 42.54C58.6 42.49 57.95 40.72 57.16 38.61C56.12 35.84 55.72 34.69 55.72 34.45C55.71 34.23 55.76 34.02 55.87 33.84C55.96 33.69 56.16 33.51 56.35 33.42C56.53 33.32 56.76 33.24 56.87 33.24C56.97 33.24 57.2 33.31 57.38 33.39C57.56 33.48 57.76 33.65 57.84 33.78C57.92 33.92 58.42 35.18 58.94 36.59C59.47 37.99 60.3 40.22 60.79 41.54C61.28 42.86 61.76 44.03 61.85 44.12C61.94 44.21 62.15 44.37 62.31 44.45C62.55 44.57 62.72 44.6 63.11 44.58C63.48 44.55 63.67 44.5 63.91 44.34C64.08 44.22 64.32 43.97 64.43 43.78C64.6 43.49 64.64 43.33 64.63 43.01C64.62 42.67 64.43 42.06 63.6 39.81C63.03 38.28 62.33 36.38 62.03 35.57C61.73 34.77 61.36 33.87 61.2 33.58C61.03 33.29 60.73 32.8 60.53 32.49C60.32 32.19 59.94 31.66 59.68 31.33C59.43 31 58.92 30.44 58.55 30.09C58.18 29.74 57.6 29.26 57.25 29.03C56.89 28.8 56.3 28.45 55.93 28.27C55.55 28.09 54.85 27.79 54.35 27.62C53.86 27.45 53.05 27.21 52.55 27.09C52.05 26.97 51.39 26.84 51.08 26.79C50.66 26.72 50.41 26.72 50.03 26.79C49.76 26.83 49.21 26.95 48.8 27.06C48.38 27.16 47.69 27.36 47.26 27.51C46.82 27.66 46.17 27.91 45.79 28.09C45.42 28.25 44.85 28.54 44.51 28.72C44.19 28.91 43.58 29.29 43.16 29.57C42.75 29.85 42.1 30.33 41.73 30.63C41.35 30.93 40.69 31.49 39.5 32.53L39.87 32.83C40.07 32.99 40.62 33.5 41.08 33.96C41.56 34.41 42.18 35.11 42.48 35.5C42.78 35.89 43.18 36.53 43.37 36.92C43.57 37.31 43.8 37.91 43.88 38.24C43.98 38.63 44.03 39.09 44.03 39.55C44.03 40.08 43.98 40.46 43.83 41.02C43.73 41.43 43.5 42.04 43.33 42.37C43.16 42.7 42.82 43.22 42.58 43.52C42.35 43.81 42.07 44.11 41.96 44.17C41.86 44.23 41.78 44.31 41.78 44.34C41.77 44.37 41.88 44.45 42.01 44.5C42.15 44.56 42.55 44.78 42.9 44.98C43.25 45.18 43.81 45.56 44.14 45.82C44.47 46.08 44.94 46.51 45.2 46.77C45.45 47.03 45.85 47.52 46.1 47.85C46.35 48.18 46.73 48.8 46.95 49.24C47.17 49.67 47.45 50.31 47.57 50.67C47.69 51.02 47.86 51.68 47.95 52.13C48.1 52.89 48.12 53.17 48.12 55.73C48.12 58.45 48.11 58.52 47.95 59C47.85 59.27 47.66 59.67 47.51 59.89C47.37 60.1 47.11 60.42 46.94 60.58C46.76 60.76 46.47 60.98 46.28 61.09C46.09 61.2 45.78 61.35 45.57 61.43C45.33 61.52 44.91 61.59 43.69 61.67L43.56 63.54C43.5 64.58 43.38 66.3 43.32 67.37C43.25 68.45 43.15 69.96 43.09 70.75C43.03 71.54 43.01 72.2 43.04 72.23C43.07 72.26 43.58 72.19 44.18 72.07C44.78 71.95 45.62 71.77 46.05 71.65C46.49 71.55 47.32 71.32 47.89 71.15C48.83 70.87 48.98 70.85 49.23 70.93C49.38 70.98 49.62 71.12 49.73 71.24C49.85 71.36 50 71.6 50.03 71.77C50.09 71.96 50.09 72.16 50.03 72.35C50 72.5 49.91 72.7 49.85 72.8C49.79 72.89 49.61 73.03 49.46 73.11C49.3 73.19 48.75 73.37 48.23 73.52C47.71 73.66 47.11 73.83 46.88 73.9C46.66 73.96 46.06 74.1 45.57 74.21C45.07 74.31 44.18 74.48 43.58 74.58C42.98 74.69 42.05 74.8 41.51 74.85C40.98 74.9 40.48 74.96 40.41 75C40.33 75.04 39.03 75.07 37.5 75.07C35.96 75.07 34.66 75.04 34.59 75C34.51 74.96 34.01 74.9 33.48 74.85C32.94 74.8 32.01 74.69 31.41 74.58C30.81 74.48 29.92 74.31 29.42 74.21C28.93 74.1 28.03 73.88 27.43 73.71C26.83 73.55 26.06 73.31 25.71 73.19C25.35 73.07 24.98 72.89 24.89 72.79C24.8 72.7 24.66 72.52 24.6 72.4C24.52 72.25 24.5 72.06 24.53 71.8C24.55 71.6 24.63 71.35 24.71 71.24C24.79 71.14 24.97 70.99 25.11 70.91C25.26 70.82 25.5 70.76 25.67 70.77C25.83 70.77 26.29 70.88 26.68 71.01C27.07 71.14 27.88 71.38 28.48 71.54C29.08 71.7 30.1 71.94 30.76 72.06C31.41 72.19 32.02 72.29 32.13 72.29C32.32 72.29 32.32 72.28 32.28 71.79C32.25 71.5 32.21 70.65 32.16 69.89C32.13 69.12 32.07 68.11 32.05 67.64C32.03 67.16 31.96 65.83 31.9 64.67C31.84 63.51 31.77 62.36 31.71 61.63L30.65 61.61C29.65 61.59 29.54 61.58 29.12 61.38C28.87 61.26 28.52 61.04 28.34 60.89C28.16 60.74 27.91 60.46 27.78 60.28C27.66 60.09 27.49 59.75 27.4 59.53C27.25 59.14 27.25 58.97 27.25 56.03C27.25 53.14 27.26 52.91 27.42 52.17C27.51 51.73 27.69 51.08 27.82 50.7C27.94 50.33 28.2 49.71 28.39 49.34C28.59 48.95 28.96 48.33 29.23 47.95C29.51 47.57 30.08 46.93 30.51 46.51C30.95 46.08 31.58 45.56 31.94 45.33C32.29 45.09 32.79 44.8 33.05 44.67C33.3 44.54 33.51 44.39 33.51 44.36C33.51 44.32 33.43 44.23 33.33 44.17C33.22 44.11 32.93 43.79 32.68 43.47C32.42 43.16 32.11 42.68 31.98 42.41C31.84 42.13 31.66 41.71 31.57 41.44C31.49 41.19 31.37 40.73 31.33 40.44C31.28 40.13 31.26 39.54 31.28 39.1C31.31 38.6 31.38 38.12 31.49 37.79C31.58 37.49 31.78 37.01 31.94 36.7C32.1 36.39 32.5 35.81 32.82 35.42C33.16 35.03 33.64 34.52 33.9 34.29C34.16 34.06 34.65 33.64 34.98 33.36C35.31 33.08 35.59 32.82 35.6 32.79C35.61 32.75 35.35 32.51 35.04 32.26C34.72 32 34.16 31.62 33.78 31.4C33.41 31.19 32.8 30.87 32.42 30.71C32.06 30.55 31.14 30.19 30.4 29.91C29.66 29.63 28.6 29.23 28.07 29.02C27.54 28.81 26.61 28.42 24.92 27.68L23.49 28.33C22.71 28.69 21.32 29.3 20.41 29.69C19.5 30.08 18.34 30.57 17.82 30.78C17.3 30.98 16.65 31.29 16.36 31.46C16.07 31.64 15.58 32.01 15.28 32.31C14.98 32.59 14.6 33.02 14.44 33.24C14.29 33.47 14.07 33.84 13.96 34.07C13.84 34.3 12.94 36.9 11.96 39.85C10.8 43.31 10.16 45.33 10.16 45.52C10.16 45.69 10.22 45.96 10.3 46.12C10.37 46.29 10.55 46.51 10.69 46.63C10.84 46.74 11.1 46.87 11.29 46.92C11.57 46.99 11.69 46.99 12 46.91C12.23 46.84 12.48 46.71 12.65 46.54C12.9 46.29 13.03 45.9 14.7 40.9C15.94 37.18 16.55 35.45 16.69 35.28C16.79 35.14 17 34.97 17.15 34.91C17.29 34.85 17.54 34.82 17.71 34.84C17.87 34.85 18.13 34.96 18.3 35.07C18.48 35.2 18.61 35.38 18.69 35.59C18.75 35.77 18.83 36.47 18.87 37.15C18.92 37.83 19.01 39.2 19.1 40.19C19.18 41.18 19.26 42.25 19.28 42.56C19.3 42.86 19.39 43.98 19.47 45.03C19.56 46.08 19.67 47.62 19.74 48.45C19.8 49.28 19.92 50.86 20 51.98C20.08 53.1 20.19 54.6 20.25 55.32C20.32 56.04 20.39 56.94 20.41 57.31C20.44 57.69 20.53 58.78 20.6 59.75C20.67 60.72 20.76 61.82 20.79 62.19C20.81 62.57 20.9 63.68 20.98 64.67C21.06 65.66 21.17 67.2 21.36 69.7L21.19 70.04C21.06 70.29 20.92 70.42 20.67 70.55C20.42 70.68 20.26 70.71 20.04 70.68C19.86 70.66 19.38 70.44 18.87 70.14C18.4 69.87 17.52 69.33 16.92 68.93C16.32 68.54 15.51 67.98 15.12 67.69C14.73 67.4 14.14 66.94 13.8 66.67C13.48 66.4 12.92 65.92 12.57 65.62C12.21 65.3 11.61 64.75 11.23 64.37C10.84 64 10.15 63.27 9.68 62.76C9.23 62.24 8.62 61.55 8.35 61.22C8.08 60.89 7.62 60.29 7.33 59.9C7.05 59.51 6.53 58.78 6.21 58.29C5.87 57.79 5.36 56.97 5.06 56.45C4.76 55.93 4.23 54.95 3.89 54.27C3.55 53.59 3.06 52.53 2.8 51.9C2.55 51.29 2.14 50.18 1.9 49.46C1.66 48.74 1.35 47.77 1.23 47.31C1.11 46.84 0.92 46.08 0.82 45.62C0.72 45.15 0.55 44.27 0.44 43.64C0.34 43.03 0.2 42.03 0.13 41.43C0.03 40.61 0 39.66 0 37.56C0 35.44 0.03 34.52 0.12 33.69C0.18 33.09 0.33 32.08 0.43 31.44C0.53 30.8 0.72 29.83 0.84 29.3C0.96 28.77 1.17 27.96 1.3 27.5C1.41 27.04 1.66 26.27 1.81 25.77C1.98 25.28 2.3 24.4 2.53 23.82C2.75 23.24 3.13 22.35 3.37 21.83C3.6 21.31 4 20.5 4.25 20.03C4.5 19.55 4.96 18.74 5.26 18.23C5.57 17.71 6.03 17 6.26 16.65C6.49 16.3 6.99 15.6 7.36 15.11C7.73 14.61 8.42 13.75 8.89 13.19C9.36 12.64 10.28 11.64 10.95 10.98C11.61 10.32 12.54 9.44 13.01 9.03C13.49 8.63 14.34 7.95 14.89 7.53C15.45 7.11 16.21 6.56 16.58 6.31C16.96 6.06 17.68 5.6 18.2 5.29C18.71 4.99 19.53 4.53 20 4.28C20.47 4.03 21.28 3.63 21.8 3.39C22.32 3.15 23.21 2.79 23.78 2.56C24.34 2.34 25.22 2.02 25.73 1.85C26.23 1.68 27.02 1.44 27.47 1.32C27.93 1.19 28.74 0.99 29.27 0.87C29.81 0.75 30.78 0.56 31.41 0.46C32.05 0.35 33.03 0.23 33.58 0.17C34.13 0.12 34.6 0.06 34.63 0.03C34.65 0 35.96 -0.01 37.53 0C39.48 0.02 40.71 0.07 41.4 0.15ZM30.4 3.06C29.82 3.18 28.91 3.39 28.37 3.53C27.84 3.68 26.99 3.93 26.5 4.09C26 4.25 25.05 4.6 24.39 4.87C23.73 5.13 22.64 5.62 21.95 5.96C21.27 6.29 20.17 6.89 19.51 7.28C18.85 7.68 17.89 8.29 17.37 8.66C16.85 9.02 16.03 9.64 15.53 10.03C15.04 10.43 14.3 11.06 13.88 11.44C13.47 11.81 12.71 12.56 12.19 13.09C11.67 13.62 10.93 14.45 10.53 14.92C10.13 15.39 9.58 16.09 9.3 16.46C9.02 16.83 8.48 17.61 8.1 18.19C7.72 18.77 7.2 19.59 6.96 20.03C6.7 20.46 6.23 21.36 5.91 22.02C5.58 22.68 5.1 23.76 4.84 24.42C4.58 25.08 4.22 26.03 4.07 26.52C3.9 27.02 3.65 27.87 3.5 28.4C3.36 28.93 3.15 29.85 3.03 30.43C2.91 31.01 2.75 31.97 2.66 32.57C2.57 33.17 2.47 34.05 2.43 34.52C2.39 34.99 2.35 36.33 2.35 37.49C2.35 38.64 2.39 39.98 2.43 40.45C2.47 40.93 2.58 41.83 2.66 42.44C2.75 43.07 2.9 43.97 3 44.47C3.1 44.97 3.27 45.71 3.37 46.12C3.48 46.54 3.66 47.2 3.78 47.59C3.89 47.98 4.13 48.71 4.3 49.2C4.48 49.7 4.79 50.51 5 51C5.21 51.5 5.57 52.31 5.8 52.81C6.04 53.3 6.48 54.15 6.78 54.68C7.08 55.22 7.58 56.06 7.9 56.56C8.22 57.06 8.76 57.85 9.11 58.32C9.46 58.8 10.09 59.59 10.49 60.09C10.91 60.58 11.87 61.62 12.63 62.39C13.4 63.15 14.44 64.12 14.93 64.53C15.42 64.94 16.09 65.46 16.39 65.69C16.7 65.92 17.34 66.37 17.81 66.69C18.26 67.01 18.69 67.26 18.75 67.26C18.81 67.26 18.82 67.16 18.78 66.87C18.75 66.65 18.66 65.51 18.57 64.33C18.49 63.15 18.39 61.84 18.35 61.4C18.31 60.97 18.24 60.1 18.2 59.49C18.15 58.87 18.05 57.51 17.97 56.48C17.89 55.46 17.77 53.93 17.71 53.11C17.64 52.28 17.53 50.7 17.44 49.58C17.36 48.46 17.25 46.96 17.18 46.23C17.12 45.51 17.03 44.32 16.98 43.58C16.93 42.86 16.85 42.26 16.82 42.27C16.78 42.29 16.38 43.39 15.93 44.73C15.35 46.46 15.03 47.29 14.85 47.57C14.71 47.78 14.45 48.1 14.28 48.27C14.1 48.43 13.8 48.67 13.62 48.77C13.43 48.89 13.07 49.05 12.81 49.14C12.44 49.28 12.18 49.31 11.63 49.31C11.07 49.31 10.81 49.28 10.45 49.14C10.19 49.05 9.82 48.89 9.64 48.77C9.45 48.67 9.15 48.43 8.97 48.25C8.78 48.07 8.51 47.74 8.36 47.51C8.22 47.29 8.03 46.88 7.95 46.61C7.85 46.28 7.8 45.9 7.8 45.45L7.81 44.77C10.69 36.16 11.66 33.39 11.82 33.06C11.98 32.73 12.27 32.22 12.48 31.93C12.68 31.64 13.05 31.17 13.32 30.89C13.58 30.61 14.05 30.2 14.33 29.98C14.62 29.76 15.11 29.44 15.42 29.28C15.73 29.11 16.67 28.69 17.52 28.34C18.37 27.99 19.6 27.46 20.26 27.18C20.92 26.89 21.62 26.58 21.82 26.49C22.02 26.4 22.17 26.31 22.17 26.28C22.17 26.25 21.94 26.07 21.67 25.89C21.39 25.7 20.88 25.31 20.53 25.01C20.17 24.72 19.67 24.25 19.41 23.96C19.14 23.68 18.75 23.21 18.55 22.92C18.35 22.63 18.03 22.09 17.85 21.72C17.67 21.35 17.45 20.77 17.37 20.44C17.28 20.11 17.19 19.5 17.17 19.09C17.14 18.53 17.16 18.14 17.26 17.59C17.33 17.17 17.48 16.6 17.57 16.31C17.68 16.03 17.85 15.62 17.96 15.41C18.05 15.21 18.32 14.79 18.53 14.48C18.74 14.17 19.2 13.65 19.56 13.31C19.91 12.98 20.46 12.55 20.8 12.35C21.12 12.15 21.71 11.88 22.1 11.74C22.49 11.6 23.1 11.44 23.45 11.39C23.84 11.33 24.46 11.31 25.03 11.34C25.64 11.36 26.18 11.44 26.57 11.54C26.9 11.62 27.44 11.83 27.77 11.99C28.1 12.14 28.59 12.41 28.86 12.59C29.13 12.77 29.6 13.18 29.92 13.49C30.23 13.8 30.62 14.26 30.79 14.51C30.96 14.76 31.22 15.21 31.37 15.51C31.52 15.8 31.73 16.34 31.84 16.71C32.03 17.32 32.04 17.45 32.04 18.79C32.04 20.13 32.03 20.25 31.84 20.88C31.73 21.24 31.49 21.82 31.31 22.19C31.13 22.55 30.8 23.1 30.58 23.41C30.36 23.71 29.86 24.29 29.46 24.68C29.06 25.07 28.48 25.58 28.16 25.81C27.85 26.04 27.61 26.25 27.64 26.28C27.67 26.31 28.14 26.5 28.67 26.72C29.21 26.93 30 27.23 30.44 27.39C30.87 27.54 31.71 27.86 32.32 28.1C32.91 28.34 33.73 28.69 34.12 28.89C34.51 29.08 35.15 29.46 35.54 29.71C35.93 29.98 36.44 30.34 36.67 30.53C36.89 30.71 37.19 30.91 37.31 30.98L37.53 31.09C39.1 29.72 39.95 29.02 40.42 28.66C40.9 28.29 41.53 27.83 41.81 27.63C42.1 27.42 42.66 27.07 43.05 26.85C43.44 26.61 44.09 26.28 44.48 26.09C44.87 25.91 45.45 25.67 45.76 25.55C46.06 25.43 46.35 25.31 46.38 25.29C46.42 25.27 46.28 25.13 46.08 24.98C45.88 24.83 45.5 24.47 45.23 24.19C44.96 23.9 44.6 23.47 44.43 23.22C44.26 22.97 44.02 22.57 43.9 22.32C43.78 22.07 43.61 21.66 43.52 21.42C43.43 21.17 43.31 20.7 43.25 20.37C43.19 20.04 43.11 19.53 43.09 19.24C43.06 18.95 43.08 18.41 43.13 18.04C43.17 17.67 43.28 17.11 43.36 16.8C43.44 16.49 43.64 15.97 43.8 15.64C43.94 15.3 44.22 14.82 44.41 14.55C44.58 14.28 44.99 13.8 45.3 13.49C45.61 13.18 46.08 12.77 46.35 12.59C46.63 12.41 47.11 12.14 47.44 11.99C47.78 11.83 48.32 11.62 48.65 11.54C49.04 11.44 49.58 11.36 50.19 11.34C50.76 11.31 51.37 11.33 51.76 11.39C52.12 11.44 52.69 11.59 53.04 11.71C53.39 11.84 53.92 12.07 54.2 12.23C54.5 12.4 54.9 12.66 55.1 12.82C55.32 12.98 55.71 13.34 55.98 13.62C56.25 13.9 56.6 14.34 56.77 14.58C56.94 14.83 57.17 15.24 57.3 15.48C57.42 15.73 57.61 16.21 57.72 16.54C57.82 16.87 57.95 17.5 58 17.96C58.08 18.62 58.08 18.97 58 19.65C57.94 20.26 57.83 20.76 57.64 21.34C57.48 21.81 57.19 22.45 56.98 22.8C56.77 23.16 56.33 23.73 55.96 24.11C55.61 24.49 55.19 24.88 55.04 24.98C54.89 25.09 54.76 25.19 54.76 25.21C54.76 25.23 55.04 25.34 55.39 25.46C55.73 25.58 56.3 25.82 56.68 25.99C57.06 26.16 57.66 26.49 58.03 26.71C58.41 26.94 59.03 27.38 59.42 27.69C59.81 28.01 60.35 28.5 60.62 28.78C60.89 29.07 61.31 29.56 61.55 29.86C61.8 30.17 62.19 30.71 62.42 31.07C62.66 31.42 63.03 32.01 63.24 32.38C63.44 32.75 63.77 33.46 63.96 33.96C64.14 34.45 64.52 35.47 64.79 36.21C65.07 36.95 65.44 37.97 65.62 38.46C65.8 38.96 66.17 39.97 66.45 40.72L66.96 42.07C66.96 43.88 66.94 43.98 66.74 44.47C66.62 44.76 66.37 45.18 66.19 45.41C66.01 45.63 65.73 45.93 65.56 46.07C65.38 46.21 65.1 46.4 64.94 46.5C64.78 46.6 64.41 46.75 64.12 46.83C63.83 46.92 63.43 46.99 63.24 46.99C63.03 46.99 62.87 47.01 62.87 47.05C62.87 47.08 63.44 48.64 64.15 50.52C65.08 52.97 65.44 54.03 65.44 54.27C65.45 54.47 65.4 54.71 65.31 54.86C65.23 54.99 65.05 55.18 64.9 55.27C64.64 55.43 64.6 55.43 60.8 55.45L56.94 55.47C56.89 55.73 56.84 56.27 56.8 56.82C56.76 57.38 56.66 58.58 56.58 59.49C56.49 60.4 56.35 61.92 56.27 62.87C56.18 63.81 56.05 65.25 55.98 66.04C55.91 66.83 55.88 67.49 55.91 67.49C55.94 67.49 56.31 67.26 56.74 66.99C57.16 66.71 57.95 66.16 58.48 65.76C59.02 65.35 59.8 64.75 60.21 64.4C60.62 64.05 61.48 63.27 62.11 62.64C62.75 62.03 63.6 61.13 64.01 60.65C64.41 60.18 65.04 59.41 65.39 58.96C65.75 58.51 66.35 57.66 66.73 57.09C67.12 56.51 67.61 55.73 67.83 55.36C68.05 54.98 68.49 54.17 68.82 53.56C69.13 52.93 69.6 51.96 69.84 51.38C70.08 50.8 70.44 49.88 70.63 49.35C70.82 48.82 71.08 48.04 71.2 47.62C71.32 47.21 71.51 46.54 71.62 46.12C71.72 45.71 71.89 44.95 71.99 44.43C72.1 43.91 72.25 43.01 72.34 42.41C72.42 41.8 72.53 40.86 72.57 40.3C72.62 39.68 72.64 38.34 72.62 36.81C72.58 34.69 72.55 34.14 72.38 32.94C72.28 32.18 72.09 31.07 71.97 30.47C71.85 29.86 71.59 28.82 71.41 28.14C71.22 27.45 70.96 26.61 70.84 26.26C70.72 25.91 70.44 25.13 70.2 24.53C69.96 23.93 69.45 22.8 69.07 22.02C68.69 21.24 68.08 20.1 67.72 19.5C67.36 18.9 66.85 18.09 66.58 17.7C66.31 17.31 65.81 16.63 65.48 16.2C65.14 15.76 64.62 15.1 64.31 14.73C64 14.37 63.12 13.43 62.36 12.66C61.59 11.9 60.55 10.93 60.06 10.52C59.57 10.12 58.78 9.5 58.33 9.17C57.88 8.83 57.12 8.31 56.64 8C56.17 7.69 55.42 7.23 54.99 6.98C54.55 6.73 53.66 6.26 53 5.93C52.34 5.61 51.26 5.13 50.6 4.87C49.94 4.6 48.99 4.25 48.5 4.09C48 3.93 47.16 3.68 46.62 3.53C46.08 3.39 45.17 3.18 44.59 3.06C44.01 2.94 43.05 2.77 42.45 2.69C41.85 2.6 40.97 2.5 40.5 2.46C40.03 2.42 38.61 2.39 37.35 2.39C36.08 2.4 34.73 2.43 34.34 2.46C33.95 2.5 33.14 2.6 32.54 2.68C31.94 2.77 30.98 2.94 30.4 3.06ZM21.73 14.58C21.42 14.79 20.98 15.18 20.75 15.46C20.53 15.73 20.23 16.16 20.1 16.43C19.97 16.69 19.8 17.08 19.73 17.29C19.62 17.58 19.59 17.9 19.59 18.71C19.59 19.72 19.6 19.79 19.83 20.37C19.96 20.7 20.23 21.2 20.44 21.49C20.64 21.79 21.01 22.22 21.25 22.48C21.49 22.72 21.94 23.13 22.25 23.38C22.56 23.62 23.12 24.02 23.49 24.24C23.87 24.47 24.35 24.75 24.57 24.86L24.96 25.06C26.15 24.33 26.72 23.95 26.98 23.74C27.25 23.52 27.69 23.11 27.97 22.84C28.24 22.55 28.62 22.09 28.81 21.79C29 21.5 29.21 21.12 29.3 20.93C29.37 20.74 29.51 20.31 29.6 19.95C29.69 19.58 29.76 19.07 29.76 18.75C29.76 18.44 29.69 17.93 29.61 17.59C29.53 17.26 29.33 16.73 29.18 16.42C28.97 16.01 28.73 15.69 28.26 15.21C27.91 14.86 27.43 14.46 27.21 14.34C26.98 14.21 26.53 14.01 26.19 13.91C25.75 13.76 25.41 13.7 24.84 13.68C24.37 13.66 23.92 13.68 23.64 13.75C23.39 13.81 22.99 13.93 22.74 14.03C22.49 14.12 22.03 14.37 21.73 14.58ZM47.78 14.49C47.56 14.64 47.13 15 46.84 15.31C46.46 15.71 46.23 16.04 46.01 16.5C45.84 16.85 45.65 17.32 45.6 17.55C45.54 17.78 45.49 18.34 45.49 18.83C45.5 19.3 45.55 19.88 45.6 20.1C45.65 20.33 45.84 20.82 46.02 21.19C46.2 21.56 46.49 22.04 46.67 22.26C46.85 22.47 47.21 22.82 47.48 23.04C47.75 23.25 48.14 23.51 48.35 23.62C48.56 23.72 48.91 23.87 49.14 23.95C49.36 24.03 49.76 24.14 50.03 24.19C50.34 24.25 50.66 24.26 50.9 24.23C51.11 24.2 51.42 24.14 51.61 24.08C51.8 24.03 52.21 23.87 52.51 23.73C52.82 23.59 53.3 23.32 53.57 23.12C53.83 22.93 54.23 22.55 54.45 22.28C54.67 22.01 54.97 21.56 55.11 21.27C55.25 20.97 55.44 20.46 55.52 20.1C55.66 19.57 55.68 19.31 55.65 18.56C55.62 17.82 55.58 17.56 55.41 17.1C55.28 16.79 55.13 16.42 55.04 16.27C54.95 16.13 54.75 15.82 54.57 15.6C54.41 15.37 54.1 15.05 53.89 14.88C53.69 14.72 53.34 14.47 53.11 14.34C52.89 14.2 52.43 14.01 52.1 13.9C51.67 13.77 51.28 13.7 50.75 13.68C50.28 13.66 49.83 13.68 49.55 13.75C49.3 13.8 48.89 13.93 48.65 14.04C48.4 14.13 48.01 14.34 47.78 14.49ZM34.21 37.5C34.07 37.74 33.87 38.12 33.8 38.35C33.73 38.58 33.64 38.97 33.62 39.21C33.59 39.5 33.62 39.87 33.69 40.23C33.76 40.54 33.93 41.01 34.07 41.28C34.21 41.57 34.5 41.96 34.79 42.26C35.12 42.59 35.46 42.85 35.8 43.02C36.1 43.17 36.51 43.33 36.73 43.37C36.94 43.42 37.36 43.46 37.64 43.46C37.94 43.46 38.35 43.42 38.57 43.37C38.78 43.33 39.18 43.18 39.45 43.04C39.72 42.91 40.12 42.63 40.34 42.44C40.56 42.23 40.87 41.86 41.03 41.62C41.2 41.37 41.4 40.93 41.49 40.64C41.6 40.28 41.66 39.93 41.65 39.51C41.65 39.07 41.6 38.79 41.47 38.43C41.36 38.16 41.13 37.7 40.93 37.41C40.74 37.12 40.36 36.63 40.1 36.32C39.83 36.02 39.37 35.54 39.07 35.27C38.76 35 38.34 34.64 38.13 34.47C37.93 34.3 37.74 34.15 37.72 34.15C37.7 34.15 37.19 34.57 36.59 35.08C36 35.6 35.28 36.26 35 36.55C34.72 36.83 34.37 37.27 34.21 37.5ZM34.16 46.8C33.63 47.05 33.1 47.38 32.69 47.71C32.33 48 31.85 48.47 31.6 48.77C31.35 49.07 30.98 49.58 30.78 49.93C30.57 50.27 30.29 50.85 30.14 51.23C30.01 51.6 29.84 52.16 29.78 52.47C29.68 52.93 29.66 53.58 29.66 55.94L29.65 58.85L30.06 59.26C33.08 59.33 33.28 59.35 33.5 59.49C33.64 59.57 33.81 59.77 33.89 59.94C34 60.17 34.05 60.54 34.12 61.59C34.16 62.33 34.25 63.92 34.3 65.12C34.36 66.32 34.46 68.38 34.53 69.7C34.6 71.02 34.66 72.21 34.69 72.33C34.71 72.51 34.76 72.56 34.96 72.61C35.09 72.64 36.23 72.67 37.5 72.66C38.76 72.66 39.97 72.63 40.2 72.61L40.61 72.55C40.69 71.05 40.79 69.59 40.87 68.35C40.96 67.11 41.04 65.83 41.06 65.5C41.08 65.17 41.17 63.83 41.26 62.53C41.39 60.55 41.44 60.12 41.56 59.9C41.64 59.76 41.83 59.56 41.99 59.47C42.24 59.32 42.36 59.31 43.35 59.3C44.1 59.3 44.55 59.27 44.78 59.2C44.98 59.13 45.22 58.97 45.37 58.81C45.49 58.67 45.64 58.42 45.68 58.26C45.72 58.11 45.76 57 45.76 55.77C45.76 54.34 45.72 53.3 45.65 52.84C45.6 52.45 45.45 51.81 45.32 51.42C45.18 51.03 44.93 50.43 44.73 50.1C44.55 49.77 44.27 49.33 44.1 49.13C43.94 48.92 43.54 48.49 43.21 48.16C42.87 47.85 42.34 47.41 42.02 47.21C41.7 47 41.21 46.74 40.91 46.62C40.63 46.49 40.06 46.31 39.67 46.2C39.13 46.05 38.73 45.99 37.98 45.97C37.45 45.96 36.8 45.97 36.56 46.02C36.31 46.05 35.85 46.15 35.54 46.24C35.23 46.33 34.61 46.57 34.16 46.8Z" stroke="#000000" stroke-opacity="0" stroke-width="0.075092"/>
</svg>
