<svg width="53.910156" height="65.099609" viewBox="0 0 53.9102 65.0996" fill="none" xmlns="http://www.w3.org/2000/svg" xmlns:xlink="http://www.w3.org/1999/xlink">
	<desc>
			Created with Pixso.
	</desc>
	<defs/>
	<path id="Vector" d="M0.44 11.73C0.69 11.48 6.63 8.76 13.62 5.66C20.6 2.56 26.61 0.02 26.97 0C27.33 0 33.34 2.53 40.33 5.63C47.32 8.73 53.2 11.4 53.38 11.58C53.58 11.81 53.69 12.76 53.69 17.17L51.37 17.17L51.37 15.3C51.37 13.45 51.37 13.45 50.55 13.04C50.09 12.81 44.59 10.37 26.97 2.56L2.54 13.45L2.57 17.17L0 17.17L0 14.66C-0.02 12.6 0.05 12.09 0.44 11.73ZM0.28 38.95C0.13 38.03 0 36.39 0 35.29L0 33.31L2.57 33.31L2.57 35.42C2.57 36.59 2.75 38.29 2.93 39.21C3.13 40.13 3.55 41.44 3.85 42.16C4.16 42.85 5.06 44.41 5.86 45.62C6.65 46.82 8.45 48.95 9.89 50.36C11.3 51.77 13.62 53.79 15.03 54.87C16.44 55.94 18.93 57.69 20.55 58.74C22.17 59.79 24.28 61.07 26.97 62.53L28.69 61.58C29.67 61.07 31.78 59.79 33.39 58.74C35.01 57.69 37.5 55.94 38.92 54.87C40.33 53.79 42.64 51.77 44.05 50.36C45.47 48.95 47.21 46.92 47.96 45.87C48.68 44.82 49.58 43.26 49.96 42.41C50.35 41.57 50.81 40.13 51.01 39.21C51.19 38.29 51.37 36.77 51.37 34.08L53.82 34.08L53.66 36.95C53.53 39.31 53.35 40.26 52.71 42.03C52.25 43.23 51.19 45.28 50.3 46.64C49.4 47.97 47.6 50.2 46.24 51.61C44.9 53 42.59 55.12 41.1 56.3C39.61 57.48 37.09 59.33 35.53 60.38C33.93 61.4 31.5 62.92 30.13 63.68C28.59 64.56 27.31 65.09 26.84 65.09C26.41 65.09 25.1 64.53 23.76 63.76C22.48 63.04 20.16 61.61 18.62 60.61C17.08 59.58 14.59 57.79 13.1 56.64C11.61 55.46 9.19 53.28 7.73 51.79C6.24 50.25 4.39 48.08 3.55 46.77C2.72 45.51 1.69 43.59 1.28 42.54C0.87 41.49 0.44 39.87 0.28 38.95Z" fill="#5A4D47" fill-opacity="1.000000" fill-rule="evenodd"/>
	<path id="Vector" d="M0 33.31L0 17.17L2.57 17.17L2.57 33.31L0 33.31ZM51.37 34.08L51.37 17.17L53.69 17.17L53.69 34.08L51.37 34.08Z" fill="#5A4D47" fill-opacity="1.000000" fill-rule="evenodd"/>
	<path id="Vector" d="M53.84 32.42C53.83 32.42 53.82 29.6 53.82 24.73C53.82 19.78 53.83 16.9 53.84 16.9C53.85 16.9 53.86 17.36 53.87 18.32C53.92 21.7 53.92 27.34 53.87 30.88C53.86 31.92 53.85 32.42 53.84 32.42ZM51.27 32.45C51.26 32.45 51.25 29.81 51.25 25.24C51.25 20.6 51.26 17.89 51.28 17.89C51.28 17.89 51.29 18.31 51.3 19.22C51.35 22.4 51.35 27.7 51.3 31.01C51.29 31.98 51.28 32.45 51.27 32.45Z" fill="#000000" fill-opacity="0.600000" fill-rule="evenodd"/>
	<path id="Vector" d="M2.7 25.24C2.7 31.73 2.73 34.31 2.75 31.01C2.8 27.7 2.8 22.4 2.75 19.22C2.73 16.04 2.7 18.76 2.7 25.24Z" fill="#000000" fill-opacity="0.600000" fill-rule="evenodd"/>
	<path id="Vector" d="M24.4 14.25C23.76 14.48 22.78 14.99 22.22 15.37C21.66 15.76 20.86 16.45 20.45 16.94C20.04 17.42 19.44 18.32 19.16 18.96C18.73 19.88 18.6 20.81 18.5 23.57L18.37 27.03C16.98 27.24 16.26 27.5 15.85 27.75C15.46 27.98 14.92 28.57 14.64 29.01C14.23 29.67 14.13 30.31 14.13 32.08L14.13 34.34L16.44 34.34C16.44 30.83 16.54 30.39 16.95 29.98C17.39 29.55 17.8 29.47 19.91 29.47C21.99 29.47 22.37 29.39 22.58 29.01C22.68 28.78 22.86 28.26 22.96 27.85C23.12 27.19 23.09 27.16 21.96 27.16L20.81 27.16C20.81 22.88 20.91 21.24 21.07 20.76C21.19 20.27 21.55 19.45 21.89 18.99C22.22 18.5 22.99 17.73 23.58 17.32C24.46 16.71 25.05 16.5 26.15 16.42C26.97 16.4 28.08 16.48 28.64 16.63C29.21 16.76 30.18 17.32 30.8 17.86C31.44 18.4 32.16 19.29 32.42 19.86C32.78 20.65 32.88 21.55 32.88 24.04L32.88 27.16L30.57 27.16L31.24 29.34C35.96 29.57 36.53 29.7 36.96 30.11C37.43 30.55 37.53 30.9 37.5 32.34L37.5 34.08L40.07 34.08C40.07 30.31 39.97 29.67 39.56 29.01C39.28 28.57 38.74 27.98 38.35 27.75C37.94 27.5 37.22 27.24 36.73 27.16L35.83 27.03C35.58 20.32 35.48 19.7 34.94 18.58C34.58 17.88 33.83 16.86 33.26 16.27C32.67 15.71 31.65 14.96 30.95 14.63C30 14.17 29.13 13.99 27.61 13.91C26.17 13.86 25.23 13.96 24.4 14.25ZM14.13 42.36C14.13 44 14.23 44.64 14.64 45.28C14.92 45.74 15.54 46.36 16 46.64C16.64 47.05 17.29 47.15 18.96 47.15L21.07 47.15L21.07 44.59C17.75 44.62 17.24 44.51 16.9 44.16C16.57 43.82 16.44 43.26 16.44 41.95L16.44 40.23L14.13 40.23L14.13 42.36ZM37.07 44.16C37.43 43.8 37.53 43.31 37.5 41.98L37.5 40.23L40.07 40.23L40.07 42.36C40.07 44.03 39.97 44.64 39.56 45.31C39.28 45.77 38.66 46.36 38.2 46.64C37.55 47.05 36.91 47.15 32.88 47.15L32.88 44.59L34.73 44.59C36.14 44.59 36.71 44.49 37.07 44.16Z" fill="#5A4D47" fill-opacity="1.000000" fill-rule="evenodd"/>
	<path id="Vector" d="M37.5 34.08L37.5 40.23L40.07 40.23L40.07 34.08L37.5 34.08ZM14.13 34.34L14.13 40.23L16.44 40.23L16.44 34.34L14.13 34.34ZM21.07 47.15L21.07 44.59L32.88 44.59L32.88 47.15L21.07 47.15Z" fill="#5A4D47" fill-opacity="1.000000" fill-rule="evenodd"/>
	<path id="Vector" d="M21.91 27.09C23.09 27.16 23.12 27.19 22.96 27.85C22.86 28.26 22.68 28.78 22.58 29.01C22.37 29.44 22.66 29.47 26.89 29.47L31.44 29.47L30.57 27.16C32.47 27.03 30.23 27.01 26.84 27.01C23.45 27.01 21.22 27.03 21.91 27.09Z" fill="#5A4D47" fill-opacity="1.000000" fill-rule="evenodd"/>
	<path id="Vector" d="M18.42 25.5C18.37 26.34 18.34 25.75 18.34 24.21C18.34 22.68 18.37 21.96 18.42 22.68C18.47 23.37 18.47 24.65 18.42 25.5ZM20.98 25.62C20.93 26.39 20.91 25.83 20.91 24.34C20.91 22.86 20.93 22.22 20.98 22.93C21.03 23.63 21.03 24.86 20.98 25.62Z" fill="#000000" fill-opacity="0.600000" fill-rule="evenodd"/>
	<path id="Vector" d="M22.48 47.33C25.17 47.38 29.44 47.38 31.98 47.33C34.52 47.31 32.32 47.28 27.1 47.28C21.89 47.28 19.78 47.31 22.48 47.33Z" fill="#000000" fill-opacity="0.600000" fill-rule="evenodd"/>
	<path id="Vector" d="M35.89 24.6C35.83 25.24 35.78 24.78 35.78 23.57C35.78 22.37 35.83 21.86 35.89 22.42C35.94 22.99 35.94 23.96 35.89 24.6ZM14.05 40.36C14.03 42.05 13.98 40.57 13.98 37.03C13.98 33.49 14.03 32.11 14.05 33.95C14.1 35.8 14.1 38.67 14.05 40.36Z" fill="#000000" fill-opacity="0.700000" fill-rule="evenodd"/>
	<path id="Vector" d="M16.62 40.23C16.59 42 16.54 40.62 16.54 37.16C16.54 33.7 16.59 32.26 16.62 33.95C16.67 35.65 16.67 38.46 16.62 40.23ZM37.42 40.23C37.4 42 37.35 40.62 37.35 37.16C37.35 33.7 37.4 32.26 37.42 33.95C37.48 35.65 37.48 38.46 37.42 40.23Z" fill="#000000" fill-opacity="0.500000" fill-rule="evenodd"/>
	<path id="Vector" d="M22.22 29.65C24.76 29.7 28.98 29.7 31.6 29.65C34.22 29.62 32.14 29.6 26.97 29.6C21.81 29.6 19.68 29.62 22.22 29.65Z" fill="#000000" fill-opacity="0.800000" fill-rule="evenodd"/>
	<path id="Vector" d="M40.17 37.03C40.17 40.7 40.23 42.13 40.25 40.23C40.3 38.34 40.3 35.34 40.25 33.57C40.23 31.8 40.17 33.37 40.17 37.03Z" fill="#000000" fill-opacity="0.700000" fill-rule="evenodd"/>
	<path id="Vector" d="M26.07 34.8C25.69 35.18 25.61 35.65 25.64 37.18C25.66 38.31 25.82 39.21 26 39.41C26.17 39.59 26.61 39.72 27 39.72C27.36 39.72 27.77 39.57 27.95 39.39C28.13 39.21 28.26 38.31 28.26 37.16C28.28 35.65 28.18 35.13 27.82 34.8C27.56 34.54 27.18 34.34 26.95 34.34C26.71 34.34 26.33 34.54 26.07 34.8Z" fill="#5A4D47" fill-opacity="1.000000" fill-rule="evenodd"/>
	<path id="Vector" d="M25.61 38.18C25.56 38.67 25.51 38.21 25.51 37.16C25.51 36.11 25.56 35.7 25.61 36.26C25.66 36.83 25.66 37.7 25.61 38.18ZM28.44 38.18C28.39 38.67 28.33 38.21 28.33 37.16C28.33 36.11 28.39 35.7 28.44 36.26C28.49 36.83 28.49 37.7 28.44 38.18Z" fill="#000000" fill-opacity="0.300000" fill-rule="evenodd"/>
</svg>
