<svg width="50.546875" height="50.981445" viewBox="0 0 50.5469 50.9814" fill="none" xmlns="http://www.w3.org/2000/svg" xmlns:xlink="http://www.w3.org/1999/xlink">
	<desc>
			Created with Pixso.
	</desc>
	<defs>
		<linearGradient x1="25.273438" y1="1.640625" x2="25.273438" y2="49.340992" id="paint_linear_36_100_0" gradientUnits="userSpaceOnUse">
			<stop stop-color="#5A4D47"/>
			<stop offset="1.000000" stop-color="#D8BFB4"/>
		</linearGradient>
		<linearGradient x1="25.273438" y1="1.640625" x2="25.273438" y2="49.340992" id="paint_linear_36_100_1" gradientUnits="userSpaceOnUse">
			<stop stop-color="#FEA700"/>
			<stop offset="1.000000" stop-color="#F7E651"/>
		</linearGradient>
	</defs>
	<path id="Vector" d="M43.64 17.84L43.64 44.09C43.64 46.99 41.29 49.34 38.39 49.34L12.14 49.34C9.25 49.34 6.89 46.99 6.89 44.09L6.89 17.84M33.14 49.34L33.14 36.21C33.14 33.31 30.79 30.96 27.89 30.96L22.64 30.96C19.75 30.96 17.39 33.31 17.39 36.21L17.39 49.34M48.89 23.09L28.98 3.17C26.93 1.12 23.6 1.12 21.56 3.17L1.64 23.09" stroke="#000000" stroke-opacity="1.000000" stroke-width="3.281250"/>
	<path id="Vector" d="M43.64 17.84L43.64 44.09C43.64 46.99 41.29 49.34 38.39 49.34L12.14 49.34C9.25 49.34 6.89 46.99 6.89 44.09L6.89 17.84M33.14 49.34L33.14 36.21C33.14 33.31 30.79 30.96 27.89 30.96L22.64 30.96C19.75 30.96 17.39 33.31 17.39 36.21L17.39 49.34M48.89 23.09L28.98 3.17C26.93 1.12 23.6 1.12 21.56 3.17L1.64 23.09" stroke="url(#paint_linear_36_100_0)" stroke-opacity="1.000000" stroke-width="3.281250"/>
	<path id="Vector" d="M43.64 17.84L43.64 44.09C43.64 46.99 41.29 49.34 38.39 49.34L12.14 49.34C9.25 49.34 6.89 46.99 6.89 44.09L6.89 17.84M33.14 49.34L33.14 36.21C33.14 33.31 30.79 30.96 27.89 30.96L22.64 30.96C19.75 30.96 17.39 33.31 17.39 36.21L17.39 49.34M48.89 23.09L28.98 3.17C26.93 1.12 23.6 1.12 21.56 3.17L1.64 23.09" stroke="url(#paint_linear_36_100_1)" stroke-opacity="1.000000" stroke-width="3.281250"/>
	<path id="Vector" d="M43.64 17.84L43.64 44.09C43.64 46.99 41.29 49.34 38.39 49.34L12.14 49.34C9.25 49.34 6.89 46.99 6.89 44.09L6.89 17.84M33.14 49.34L33.14 36.21C33.14 33.31 30.79 30.96 27.89 30.96L22.64 30.96C19.75 30.96 17.39 33.31 17.39 36.21L17.39 49.34M48.89 23.09L28.98 3.17C26.93 1.12 23.6 1.12 21.56 3.17L1.64 23.09" stroke="#5A4D47" stroke-opacity="1.000000" stroke-width="3.281250"/>
</svg>
