<svg width="53.156250" height="42.656250" viewBox="0 0 53.1562 42.6562" fill="none" xmlns="http://www.w3.org/2000/svg" xmlns:xlink="http://www.w3.org/1999/xlink">
	<desc>
			Created with Pixso.
	</desc>
	<defs>
		<linearGradient x1="26.578129" y1="1.640625" x2="26.578129" y2="41.015625" id="paint_linear_36_94_0" gradientUnits="userSpaceOnUse">
			<stop stop-color="#5A4D47"/>
			<stop offset="1.000000" stop-color="#D8BFB4"/>
		</linearGradient>
		<linearGradient x1="26.578129" y1="1.640625" x2="26.578129" y2="41.015625" id="paint_linear_36_94_1" gradientUnits="userSpaceOnUse">
			<stop stop-color="#FEA700"/>
			<stop offset="1.000000" stop-color="#F7E651"/>
		</linearGradient>
	</defs>
	<path id="Vector" d="M26.57 17.39C12.8 17.39 1.64 13.86 1.64 9.51C1.64 5.16 12.8 1.64 26.57 1.64C40.35 1.64 51.51 5.16 51.51 9.51C51.51 13.86 40.35 17.39 26.57 17.39ZM51.51 9.51L51.51 17.39C51.51 21.73 40.35 25.26 26.57 25.26C12.8 25.26 1.64 21.73 1.64 17.39L1.64 9.51M26.57 17.39L26.57 25.26M5.57 14.76L5.57 21.32M14.76 17.39L14.76 23.95M38.39 17.39L38.39 23.95M47.57 14.76L47.57 21.32M8.2 22.64L8.2 29.2M17.39 25.26L17.39 31.82M29.2 25.26L29.2 33.14M41.01 25.26L41.01 31.82M50.2 21.32L50.2 27.89M5.57 30.51L5.57 37.07M14.76 33.14L14.76 39.7M26.57 33.14L26.57 41.01M1.64 17.39L1.64 25.26C1.64 29.61 12.8 33.14 26.57 33.14C40.35 33.14 51.51 29.61 51.51 25.26L51.51 17.39M1.64 25.26L1.64 33.14C1.64 37.48 12.8 41.01 26.57 41.01C40.35 41.01 51.51 37.48 51.51 33.14L51.51 25.26M38.39 33.14L38.39 39.7M47.57 30.51L47.57 37.07" stroke="#000000" stroke-opacity="1.000000" stroke-width="3.281250"/>
	<path id="Vector" d="M26.57 17.39C12.8 17.39 1.64 13.86 1.64 9.51C1.64 5.16 12.8 1.64 26.57 1.64C40.35 1.64 51.51 5.16 51.51 9.51C51.51 13.86 40.35 17.39 26.57 17.39ZM51.51 9.51L51.51 17.39C51.51 21.73 40.35 25.26 26.57 25.26C12.8 25.26 1.64 21.73 1.64 17.39L1.64 9.51M26.57 17.39L26.57 25.26M5.57 14.76L5.57 21.32M14.76 17.39L14.76 23.95M38.39 17.39L38.39 23.95M47.57 14.76L47.57 21.32M8.2 22.64L8.2 29.2M17.39 25.26L17.39 31.82M29.2 25.26L29.2 33.14M41.01 25.26L41.01 31.82M50.2 21.32L50.2 27.89M5.57 30.51L5.57 37.07M14.76 33.14L14.76 39.7M26.57 33.14L26.57 41.01M1.64 17.39L1.64 25.26C1.64 29.61 12.8 33.14 26.57 33.14C40.35 33.14 51.51 29.61 51.51 25.26L51.51 17.39M1.64 25.26L1.64 33.14C1.64 37.48 12.8 41.01 26.57 41.01C40.35 41.01 51.51 37.48 51.51 33.14L51.51 25.26M38.39 33.14L38.39 39.7M47.57 30.51L47.57 37.07" stroke="url(#paint_linear_36_94_0)" stroke-opacity="1.000000" stroke-width="3.281250"/>
	<path id="Vector" d="M26.57 17.39C12.8 17.39 1.64 13.86 1.64 9.51C1.64 5.16 12.8 1.64 26.57 1.64C40.35 1.64 51.51 5.16 51.51 9.51C51.51 13.86 40.35 17.39 26.57 17.39ZM51.51 9.51L51.51 17.39C51.51 21.73 40.35 25.26 26.57 25.26C12.8 25.26 1.64 21.73 1.64 17.39L1.64 9.51M26.57 17.39L26.57 25.26M5.57 14.76L5.57 21.32M14.76 17.39L14.76 23.95M38.39 17.39L38.39 23.95M47.57 14.76L47.57 21.32M8.2 22.64L8.2 29.2M17.39 25.26L17.39 31.82M29.2 25.26L29.2 33.14M41.01 25.26L41.01 31.82M50.2 21.32L50.2 27.89M5.57 30.51L5.57 37.07M14.76 33.14L14.76 39.7M26.57 33.14L26.57 41.01M1.64 17.39L1.64 25.26C1.64 29.61 12.8 33.14 26.57 33.14C40.35 33.14 51.51 29.61 51.51 25.26L51.51 17.39M1.64 25.26L1.64 33.14C1.64 37.48 12.8 41.01 26.57 41.01C40.35 41.01 51.51 37.48 51.51 33.14L51.51 25.26M38.39 33.14L38.39 39.7M47.57 30.51L47.57 37.07" stroke="url(#paint_linear_36_94_1)" stroke-opacity="1.000000" stroke-width="3.281250"/>
	<path id="Vector" d="M26.57 17.39C12.8 17.39 1.64 13.86 1.64 9.51C1.64 5.16 12.8 1.64 26.57 1.64C40.35 1.64 51.51 5.16 51.51 9.51C51.51 13.86 40.35 17.39 26.57 17.39ZM51.51 9.51L51.51 17.39C51.51 21.73 40.35 25.26 26.57 25.26C12.8 25.26 1.64 21.73 1.64 17.39L1.64 9.51M26.57 17.39L26.57 25.26M5.57 14.76L5.57 21.32M14.76 17.39L14.76 23.95M38.39 17.39L38.39 23.95M47.57 14.76L47.57 21.32M8.2 22.64L8.2 29.2M17.39 25.26L17.39 31.82M29.2 25.26L29.2 33.14M41.01 25.26L41.01 31.82M50.2 21.32L50.2 27.89M5.57 30.51L5.57 37.07M14.76 33.14L14.76 39.7M26.57 33.14L26.57 41.01M1.64 17.39L1.64 25.26C1.64 29.61 12.8 33.14 26.57 33.14C40.35 33.14 51.51 29.61 51.51 25.26L51.51 17.39M1.64 25.26L1.64 33.14C1.64 37.48 12.8 41.01 26.57 41.01C40.35 41.01 51.51 37.48 51.51 33.14L51.51 25.26M38.39 33.14L38.39 39.7M47.57 30.51L47.57 37.07" stroke="#5A4D47" stroke-opacity="1.000000" stroke-width="3.281250"/>
</svg>
