<svg width="34.500000" height="40.500000" viewBox="0 0 34.5 40.5" fill="none" xmlns="http://www.w3.org/2000/svg" xmlns:xlink="http://www.w3.org/1999/xlink">
	<desc>
			Created with Pixso.
	</desc>
	<defs/>
	<path id="Vector" d="M17.25 20.25L27.69 26.12C31.12 28.05 33.25 31.68 33.25 35.61C33.25 37.62 31.62 39.25 29.62 39.25L4.87 39.25C2.87 39.25 1.25 37.62 1.25 35.61C1.25 31.68 3.37 28.05 6.8 26.12L17.25 20.25L27.69 14.37C31.12 12.44 33.25 8.81 33.25 4.88C33.25 2.87 31.62 1.25 29.62 1.25L4.87 1.25C2.87 1.25 1.25 2.87 1.25 4.88C1.25 8.81 3.37 12.44 6.8 14.37L9.25 15.75" stroke="#5A4D47" stroke-opacity="1.000000" stroke-width="2.500000"/>
</svg>
