<svg width="45.210938" height="39.578613" viewBox="0 0 45.2109 39.5786" fill="none" xmlns="http://www.w3.org/2000/svg" xmlns:xlink="http://www.w3.org/1999/xlink">
	<desc>
			Created with Pixso.
	</desc>
	<defs>
		<linearGradient x1="22.605125" y1="1.656250" x2="22.605125" y2="37.937767" id="paint_linear_36_99_0" gradientUnits="userSpaceOnUse">
			<stop stop-color="#5A4D47"/>
			<stop offset="1.000000" stop-color="#D8BFB4"/>
		</linearGradient>
		<linearGradient x1="22.605125" y1="1.656250" x2="22.605125" y2="37.937767" id="paint_linear_36_99_1" gradientUnits="userSpaceOnUse">
			<stop stop-color="#FEA700"/>
			<stop offset="1.000000" stop-color="#F7E651"/>
		</linearGradient>
	</defs>
	<path id="Vector" d="M38.32 14.05L38.32 27.83C38.32 29.11 37.71 30.31 36.68 31.07C29.08 36.71 18.68 36.71 11.07 31.07C10.05 30.31 9.44 29.11 9.44 27.83L9.44 14.96M27.82 9.06L41.71 13.3C42.81 13.64 43.57 14.66 43.57 15.81L43.57 29.68M43.57 34.5L43.57 37.93M41.74 12.85C44.08 12.03 44.08 8.71 41.74 7.89L25.17 2.09C23.48 1.5 21.65 1.5 19.96 2.09L3.39 7.89C1.05 8.71 1.05 12.03 3.39 12.85L19.96 18.65C21.65 19.24 23.48 19.24 25.17 18.65L41.74 12.85Z" stroke="#000000" stroke-opacity="1.000000" stroke-width="3.281250"/>
	<path id="Vector" d="M38.32 14.05L38.32 27.83C38.32 29.11 37.71 30.31 36.68 31.07C29.08 36.71 18.68 36.71 11.07 31.07C10.05 30.31 9.44 29.11 9.44 27.83L9.44 14.96M27.82 9.06L41.71 13.3C42.81 13.64 43.57 14.66 43.57 15.81L43.57 29.68M43.57 34.5L43.57 37.93M41.74 12.85C44.08 12.03 44.08 8.71 41.74 7.89L25.17 2.09C23.48 1.5 21.65 1.5 19.96 2.09L3.39 7.89C1.05 8.71 1.05 12.03 3.39 12.85L19.96 18.65C21.65 19.24 23.48 19.24 25.17 18.65L41.74 12.85Z" stroke="url(#paint_linear_36_99_0)" stroke-opacity="1.000000" stroke-width="3.281250"/>
	<path id="Vector" d="M38.32 14.05L38.32 27.83C38.32 29.11 37.71 30.31 36.68 31.07C29.08 36.71 18.68 36.71 11.07 31.07C10.05 30.31 9.44 29.11 9.44 27.83L9.44 14.96M27.82 9.06L41.71 13.3C42.81 13.64 43.57 14.66 43.57 15.81L43.57 29.68M43.57 34.5L43.57 37.93M41.74 12.85C44.08 12.03 44.08 8.71 41.74 7.89L25.17 2.09C23.48 1.5 21.65 1.5 19.96 2.09L3.39 7.89C1.05 8.71 1.05 12.03 3.39 12.85L19.96 18.65C21.65 19.24 23.48 19.24 25.17 18.65L41.74 12.85Z" stroke="url(#paint_linear_36_99_1)" stroke-opacity="1.000000" stroke-width="3.281250"/>
	<path id="Vector" d="M38.32 14.05L38.32 27.83C38.32 29.11 37.71 30.31 36.68 31.07C29.08 36.71 18.68 36.71 11.07 31.07C10.05 30.31 9.44 29.11 9.44 27.83L9.44 14.96M27.82 9.06L41.71 13.3C42.81 13.64 43.57 14.66 43.57 15.81L43.57 29.68M43.57 34.5L43.57 37.93M41.74 12.85C44.08 12.03 44.08 8.71 41.74 7.89L25.17 2.09C23.48 1.5 21.65 1.5 19.96 2.09L3.39 7.89C1.05 8.71 1.05 12.03 3.39 12.85L19.96 18.65C21.65 19.24 23.48 19.24 25.17 18.65L41.74 12.85Z" stroke="#5A4D47" stroke-opacity="1.000000" stroke-width="3.281250"/>
</svg>
