<svg width="71.515625" height="76.769043" viewBox="0 0 71.5156 76.769" fill="none" xmlns="http://www.w3.org/2000/svg" xmlns:xlink="http://www.w3.org/1999/xlink">
	<desc>
			Created with Pixso.
	</desc>
	<defs/>
	<path id="Vector" d="M34.95 4.34C34.8 5.7 34.55 7.56 34.43 8.5C34.31 9.42 34.11 10.17 33.96 10.17C33.81 10.17 33.24 9.84 32.67 9.47C32.08 9.08 31.28 8.65 30.86 8.5C30.46 8.33 29.5 8.08 28.75 7.91C28.01 7.76 26.85 7.69 26.15 7.74C25.48 7.81 24.59 8.01 24.17 8.18L23.42 8.5C26.1 9.15 27.39 9.57 28.01 9.87C28.63 10.14 29.42 10.69 29.77 11.08C30.14 11.45 30.61 12.15 30.83 12.59C31.06 13.02 31.23 13.61 31.23 13.88C31.23 14.16 31.16 14.38 31.06 14.38C30.94 14.38 29.97 14.11 28.88 13.76C27.39 13.26 26.33 13.12 24.67 13.09C23.45 13.09 22.01 13.19 21.52 13.36C21 13.51 20.58 13.71 20.58 13.83C20.58 13.93 21.37 14.26 22.31 14.58C23.28 14.87 24.96 15.54 26.1 16.09C27.22 16.61 28.51 17.18 28.95 17.33C29.37 17.48 29.7 17.7 29.62 17.85C29.55 18 28.95 18.1 28.26 18.1C27.59 18.1 26.42 18.22 25.73 18.34C25.01 18.49 23.8 18.72 23.05 18.87C22.31 19.01 21.02 19.46 20.2 19.86C19.39 20.25 18.3 20.9 17.8 21.32C17.28 21.72 16.86 22.16 16.86 22.31C16.86 22.46 17.1 22.51 17.43 22.41C17.73 22.34 18.69 22.19 19.58 22.04C20.48 21.91 22.63 21.69 24.42 21.57C26.2 21.44 28.33 21.27 29.2 21.2C30.04 21.12 30.74 21.1 30.74 21.15C30.74 21.17 30.09 21.86 29.3 22.68C28.53 23.5 27.69 24.57 27.47 25.04C27.22 25.51 26.94 26.28 26.85 26.72C26.7 27.37 26.72 27.52 27.02 27.52C27.22 27.52 28.31 26.77 29.42 25.85C30.51 24.91 31.93 23.92 32.52 23.6C33.09 23.3 33.66 23.13 33.76 23.23C33.86 23.33 34.06 24 34.18 24.66C34.31 25.36 34.55 27.64 34.73 29.75C34.9 31.98 34.95 35.1 34.85 37.18C34.78 39.16 34.55 41.4 34.35 42.14C34.18 42.88 33.81 43.92 33.56 44.44C33.29 44.96 32.89 45.44 32.67 45.48C32.42 45.56 32.1 45.86 31.95 46.18C31.75 46.6 31.75 46.8 32.03 47C32.2 47.12 33.17 47.94 34.16 48.78C35.5 49.95 36.09 50.29 36.51 50.19C36.81 50.12 37.55 49.62 38.17 49.08C38.79 48.53 39.58 47.89 39.98 47.64C40.35 47.39 40.65 47 40.65 46.72C40.65 46.45 40.33 45.96 39.93 45.61C39.54 45.26 38.99 44.37 38.72 43.63C38.44 42.88 38.15 41.94 38.05 41.52C37.98 41.1 37.73 39.49 37.53 37.93C37.35 36.36 37.18 33.46 37.18 31.48C37.18 29.5 37.31 27.22 37.43 26.4C37.58 25.58 37.75 24.66 37.8 24.34C37.9 23.92 38.05 23.82 38.55 23.92C38.89 24 39.69 24.44 40.35 24.94C41 25.43 42.16 26.42 42.96 27.12C43.75 27.81 44.74 28.58 45.14 28.83L45.86 29.25C45.86 28.18 45.58 27.34 45.29 26.65C44.96 25.98 44.27 24.96 43.73 24.39C43.21 23.85 42.44 23.15 42.01 22.86C41.59 22.56 41.32 22.26 41.39 22.19C41.47 22.14 42.41 22.26 43.5 22.46C44.59 22.68 45.93 22.96 46.48 23.05C47.02 23.18 48.36 23.55 49.45 23.9C50.54 24.27 51.63 24.66 51.88 24.79C52.1 24.94 52.48 25.04 52.67 25.04C52.87 25.04 53.05 24.86 53.05 24.66C53.05 24.47 52.4 23.7 51.61 23C50.84 22.29 49.48 21.34 48.58 20.9C47.69 20.45 46.25 19.86 45.36 19.58C44.47 19.31 43.48 19.09 43.13 19.09C42.78 19.09 42.34 18.99 42.14 18.87C41.82 18.67 41.84 18.62 42.26 18.39C42.53 18.27 43.21 18.1 43.75 18C44.3 17.92 45.31 17.75 45.98 17.6C46.67 17.45 48.56 17.18 50.19 16.98C51.83 16.78 53.81 16.61 54.6 16.61C55.37 16.61 56.02 16.49 56.02 16.36C56.02 16.24 55.82 16.06 55.6 16.02C55.35 15.94 54.31 15.62 53.29 15.25C51.85 14.73 50.79 14.55 48.58 14.45C47 14.38 44.87 14.43 43.75 14.6C42.66 14.75 41.52 14.92 41.22 15C40.8 15.1 40.65 15 40.65 14.7C40.65 14.45 41 13.71 41.42 13.02C41.84 12.35 42.53 11.45 42.96 11.06C43.4 10.69 44.17 10.14 44.69 9.89C45.19 9.64 46.08 9.27 46.67 9.08C47.25 8.9 48.28 8.6 48.96 8.43C49.65 8.28 50.37 8.08 50.57 8.01C50.84 7.93 50.79 7.81 50.32 7.56C49.94 7.36 48.98 7.22 47.96 7.22C47 7.19 45.33 7.41 44.25 7.71C43.16 7.98 41.72 8.48 41.02 8.85C40.35 9.2 39.51 9.69 39.16 9.94C38.82 10.22 38.47 10.44 38.37 10.41C38.25 10.41 38.05 9.77 37.92 9C37.78 8.21 37.55 6.89 37.41 6.08C37.26 5.26 37.03 4.19 36.89 3.72C36.76 3.25 36.56 2.63 36.44 2.36C36.34 2.09 36.17 1.66 36.09 1.44C36.02 1.19 35.84 1 35.72 1C35.57 1 35.42 1.19 35.35 1.44C35.3 1.66 35.12 2.98 34.95 4.34ZM4.22 42.81C3.6 43.08 2.63 43.6 2.03 43.95C1.47 44.32 1 44.69 1 44.82C1 44.91 2.36 44.94 4.02 44.89C5.78 44.84 7.81 44.94 8.8 45.11C9.75 45.29 11.33 45.63 12.27 45.91C13.21 46.15 14.63 46.62 15.37 46.9C16.11 47.2 17.75 47.94 18.96 48.58C20.18 49.2 22.21 50.42 23.42 51.23C24.64 52.05 26.33 53.27 27.17 53.94C27.99 54.61 29.42 55.82 30.32 56.64C31.23 57.46 31.98 58.22 31.98 58.37C32 58.52 31.26 59.66 30.37 60.93C29.47 62.17 28.68 63.21 28.56 63.21C28.46 63.23 28.21 63.03 28.01 62.81C27.81 62.59 27.37 62.29 27.02 62.19C26.57 62.02 26.25 62.07 25.83 62.34C25.53 62.54 25.28 62.96 25.28 63.28C25.28 63.58 25.66 64.2 26.1 64.62C26.87 65.39 26.87 65.46 26.52 66.11C26.33 66.48 25.21 67.74 24.05 68.93C22.88 70.1 21.71 71.11 21.44 71.19C21.1 71.31 20.7 71.09 20.08 70.49C19.48 69.9 18.99 69.65 18.47 69.65C18.05 69.65 17.48 69.87 17.16 70.15C16.73 70.54 16.61 70.91 16.61 71.88C16.61 72.58 16.76 73.42 16.96 73.81C17.16 74.19 17.58 74.73 17.9 75C18.19 75.3 18.76 75.6 19.14 75.7C19.53 75.77 20.3 75.77 20.87 75.67C21.52 75.57 22.66 75.03 23.67 74.33C24.62 73.72 26.48 72.13 27.76 70.82L30.12 68.44C31.28 69.18 31.98 69.4 32.42 69.4C32.97 69.4 33.29 69.25 33.46 68.91C33.64 68.56 33.61 68.21 33.34 67.67C33.14 67.27 32.8 66.87 32.6 66.8C32.4 66.73 32.23 66.5 32.23 66.3C32.23 66.11 32.6 65.51 33.02 65.02C33.46 64.52 34.26 63.65 34.78 63.08L35.72 62.09C38.4 64.97 39.16 65.98 39.19 66.18C39.19 66.38 38.94 66.78 38.67 67.05C38.37 67.32 38.1 67.74 38.05 67.99C37.98 68.21 38.03 68.63 38.17 68.91C38.34 69.24 38.67 69.4 39.16 69.4C39.58 69.4 40.21 69.18 40.58 68.91L41.27 68.41C45.31 72.38 46.97 73.86 47.59 74.29C48.21 74.71 49.25 75.23 49.94 75.45C50.69 75.7 51.53 75.82 52.05 75.72C52.57 75.65 53.24 75.28 53.71 74.78C54.14 74.36 54.63 73.69 54.75 73.32C54.91 72.92 55.03 72.23 55.03 71.76C55.03 71.16 54.83 70.69 54.41 70.27C54.01 69.87 53.51 69.65 53.05 69.65C52.52 69.65 52.03 69.92 51.43 70.52C50.59 71.36 50.54 71.39 49.82 71.01C49.42 70.82 48.33 69.9 47.42 68.98C46.53 68.04 45.48 66.92 45.14 66.48L44.5 65.66C45.86 64.3 46.1 63.85 46.1 63.28C46.1 62.61 45.98 62.41 45.41 62.21C44.84 61.99 44.59 62.07 43.8 62.59C43.3 62.93 42.83 63.21 42.76 63.21C42.68 63.21 41.92 62.12 41.05 60.8C40.16 59.46 39.51 58.27 39.58 58.13C39.64 57.98 40.55 57.13 41.59 56.22C42.64 55.3 44.27 53.96 45.24 53.22C46.2 52.5 47.47 51.56 48.09 51.14C48.71 50.71 49.65 50.12 50.19 49.82C50.74 49.5 51.91 48.91 52.8 48.46C53.69 47.99 54.8 47.47 55.28 47.27C55.75 47.07 56.44 46.8 56.81 46.62C57.21 46.48 58.32 46.13 59.29 45.88C60.28 45.61 61.94 45.26 62.96 45.11C63.98 44.94 66.1 44.84 67.69 44.89C69.55 44.96 70.54 44.89 70.5 44.74C70.44 44.59 69.82 44.17 69.1 43.75C68.39 43.35 67.3 42.81 66.67 42.54C66.06 42.29 64.84 41.94 63.95 41.74C63.06 41.54 61.12 41.4 59.61 41.4C58.1 41.4 56.22 41.52 55.4 41.69C54.58 41.84 53.07 42.24 52.05 42.56C51.04 42.91 49.8 43.33 49.33 43.55C48.85 43.75 47.79 44.27 46.97 44.67C46.16 45.09 44.54 46.08 43.38 46.85C42.21 47.62 40.6 48.86 39.78 49.6C38.97 50.34 37.8 51.46 37.18 52.13C36.56 52.77 35.97 53.32 35.82 53.32C35.67 53.32 34.68 52.45 33.59 51.38C32.5 50.32 30.71 48.78 29.62 47.96C28.53 47.15 27.07 46.13 26.4 45.71C25.71 45.31 24.44 44.62 23.55 44.2C22.66 43.77 21.05 43.11 19.96 42.73C18.87 42.36 17.18 41.92 16.24 41.74C15.3 41.54 13.16 41.4 11.53 41.42C9.52 41.42 8.03 41.59 6.94 41.87C6.05 42.11 4.83 42.54 4.22 42.81Z" stroke="#5A4D47" stroke-opacity="1.000000" stroke-width="2.000000"/>
</svg>
