<svg width="45.718750" height="40.968750" viewBox="0 0 45.7188 40.9688" fill="none" xmlns="http://www.w3.org/2000/svg" xmlns:xlink="http://www.w3.org/1999/xlink">
	<desc>
			Created with Pixso.
	</desc>
	<defs>
		<linearGradient x1="22.859373" y1="1.484375" x2="22.859373" y2="39.484375" id="paint_linear_20_45_0" gradientUnits="userSpaceOnUse">
			<stop stop-color="#5A4D47"/>
			<stop offset="1.000000" stop-color="#D8BFB4"/>
		</linearGradient>
		<linearGradient x1="22.859373" y1="1.484375" x2="22.859373" y2="39.484375" id="paint_linear_20_45_1" gradientUnits="userSpaceOnUse">
			<stop stop-color="#FEA700"/>
			<stop offset="1.000000" stop-color="#F7E651"/>
		</linearGradient>
	</defs>
	<path id="Vector" d="M1.48 34.73C1.48 37.35 3.6 39.48 6.23 39.48L39.48 39.48C42.1 39.48 44.23 37.35 44.23 34.73L44.23 7.42L44.23 6.23C44.23 3.61 42.1 1.48 39.48 1.48L6.23 1.48C3.6 1.48 1.48 3.61 1.48 6.23L1.48 7.42L1.48 34.73ZM1.48 7.42L44.23 7.42M28.79 24.04L35.92 24.04M28.79 16.92L38.29 16.92M15.73 24.04C19.33 24.04 22.46 26.04 24.07 28.99C25.33 31.29 23.1 33.54 20.48 33.54L10.98 33.54C8.35 33.54 6.13 31.29 7.39 28.99C9 26.04 12.13 24.04 15.73 24.04ZM15.73 20.48C13.76 20.48 12.17 18.88 12.17 16.92C12.17 14.95 13.76 13.35 15.73 13.35C17.7 13.35 19.29 14.95 19.29 16.92C19.29 18.88 17.7 20.48 15.73 20.48Z" stroke="url(#paint_linear_20_45_0)" stroke-opacity="1.000000" stroke-width="2.968750"/>
	<path id="Vector" d="M1.48 34.73C1.48 37.35 3.6 39.48 6.23 39.48L39.48 39.48C42.1 39.48 44.23 37.35 44.23 34.73L44.23 7.42L44.23 6.23C44.23 3.61 42.1 1.48 39.48 1.48L6.23 1.48C3.6 1.48 1.48 3.61 1.48 6.23L1.48 7.42L1.48 34.73ZM1.48 7.42L44.23 7.42M28.79 24.04L35.92 24.04M28.79 16.92L38.29 16.92M15.73 24.04C19.33 24.04 22.46 26.04 24.07 28.99C25.33 31.29 23.1 33.54 20.48 33.54L10.98 33.54C8.35 33.54 6.13 31.29 7.39 28.99C9 26.04 12.13 24.04 15.73 24.04ZM15.73 20.48C13.76 20.48 12.17 18.88 12.17 16.92C12.17 14.95 13.76 13.35 15.73 13.35C17.7 13.35 19.29 14.95 19.29 16.92C19.29 18.88 17.7 20.48 15.73 20.48Z" stroke="url(#paint_linear_20_45_1)" stroke-opacity="1.000000" stroke-width="2.968750"/>
	<path id="Vector" d="M1.48 34.73C1.48 37.35 3.6 39.48 6.23 39.48L39.48 39.48C42.1 39.48 44.23 37.35 44.23 34.73L44.23 7.42L44.23 6.23C44.23 3.61 42.1 1.48 39.48 1.48L6.23 1.48C3.6 1.48 1.48 3.61 1.48 6.23L1.48 7.42L1.48 34.73ZM1.48 7.42L44.23 7.42M28.79 24.04L35.92 24.04M28.79 16.92L38.29 16.92M15.73 24.04C19.33 24.04 22.46 26.04 24.07 28.99C25.33 31.29 23.1 33.54 20.48 33.54L10.98 33.54C8.35 33.54 6.13 31.29 7.39 28.99C9 26.04 12.13 24.04 15.73 24.04ZM15.73 20.48C13.76 20.48 12.17 18.88 12.17 16.92C12.17 14.95 13.76 13.35 15.73 13.35C17.7 13.35 19.29 14.95 19.29 16.92C19.29 18.88 17.7 20.48 15.73 20.48Z" stroke="#5A4D47" stroke-opacity="1.000000" stroke-width="2.968750"/>
</svg>
