<svg width="30.000000" height="30.000000" viewBox="0 0 30 30" fill="none" xmlns="http://www.w3.org/2000/svg" xmlns:xlink="http://www.w3.org/1999/xlink">
	<desc>
			Created with Pixso.
	</desc>
	<defs/>
	<path id="Rectangle 34624357" d="M0.77 4.97C0.82 4.58 0.85 4.39 0.89 4.22C1.26 2.56 2.56 1.26 4.22 0.89C4.39 0.85 4.58 0.82 4.96 0.77C6.06 0.62 6.6 0.54 7.15 0.47C12.36 -0.17 17.63 -0.17 22.84 0.47C23.39 0.54 23.93 0.62 25.03 0.77C25.41 0.82 25.6 0.85 25.77 0.89C27.43 1.26 28.73 2.56 29.1 4.22C29.14 4.39 29.17 4.58 29.22 4.97C29.37 6.06 29.45 6.61 29.51 7.15C30.16 12.36 30.16 17.63 29.51 22.84C29.45 23.38 29.37 23.93 29.22 25.02C29.17 25.41 29.14 25.6 29.1 25.77C28.73 27.43 27.43 28.73 25.77 29.1C25.6 29.14 25.41 29.17 25.03 29.22C23.93 29.37 23.39 29.45 22.84 29.52C17.63 30.16 12.36 30.16 7.15 29.52C6.6 29.45 6.06 29.37 4.96 29.22C4.58 29.17 4.39 29.14 4.22 29.1C2.56 28.73 1.26 27.43 0.89 25.77C0.85 25.6 0.82 25.41 0.77 25.02C0.62 23.93 0.54 23.38 0.48 22.84C-0.17 17.63 -0.17 12.36 0.48 7.15C0.54 6.61 0.62 6.06 0.77 4.97Z" fill="#0088CC" fill-opacity="1.000000" fill-rule="nonzero"/>
	<path id="telegram" d="M6.53 13.67C11.25 11.62 14.4 10.26 15.97 9.61C20.47 7.74 21.4 7.41 22.01 7.4C22.14 7.4 22.44 7.43 22.64 7.59C22.8 7.72 22.85 7.9 22.87 8.03C22.89 8.15 22.92 8.44 22.89 8.66C22.65 11.22 21.6 17.44 21.06 20.3C20.83 21.52 20.39 21.92 19.96 21.96C19.01 22.05 18.3 21.34 17.39 20.74C15.96 19.81 15.16 19.23 13.78 18.32C12.18 17.26 13.21 16.69 14.13 15.74C14.37 15.49 18.51 11.73 18.58 11.38C18.6 11.34 18.6 11.18 18.51 11.1C18.42 11.01 18.28 11.04 18.17 11.06C18.03 11.1 15.76 12.6 11.35 15.58C10.7 16.02 10.12 16.24 9.59 16.23C9.01 16.21 7.9 15.9 7.08 15.63C6.06 15.3 5.26 15.13 5.33 14.57C5.36 14.28 5.76 13.98 6.53 13.67Z" fill="#FFFFFF" fill-opacity="1.000000" fill-rule="nonzero"/>
</svg>
