<svg width="30.000000" height="30.000000" viewBox="0 0 30 30" fill="none" xmlns="http://www.w3.org/2000/svg" xmlns:xlink="http://www.w3.org/1999/xlink">
	<desc>
			Created with Pixso.
	</desc>
	<defs/>
	<path id="Rectangle 554" d="M0.77 4.97C0.82 4.58 0.85 4.39 0.89 4.22C1.26 2.56 2.56 1.26 4.22 0.89C4.39 0.85 4.58 0.82 4.96 0.77C6.06 0.62 6.6 0.54 7.15 0.47C12.36 -0.17 17.63 -0.17 22.84 0.47C23.39 0.54 23.93 0.62 25.03 0.77C25.41 0.82 25.6 0.85 25.77 0.89C27.43 1.26 28.73 2.56 29.1 4.22C29.14 4.39 29.17 4.58 29.22 4.97C29.37 6.06 29.45 6.61 29.51 7.15C30.16 12.36 30.16 17.63 29.51 22.84C29.45 23.38 29.37 23.93 29.22 25.02C29.17 25.41 29.14 25.6 29.1 25.77C28.73 27.43 27.43 28.73 25.77 29.1C25.6 29.14 25.41 29.17 25.03 29.22C23.93 29.37 23.39 29.45 22.84 29.52C17.63 30.16 12.36 30.16 7.15 29.52C6.6 29.45 6.06 29.37 4.96 29.22C4.58 29.17 4.39 29.14 4.22 29.1C2.56 28.73 1.26 27.43 0.89 25.77C0.85 25.6 0.82 25.41 0.77 25.02C0.62 23.93 0.54 23.38 0.48 22.84C-0.17 17.63 -0.17 12.36 0.48 7.15C0.54 6.61 0.62 6.06 0.77 4.97Z" fill="#8F5DB7" fill-opacity="1.000000" fill-rule="nonzero"/>
	<path id="Subtract" d="M13.4023 5.50098C13.3125 5.50879 13.0078 5.53809 12.7227 5.56738C12.4414 5.60059 11.9727 5.66602 11.6797 5.71777C11.3867 5.77246 10.9492 5.86816 10.707 5.93457C10.4648 6 10.1016 6.11816 9.89844 6.19141C9.69922 6.26465 9.33594 6.42578 9.09375 6.54688C8.85156 6.66504 8.48828 6.87402 8.28516 7.00586C8.04688 7.16406 7.76562 7.40234 7.49219 7.67383C7.25781 7.9082 6.98047 8.22461 6.88281 8.375C6.78125 8.52539 6.63281 8.78223 6.55469 8.94336C6.47266 9.10449 6.35938 9.36133 6.30859 9.5127C6.25 9.66309 6.16797 9.94531 6.12109 10.1357C6.07031 10.3271 5.99219 10.709 5.94141 10.9805C5.88672 11.252 5.82422 11.707 5.79297 11.9893C5.76172 12.2715 5.71875 12.8916 5.69922 13.3652C5.66797 13.9707 5.66797 14.4512 5.69922 14.9805C5.71484 15.3945 5.75391 15.8721 5.76953 16.0439C5.79297 16.2168 5.84375 16.5469 5.88672 16.7783C5.92578 17.0098 6.01172 17.417 6.08203 17.6768C6.14844 17.9375 6.26172 18.2939 6.33203 18.4658C6.40234 18.6387 6.50781 18.877 6.57031 18.998C6.62891 19.1191 6.78516 19.376 6.91406 19.5674C7.04688 19.7725 7.29688 20.0703 7.51172 20.2861C7.74609 20.5215 8.01953 20.7451 8.26562 20.9102C8.48047 21.0498 8.84375 21.248 9.07422 21.3506C9.30469 21.4531 9.59375 21.5889 9.71484 21.6475C9.83594 21.71 9.96094 21.791 9.99219 21.8242C10.0391 21.8828 10.043 22.1396 10.0312 23.7832C10.0195 24.9023 10.0273 25.6885 10.0508 25.7031C10.0664 25.7178 10.2461 25.5596 10.4531 25.3545C10.6562 25.1484 11.0898 24.6895 11.4102 24.3379C11.7383 23.9854 12.3125 23.376 12.6953 22.9873L13.3867 22.2822C15.6758 22.2861 16.2344 22.2676 16.6523 22.2275C16.9727 22.1982 17.4688 22.1396 17.75 22.0957C18.0352 22.0547 18.4727 21.9814 18.7227 21.9307C18.9766 21.8789 19.3789 21.7803 19.6211 21.71C19.8633 21.6406 20.1758 21.541 20.3203 21.4863C20.4648 21.4346 20.7344 21.3135 20.9258 21.2217C21.1172 21.127 21.4062 20.958 21.5664 20.8516C21.7305 20.7412 21.9805 20.5361 22.1328 20.3926C22.2812 20.2529 22.5 20.0039 22.6211 19.8428C22.7422 19.6807 22.9297 19.3652 23.0352 19.1455C23.1406 18.9248 23.3047 18.5254 23.3945 18.2646C23.4883 18.0039 23.6016 17.5967 23.6562 17.3652C23.707 17.1338 23.793 16.6865 23.8398 16.374C23.8867 16.0625 23.9492 15.541 23.9766 15.2188C24.0039 14.8408 24.0117 14.2793 23.9961 13.6406C23.9844 13.0938 23.9492 12.4258 23.918 12.1543C23.8867 11.8828 23.8086 11.3545 23.7461 10.9805C23.6836 10.6055 23.5859 10.1104 23.5273 9.87891C23.4648 9.64844 23.3555 9.30664 23.2773 9.12695C23.2031 8.94727 23.0703 8.68262 22.9922 8.54004C22.9062 8.39648 22.7656 8.18359 22.6758 8.0625C22.5859 7.94141 22.3906 7.72168 22.2422 7.57422C22.0938 7.43164 21.8398 7.21094 21.6758 7.08984C21.5156 6.96875 21.1914 6.77441 20.9609 6.65332C20.7305 6.53613 20.375 6.375 20.1719 6.30176C19.9727 6.22754 19.5508 6.10352 19.2383 6.02637C18.9258 5.94531 18.4531 5.84277 18.1914 5.79102C17.9297 5.74023 17.4648 5.66602 17.1641 5.62598C16.8594 5.58594 16.4141 5.53418 16.1719 5.5127C15.9297 5.49414 15.2461 5.47949 14.6523 5.4834C14.0547 5.48633 13.4961 5.49414 13.4023 5.50098ZM15.3281 8.52148C15.1445 8.50293 14.9258 8.48828 14.832 8.48828C14.7422 8.49219 14.6406 8.49902 14.6055 8.51074C14.5742 8.51758 14.5195 8.57617 14.4883 8.63477C14.457 8.69336 14.4297 8.78516 14.4297 8.84375C14.4297 8.89941 14.4453 8.96191 14.4609 8.9834C14.4727 9.00586 14.5195 9.04199 14.5586 9.06055C14.5977 9.08301 14.7773 9.11914 14.9609 9.1416C15.1445 9.16699 15.4492 9.21875 15.6406 9.2627C15.832 9.30273 16.1602 9.39453 16.375 9.46484C16.5859 9.53418 16.9062 9.66992 17.0898 9.75781C17.2734 9.84961 17.5195 9.99316 17.6406 10.0732C17.7617 10.1543 17.9961 10.3564 18.1641 10.5176C18.332 10.6826 18.5508 10.9287 18.6445 11.0713C18.7461 11.2148 18.8906 11.4609 18.9727 11.6221C19.0547 11.7832 19.168 12.0557 19.2305 12.2275C19.2891 12.4004 19.3789 12.7227 19.4297 12.9434C19.4805 13.167 19.5391 13.4863 19.5625 13.6592C19.5859 13.8311 19.6094 14.0664 19.6211 14.1836C19.6328 14.3232 19.6602 14.415 19.7148 14.4658C19.7656 14.5176 19.8398 14.5391 19.9414 14.5391C20.0547 14.543 20.1172 14.5215 20.1719 14.4629C20.2383 14.3926 20.2461 14.3379 20.2422 13.8096C20.2422 13.373 20.2188 13.1377 20.1562 12.8145C20.1094 12.584 20.0234 12.2461 19.9648 12.0625C19.9023 11.8828 19.793 11.6006 19.7188 11.4385C19.6445 11.2773 19.5 11.0205 19.4062 10.8701C19.3047 10.7197 19.1094 10.4551 18.9648 10.2861C18.8203 10.1143 18.5898 9.875 18.4492 9.75391C18.3047 9.63281 18.0859 9.46484 17.9531 9.37988C17.8203 9.2959 17.582 9.16309 17.4219 9.0791C17.2578 8.99805 16.9688 8.88086 16.7773 8.81836C16.5859 8.75586 16.2578 8.67188 16.043 8.63184C15.832 8.59082 15.5117 8.54297 15.3281 8.52148ZM11.1641 8.74121C11.0703 8.69336 10.9102 8.65332 10.7969 8.64648C10.6875 8.63867 10.5117 8.65332 10.4102 8.67188C10.3086 8.69336 10.1016 8.76758 9.95312 8.84082C9.74219 8.93945 9.61328 9.03906 9.38281 9.26953C9.1875 9.47168 9.05469 9.64453 8.97266 9.80566C8.90625 9.9375 8.83203 10.1436 8.80078 10.2646C8.76953 10.3857 8.74219 10.5986 8.74219 10.7412C8.74219 10.8848 8.76953 11.1006 8.79688 11.2295C8.82812 11.3545 8.91016 11.6006 8.98438 11.7803C9.05469 11.9561 9.25781 12.3965 9.4375 12.7598C9.62109 13.123 9.90234 13.6475 10.0703 13.9268C10.2383 14.2021 10.5273 14.6387 10.707 14.8955C10.8867 15.1484 11.207 15.5674 11.4219 15.8203C11.6328 16.0732 12.0039 16.4805 12.2461 16.7227C12.4883 16.9688 12.8594 17.3135 13.0703 17.4971C13.2852 17.6768 13.6211 17.9521 13.8242 18.1025C14.0273 18.2568 14.4062 18.5215 14.668 18.6934C14.9297 18.8662 15.3086 19.1045 15.5117 19.2188C15.7148 19.3359 16.2031 19.5889 16.5938 19.7832C16.9883 19.9775 17.4453 20.1836 17.6094 20.2383C17.7812 20.2939 17.9883 20.3379 18.082 20.3379C18.1719 20.3379 18.375 20.2939 18.5273 20.2422C18.6875 20.1904 18.9062 20.0986 19.0156 20.04C19.125 19.9814 19.3281 19.8457 19.4648 19.7324C19.6016 19.6221 19.7891 19.4277 19.8828 19.3027C19.9766 19.1738 20.1211 18.9316 20.207 18.7598C20.332 18.4922 20.3555 18.415 20.3555 18.209C20.3516 18.04 20.3281 17.9268 20.2734 17.8242C20.2344 17.7432 20.0938 17.5781 19.9648 17.457C19.8359 17.3359 19.5352 17.0859 19.293 16.9023C19.0508 16.7197 18.6953 16.4658 18.5039 16.3379C18.3125 16.209 18.0273 16.0479 17.8789 15.9746C17.6562 15.8721 17.5586 15.8457 17.3633 15.8457C17.1992 15.8457 17.0742 15.8682 16.9609 15.9189C16.8711 15.96 16.7305 16.0518 16.6523 16.1211C16.5742 16.1904 16.4258 16.3525 16.3203 16.4844C16.2148 16.6162 16.0742 16.7598 16.0039 16.8037C15.9336 16.8477 15.8047 16.8955 15.7148 16.9102C15.6055 16.9248 15.4805 16.9141 15.3281 16.8701C15.207 16.8369 14.9844 16.7451 14.832 16.668C14.6836 16.5908 14.3789 16.4111 14.1562 16.2607C13.8867 16.084 13.6133 15.8535 13.3438 15.5889C13.0664 15.3135 12.8555 15.0605 12.6953 14.8145C12.5625 14.6133 12.3945 14.3154 12.3203 14.1543C12.2461 13.9932 12.1602 13.7617 12.1289 13.6406C12.0977 13.5156 12.0859 13.3613 12.0977 13.2842C12.1055 13.207 12.1484 13.083 12.1875 13.0098C12.2227 12.9326 12.3594 12.7783 12.4883 12.668C12.6172 12.5576 12.8164 12.3711 12.9336 12.2568C13.0859 12.1025 13.1562 12 13.1875 11.8896C13.207 11.8018 13.2148 11.6592 13.2031 11.5674C13.1914 11.4756 13.1211 11.2695 13.043 11.1084C12.9648 10.9473 12.8086 10.668 12.6992 10.4844C12.582 10.3047 12.3789 10.0078 12.2383 9.82422C12.0977 9.64453 11.8359 9.34375 11.6562 9.16016C11.4766 8.97266 11.2539 8.78516 11.1641 8.74121ZM15.6758 9.91602C15.5469 9.89746 15.3438 9.87891 15.2305 9.87891C15.0508 9.87891 15.0078 9.88965 14.9414 9.97461C14.8828 10.0439 14.8633 10.1172 14.8672 10.2314C14.8711 10.3564 14.8867 10.4043 14.9492 10.4482C15 10.4775 15.1992 10.5361 15.4023 10.5801C15.6055 10.6201 15.9258 10.7051 16.1172 10.7676C16.3086 10.8262 16.5977 10.9473 16.7578 11.0273C16.9688 11.1338 17.1328 11.2588 17.332 11.457C17.5586 11.6807 17.6406 11.7979 17.7812 12.0811C17.8711 12.2715 17.9883 12.5947 18.0352 12.7969C18.0898 12.998 18.1406 13.2695 18.1523 13.4023C18.168 13.5342 18.1953 13.7031 18.2109 13.7803C18.2305 13.8535 18.2773 13.9307 18.3203 13.9521C18.3594 13.9746 18.457 13.9893 18.5391 13.9893C18.6602 13.9893 18.6953 13.9707 18.75 13.8896C18.8047 13.8096 18.8164 13.71 18.8125 13.3467C18.8125 13.0645 18.7891 12.8184 18.75 12.6611C18.7148 12.5215 18.6328 12.2754 18.5703 12.1104C18.5078 11.9414 18.3555 11.666 18.2422 11.4941C18.125 11.3213 17.9062 11.0645 17.7617 10.9209C17.6133 10.7744 17.4023 10.5986 17.293 10.5215C17.1797 10.4482 16.9766 10.3301 16.832 10.2646C16.6914 10.1982 16.4297 10.0996 16.2461 10.0479C16.0625 9.99609 15.8086 9.9375 15.6758 9.91602ZM16.3984 11.4902C16.1562 11.3691 16.0469 11.3398 15.8438 11.3252C15.6602 11.3135 15.5508 11.3252 15.4648 11.3652C15.4023 11.3945 15.3281 11.4531 15.3086 11.4941C15.293 11.5342 15.2734 11.6035 15.2734 11.6514C15.2695 11.6953 15.3008 11.7686 15.3359 11.8164C15.3828 11.875 15.4883 11.9229 15.6953 11.9746C15.8555 12.0146 16.0547 12.0771 16.1367 12.1172C16.2148 12.1543 16.3438 12.2461 16.418 12.3154C16.4961 12.3887 16.6016 12.5361 16.6523 12.6426C16.707 12.7451 16.7734 12.958 16.8047 13.1084C16.8359 13.292 16.8789 13.4131 16.9375 13.4678C16.9883 13.5195 17.0625 13.5488 17.1328 13.5488C17.1992 13.5488 17.2891 13.5342 17.3281 13.5117C17.3672 13.4941 17.4219 13.4199 17.4375 13.3574C17.4609 13.292 17.4766 13.1631 17.4766 13.0713C17.4766 12.9795 17.4492 12.8076 17.418 12.6865C17.3828 12.5654 17.3047 12.3672 17.2422 12.25C17.1797 12.1318 17.0312 11.9453 16.9141 11.8389C16.793 11.7246 16.5781 11.5781 16.3984 11.4902Z" clip-rule="evenodd" fill="#FFFFFF" fill-opacity="1.000000" fill-rule="evenodd"/>
</svg>
