<svg width="30.000000" height="30.000000" viewBox="0 0 30 30" fill="none" xmlns="http://www.w3.org/2000/svg" xmlns:xlink="http://www.w3.org/1999/xlink">
	<desc>
			Created with Pixso.
	</desc>
	<defs/>
	<path id="Rectangle 558" d="M0.77 4.97C0.82 4.58 0.85 4.39 0.89 4.22C1.26 2.56 2.56 1.26 4.22 0.89C4.39 0.85 4.58 0.82 4.96 0.77C6.06 0.62 6.6 0.54 7.15 0.47C12.36 -0.17 17.63 -0.17 22.84 0.47C23.39 0.54 23.93 0.62 25.03 0.77C25.41 0.82 25.6 0.85 25.77 0.89C27.43 1.26 28.73 2.56 29.1 4.22C29.14 4.39 29.17 4.58 29.22 4.97C29.37 6.06 29.45 6.61 29.51 7.15C30.16 12.36 30.16 17.63 29.51 22.84C29.45 23.38 29.37 23.93 29.22 25.02C29.17 25.41 29.14 25.6 29.1 25.77C28.73 27.43 27.43 28.73 25.77 29.1C25.6 29.14 25.41 29.17 25.03 29.22C23.93 29.37 23.39 29.45 22.84 29.52C17.63 30.16 12.36 30.16 7.15 29.52C6.6 29.45 6.06 29.37 4.96 29.22C4.58 29.17 4.39 29.14 4.22 29.1C2.56 28.73 1.26 27.43 0.89 25.77C0.85 25.6 0.82 25.41 0.77 25.02C0.62 23.93 0.54 23.38 0.48 22.84C-0.17 17.63 -0.17 12.36 0.48 7.15C0.54 6.61 0.62 6.06 0.77 4.97Z" fill="#25D366" fill-opacity="1.000000" fill-rule="nonzero"/>
	<path id="whatsapp" d="M22.52 7.03C20.66 5.17 18.19 4.18 15.58 4.18C10.14 4.18 5.68 8.64 5.68 14.09C5.68 15.82 6.17 17.56 7.04 19.04L5.68 24L10.88 22.63C12.37 23.38 13.98 23.87 15.58 23.87C21.03 23.87 25.49 19.41 25.49 13.96C25.49 11.37 24.38 8.89 22.52 7.03ZM15.58 22.26C14.1 22.26 12.61 21.89 11.37 21.15L11.13 21.02L8.03 21.89L8.9 18.92L8.65 18.55C7.78 17.18 7.41 15.7 7.41 14.21C7.41 9.75 11.13 6.04 15.58 6.04C17.82 6.04 19.8 6.91 21.41 8.39C23.01 10 23.76 11.98 23.76 14.21C23.76 18.55 20.17 22.26 15.58 22.26ZM20.04 16.07C19.8 15.95 18.56 15.33 18.31 15.33C18.06 15.2 17.94 15.2 17.82 15.45C17.69 15.7 17.19 16.19 17.07 16.44C16.95 16.57 16.82 16.57 16.58 16.57C16.33 16.44 15.58 16.19 14.59 15.33C13.85 14.71 13.35 13.84 13.23 13.59C13.11 13.35 13.23 13.22 13.35 13.1C13.48 12.97 13.6 12.85 13.73 12.73C13.85 12.6 13.85 12.48 13.98 12.36C14.1 12.23 13.98 12.11 13.98 11.98C13.98 11.86 13.48 10.62 13.23 10.13C13.11 9.75 12.86 9.75 12.74 9.75C12.61 9.75 12.49 9.75 12.24 9.75C12.12 9.75 11.87 9.75 11.62 10C11.37 10.25 10.76 10.87 10.76 12.11C10.76 13.35 11.62 14.46 11.75 14.71C11.87 14.83 13.48 17.43 15.96 18.42C18.06 19.29 18.43 19.04 18.93 19.04C19.42 19.04 20.41 18.42 20.54 17.93C20.78 17.31 20.78 16.81 20.66 16.81C20.54 16.19 20.29 16.19 20.04 16.07Z" fill="#FFFFFF" fill-opacity="1.000000" fill-rule="evenodd"/>
</svg>
